<svg viewBox="0 0 512 512" xmlns="http://www.w3.org/2000/svg"><path d="m251.4 126.43c-81.61 21.75-118 73.79-97.33 139.2 12.92 40.89 57.66 52.58 84.98 45.3 64.44-17.18 49.34-67.47 48.67-69.6l-13.13 3.16c.09.32 8.12 32.15-42.14 45.55-23.61 6.29-58.03-4.74-65.34-27.89-16.3-51.55 18.54-95.54 90.9-114.83 95.01-25.33 170.67 3.41 192.73 73.21 23.12 73.16-21.43 175.51-149.54 221.08l7.24 20.68c137.42-48.87 182.16-160.37 155.33-245.24-26.07-82.49-109.43-118.06-212.37-90.62z" fill="#3354ea"/><g fill="#09239d"><path d="m349.4 252.43c-6.49-42.88-46.12-61.02-72.22-57.62-61.58 8.02-54.33 60.64-53.99 62.88l12.5-1.29c-.04-.34-3.23-33.43 44.8-39.68 22.57-2.94 52.78 13.06 56.46 37.33 8.18 54.06-29.69 93.22-98.84 102.22-90.79 11.82-156.62-27.84-167.7-101.04-11.62-76.72 42.91-173.05 166.84-200.44l-3.94-21.79c-132.92 29.37-188.83 134.85-175.36 223.85 13.1 86.51 85.12 134.13 183.48 121.33 77.99-10.15 118.36-57.16 107.97-125.75z"/><path d="m239.65 32.1 20.55-3.97 3.96 20.55-20.55 3.97zm30.38-2.83 19.58-.76.76 19.59-19.58.76zm30.63.5 19.46 2.38-2.38 19.45-19.46-2.38z"/></g></svg>