<svg viewBox="0 0 30 30" xmlns="http://www.w3.org/2000/svg" xmlns:xlink="http://www.w3.org/1999/xlink"><g style="transform:translate(25%, 5%)"><linearGradient id="a" gradientTransform="matrix(.41945208 -.90777748 .90777748 .41945208 2526.798157 -5568.289839)" gradientUnits="userSpaceOnUse" x1="-6122.8" x2="-6118.85" y1="66.3" y2="70.93"><stop offset="0" stop-color="#f69923"/><stop offset=".31" stop-color="#f79a23"/><stop offset=".84" stop-color="#e97826"/></linearGradient><linearGradient id="b" gradientTransform="matrix(.41945208 -.90777748 .90777748 .41945208 2526.798157 -5568.289839)" gradientUnits="userSpaceOnUse" x1="-6150.21" x2="-6121.99" y1="66.86" y2="66.86"><stop offset=".32" stop-color="#9e2064"/><stop offset=".63" stop-color="#c92037"/><stop offset=".75" stop-color="#cd2335"/><stop offset="1" stop-color="#e97826"/></linearGradient><linearGradient id="c" x1="-6123.16" x2="-6119.21" xlink:href="#a" y1="66.61" y2="71.24"/><linearGradient id="d" x1="-6150.21" x2="-6121.99" xlink:href="#b" y1="67.36" y2="67.36"/><linearGradient id="e" gradientTransform="matrix(.41945208 -.90777748 .90777748 .41945208 2526.798157 -5568.289839)" gradientUnits="userSpaceOnUse" x1="-6146.8" x2="-6129.99" y1="69.7" y2="69.7"><stop offset="0" stop-color="#282662"/><stop offset=".1" stop-color="#662e8d"/><stop offset=".79" stop-color="#9f2064"/><stop offset=".95" stop-color="#cd2032"/></linearGradient><linearGradient id="f" x1="-6148.62" x2="-6120.41" xlink:href="#b" y1="66.61" y2="66.61"/><linearGradient id="g" x1="-6150.21" x2="-6121.99" xlink:href="#b" y1="66.59" y2="66.59"/><linearGradient id="h" x1="-6148.62" x2="-6120.41" xlink:href="#b" y1="66.59" y2="66.59"/><linearGradient id="i" x1="-6146.57" x2="-6131.74" xlink:href="#e" y1="66.99" y2="66.99"/><linearGradient id="j" x1="-6148.62" x2="-6120.41" xlink:href="#b" y1="69.53" y2="69.53"/><linearGradient id="k" x1="-6148.62" x2="-6120.41" xlink:href="#b" y1="70.33" y2="70.33"/><linearGradient id="l" gradientTransform="matrix(.47930469 -.87764857 .87764857 .47930469 2886.019711 -5402.009632)" x1="-6148.62" x2="-6120.41" xlink:href="#b" y1="70.28" y2="70.28"/><linearGradient id="m" gradientTransform="matrix(.59060567 -.80696031 .80696031 .59060567 3561.434535 -4960.195042)" x1="-6148.62" x2="-6120.41" xlink:href="#b" y1="70.28" y2="70.28"/><linearGradient id="n" x1="-6146.8" x2="-6129.99" xlink:href="#e" y1="68.51" y2="68.51"/><linearGradient id="o" x1="-6148.62" x2="-6120.41" xlink:href="#b" y1="68.51" y2="68.51"/><linearGradient id="p" x1="-6150.37" x2="-6122.16" xlink:href="#b" y1="69.38" y2="69.38"/><path d="m13.6.84s-.78-1.24-1.68-.71a10.26 10.26 0 0 0 -2 2.06l.8 1.51a19.74 19.74 0 0 1 1.71-2.14 17.86 17.86 0 0 0 -1.6 2.17 30.09 30.09 0 0 0 3.11-.39 3.29 3.29 0 0 0 -.34-2.5z" fill="url(#a)"/><path d="m8.93 12.87h.3l-.3.05h.14-.14z" fill="#be202e"/><path d="m8.93 12.87h.3l-.3.05h.14-.14z" fill="#be202e" opacity=".35"/><path d="m9.54 11.49h.2-.24z" fill="#be202e"/><path d="m9.54 11.49h.2-.24z" fill="#be202e" opacity=".35"/><path d="m9.88 2.19-.18.22c-.23.29-.47.6-.72.92s-.56.76-.85 1.18-.54.78-.81 1.2-.46.72-.69 1.09l1 2.05.68-1.3q.37-.68.74-1.33t.79-1.22v-.08q.39-.62.79-1.19l-.8-1.51z" fill="url(#b)"/><path d="m9.88 2.19.8 1.51z" fill="url(#c)"/><path d="m9.88 2.19.8 1.51z" fill="url(#d)"/><path d="m3.66 19-.08.21-.41 1.16-.06.17-.36 1a2.11 2.11 0 0 1 .79.93 1.68 1.68 0 0 0 -.54-1.11 3.62 3.62 0 0 0 3.49-1.42 2.8 2.8 0 0 0 .16-.31 1.45 1.45 0 0 1 -1.4.51 4.06 4.06 0 0 0 2-1.67c.11-.18.22-.37.33-.59a3.3 3.3 0 0 1 -3.11 1z" fill="url(#e)"/><path d="m6.6 6.85-.05.08c-.24.4-.48.8-.72 1.22s-.48.84-.7 1.28-.38.73-.57 1.1l-.11.23q-.34.7-.62 1.35t-.55 1.39c-.11.29-.2.58-.29.85s-.14.46-.21.7q-.23.82-.4 1.63l1 2.07.43-1.12.19-.32.56-1.43.57-1.39.59-1.4q.31-.71.63-1.42t.65-1.39l.24-.49.42-.84z" fill="url(#f)"/><path d="m6.6 6.85 1.04 2.05z" fill="url(#g)"/><path d="m6.6 6.85 1.04 2.05z" fill="url(#h)"/><path d="m2.88 20.22.44-1.22.1-.28-1-2.07v.07a16.07 16.07 0 0 0 -.27 2 .32.32 0 0 1 0 .07 4.15 4.15 0 0 0 -1.2-1 5.83 5.83 0 0 1 1.17 2.69 2.64 2.64 0 0 1 -1.33-.23 2.66 2.66 0 0 0 1.13.69 3.25 3.25 0 0 0 -1.57.78 3.36 3.36 0 0 1 1.86-.34c-.78 2.01-1.49 4.25-2.21 6.62a.62.62 0 0 0 .42-.41c.13-.43 1-3.25 2.31-7l.11-.32z" fill="url(#i)"/><path d="m10.59 8.75h-.12l-2.64.29-.09.18-.27.57-.3.65-.17.37-.47 1q-.3.67-.6 1.38l-.59 1.42-.59 1.49-.52 1.36v.07l-.53 1.42.84-.09a6 6 0 0 0 3.21-1.81 8 8 0 0 0 1.1-1.52 13.14 13.14 0 0 0 .71-1.47c.2-.47.38-1 .56-1.54a3.05 3.05 0 0 1 -.79.27h-.32a3.67 3.67 0 0 0 2-1.91 3.34 3.34 0 0 1 -1.13.49h-.2a3.83 3.83 0 0 0 .84-.47l.15-.12.21-.2.12-.14a3.27 3.27 0 0 0 .26-.36l.07-.12.09-.18c.13-.26.24-.5.32-.71s.08-.2.11-.29v-.1l.08-.26a2.6 2.6 0 0 0 .06-.28l-.11.08a4 4 0 0 1 -1.29.53z" fill="url(#j)"/><path d="m8.91 12.87h.02z" fill="#be202e"/><path d="m8.91 12.87h.02z" fill="#be202e" opacity=".35"/><path d="m8.91 12.87h.02z" fill="url(#k)"/><circle cx="9.5" cy="11.5" fill="#be202e" transform="matrix(.99801575 -.06296471 .06296471 .99801575 -.710002 .619999)"/><circle cx="9.5" cy="11.5" fill="#be202e" opacity=".35" transform="matrix(.99801575 -.06296471 .06296471 .99801575 -.710002 .619999)"/><circle cx="9.5" cy="11.5" fill="url(#l)" transform="matrix(.99801575 -.06296471 .06296471 .99801575 -.710002 .619999)"/><circle cx="9.5" cy="11.5" fill="#be202e" transform="matrix(.98085332 -.19474795 .19474795 .98085332 -2.060102 2.069938)"/><circle cx="9.5" cy="11.5" fill="#be202e" opacity=".35" transform="matrix(.98085332 -.19474795 .19474795 .98085332 -2.060102 2.069938)"/><circle cx="9.5" cy="11.5" fill="url(#m)" transform="matrix(.98085332 -.19474795 .19474795 .98085332 -2.060102 2.069938)"/><path d="m3.66 18.98.84-.09h-.01z" fill="url(#n)"/><path d="m3.66 18.98.84-.09h-.01z" fill="url(#o)"/><path d="m10 5q-.36.6-.76 1.33t-.75 1.38q-.32.63-.67 1.29l2.65-.29a3.22 3.22 0 0 0 1.45-1.14l.27-.4c.27-.42.54-.89.78-1.35a14.07 14.07 0 0 0 .59-1.29 6.78 6.78 0 0 0 .23-.7c0-.18.09-.36.11-.52a30.14 30.14 0 0 1 -3.11.38c-.24.4-.5.81-.79 1.31z" fill="url(#p)"/><g fill="none"><path d="m9.07 12.85h-.14"/><path d="m9.07 12.85h-.14" opacity=".35"/><path d="m9.5 11.5h.01"/><path d="m9.5 11.5h.01" opacity=".35"/><path d="m9.51 11.5.03-.01"/><path d="m9.51 11.5.03-.01" opacity=".35"/><path d="m9.49 11.5h.01"/><path d="m9.49 11.5h.01" opacity=".35"/></g></g></svg>
