<svg viewBox="0 0 512 242.89" xmlns="http://www.w3.org/2000/svg"><path d="m512 121.44c0-67.03-56.35-121.44-126.3-121.44a130.81 130.81 0 0 0 -19.43 1.46c-53.92 7.77-90.35 46.63-110.27 76.26-20.4-29.63-56.35-68.49-110.27-76.26a130.81 130.81 0 0 0 -19.43-1.46c-69.47 0-126.3 54.41-126.3 121.44 0 67 56.35 121.44 125.81 121.44a130.81 130.81 0 0 0 19.43-1.46c53.92-7.77 90.35-46.63 110.27-76.27 20.4 29.63 56.35 68.49 110.27 76.27a130.81 130.81 0 0 0 19.43 1.46c70.44.49 126.79-53.88 126.79-121.44zm-372.58 77.73a119.1 119.1 0 0 1 -13.12 1c-45.66 0-83.07-35.46-83.07-78.69s37.4-78.69 83.07-78.69a119.11 119.11 0 0 1 13.12 1c51 7.29 82.09 57.32 92.78 77.72-10.69 20.4-41.78 70.44-92.78 77.72zm140.38-77.73c10.69-19.92 41.78-70.44 92.78-77.72a119.11 119.11 0 0 1 13.12-1c45.66 0 83.07 35.46 83.07 78.69s-37.4 78.69-83.07 78.69a119.1 119.1 0 0 1 -13.12-1c-51-7.29-82.09-57.32-92.78-77.72zm-188.48 12.63h75.78v-24.29h-75.78zm303.12 0h25.26v-24.29h-25.26v-25.78h-24.77v25.75h-25.26v24.29h25.26v25.75h24.77z" fill="#96ae60"/></svg>