<svg viewBox="0 0 421.49 512" xmlns="http://www.w3.org/2000/svg"><path d="m156.21 36.65a477.66 477.66 0 0 1 -52.07 32.85l.22 3.35c1.34 0 2.91-.89 5.14-2 2.23-.22 3.58.67 3.58 2.91l3.58-2 1.79-.22.22 1.56c.22 1.56-12.07 11.17-36.43 28.38l2 3.13-1.79.22-3.8-1.34c0 1.12-1.56 1.79-5.14 2l.22 1.79 4 4.47a14.27 14.27 0 0 1 -5.36-1.12c-7.82.67-15.64 6.48-23.24 17.21l2 3.13c6.7-6 10.5-9.16 11.62-9.16l.45 4.92c-1.12 0-2.91.89-5.14 2l4.29 6.27a125.06 125.06 0 0 1 26.59-22.12c4.92 1.34 7.37 2.68 7.37 4.47l3.58-.22c26.15-19.44 52.07-33.3 77.77-42l.22 3.35c-4.69 7.15-8 10.73-9.83 11a13.54 13.54 0 0 0 2.46 6.48c.45 4.47-11.17 33.75-34.86 88.28q-81.12 189.65-135.65 280.6c0 1.12.89 2.91 2 4.92 8.94-2.23 14.75-4.25 17.21-6.48l2-.22.22 3.35 3.35-.22 3.58-2c0 1.12 1.34 1.56 3.58 1.34l.22 3.35c.22 3.35-1.56 8.49-5.81 15.42-3.8 4.25-7.6 13-11.84 26.15l.22 1.56 3.35-.22c14.53-16.31 25.7-32.41 33.3-48 42.69-12.52 75.09-24.81 97.66-36.87 22.57-2 40-7.82 51.62-17.66l-.22-1.79-8.44 2.4-2 .22-.22-1.79c16.54-2.46 28.16-6.26 34.42-11.17 32.41-25 56.76-42.69 73.3-53.19 51.18-37.55 75.31-73.75 72.41-108.17-.22-3.58-11.62-17.66-33.75-42.24-.45-4.69 7.37-11.4 23-20.34l44.47-39.11c9.83-12.74 15.87-33.3 17.88-61.68l-.67-6.7c-1.79-19.89-16.09-36-43.36-48.27q-24.15-16.43-86.48-17.43c-34.19 3.13-79.34 15.2-134.76 36.65zm239.57 2.91-1.34 3.35-49.61-20.79q49.61 2 51 17.43zm-200.68 137.66c3.35-18.33 7.15-28.83 11.4-31.29l37.1-83.36c-.45-5.14 7.37-9.16 23.69-11.84l5.36-.45.45 4.72c16.09-2.46 25.92-3.8 29.72-4.25 29.5-2.46 44.7 3.35 46 17.88l3.35-.22-.67-8.49 3.58-.22c8.72 4.69 13.41 10.5 13.86 17.43.45 4.69-2 10.5-7.6 17.43-2.23.22-3.58-1.34-3.8-4.69l-3.58.22-.89 10.06c-15 22.35-25.7 33.75-32.41 34.42q-9.05 12.4-11.4 12.74c-4.69 5.59-17.43 15.2-38.44 28.61-6.93.67-32.63 10.5-77.1 29.95a12.78 12.78 0 0 0 -7.15-1.12l-.22-3.13c-.45-6.48 2.23-14.53 8.72-24.36zm205.38-102.8.22 3.13c-1.79.22-5.14-5.14-10.06-15.87l-.22-3.13c3.13-.45 6.48 4.92 10.06 15.87zm-326.28 39.78.22 1.56c-1.12 0-2.91.89-5.14 2l-1.79.22-.22-3.13zm107.94-2.68.45 4.92c-1.56.22-3.8 2.46-6.48 7.15l-.22-3.35q4.69-5.7 4.69-8.72zm-16.54 34.86.67 6.7-1.79.22-.67-6.7zm-4.25 12.07c-.45 5.59-1.79 8.49-4.69 8.72l-1.79.22c2-3.8 3.13-6.48 2.91-8.49zm-7.35 17.43.22 1.56-3.13 5.36-3.35.22-.22-1.56q5-.34 4.69-5.36zm-7.6 15.64-.89 8.27-1.79.22-.67-8.27zm181.24 6 7.36 4.48a3.14 3.14 0 0 1 -3.13 3.8c-3.13-2-5.59-2.91-7.37-2.91l-.45-4.92zm-141.91 19 .22 3.13-6.93.67-.22-3.13zm114.42 11.62c4.92 2.23 7.37 4.47 7.6 6.26l.25 1.6c-4.69.45-8.94-2-13-7.37zm-147.5 36.2c20.11-1.79 51.85-11.17 95-28.16l10.5-.89c21.9-1.79 38.22 2.23 48.94 12.52l.67 6.7c-8 23.24-17 36.65-26.59 40.9l-44.72 35.59c-33.3 21.9-51.18 32.85-53.86 33.08-53 29.28-86 44.25-98.78 45.37l-2 .22c1.79-6.26 25.25-54.53 70.84-145.26zm48.27-19 .22 1.56-7.15.67-.22-1.56zm160.46-7.15 1.12 13.19c-1.56 3.58-3.13 5.36-4.92 5.36l-2-23.24c3.8 1.56 5.59 3.13 5.81 4.69zm-272 115.32c-2.23 11.4-4.69 17.21-7.15 17.43l-.23-1.52c-.45-5.81 2-11 7.37-15.87zm44.7 63c13-2.46 48.5-21.23 106.83-55.87l.22 3.13c.22 1.34-4.92 5.59-15 13-29.72 14.53-47.15 24.58-52.3 29.72-32.18 11.17-48 18.1-47.83 20.78q-42.91 17.1-56.32 24.81c-2 .22-5.14-.67-9.16-2.46-.45-5.81 2-10.5 7.82-14.3a28.43 28.43 0 0 1 14.3 2.23c5.36-2.68 14.53-5.81 27.71-8.94l-.22-3.35-10.5.89c1.34-1.79 11.4-6.48 30.62-14.3l5.36-.45.22 1.56c-8.94.67-14.08 3.58-15.2 8.27.22 2 1.34 3.13 3.58 2.91 6.48-4.47 9.83-6.93 9.83-7.6zm-55-40.45.22 1.56a3.14 3.14 0 0 1 -3.13 3.8l-.17-1.5c-.22-2 .89-3.35 3.13-3.8zm83.58 22.8c-4.25.45-12.07 3.8-23.91 10.5l-1.79.22-.22-3.35a33.92 33.92 0 0 0 21.9-10.06c2.46-.45 3.8.67 4 2.68zm-86.66 24.19 5.36-.45.22 1.79c-1.34 0-2.91.89-5.14 2l-3.35.22c-.22-1.56.67-2.91 2.91-3.58zm-35.55 19.89 3.8 1.56c-1.34 10.06-4.25 15.2-9.39 15.64a22.9 22.9 0 0 0 -11-2.23l-.39-4.91c-.22-2 .89-3.13 3.35-3.8 2.23-.22 3.58 1.34 3.8 4.69 6-7.37 9.39-11 9.83-11z" fill="#fbc02d"/></svg>