<svg xmlns="http://www.w3.org/2000/svg" viewBox="0 0 122.53 108.25"><g data-name="Calque 2"><path d="M122.33 55.89a7.43 7.43 0 00-4-5.32 54.37 54.37 0 00-13.09-4.33 271.63 271.63 0 00-29-4.71c-1.13-.13-2.24-.28-3.36-.42.38-3.14 1.5-4.19 5.27-5 .39.9.75 1.85 1.21 2.74.17.33.6.74.92.74 5.63.08 11-.89 15.26-4.91 3.37-3.14 4.87-7.22 5.69-11.62.3-1.6.59-3.2.82-4.81.74-5 3.35-9 6.68-12.63.16-.18.31-.37.55-.66a16.22 16.22 0 00-7.85-.44c-9.89 1.81-17.35 7-22 16.06l-.16.17c-1.69-.43-3.38-.81-5-1.31-.3-.09-.54-.64-.68-1-2.72-7.72-7.42-13.73-15.08-17C56.3.5 53.75.64 51.33 0c-.13 0-.24.25-.36.25h-7.34a23.4 23.4 0 00-4.83.43A47.85 47.85 0 001.13 38.87C-2.62 59.54 3.05 77.6 16.67 93.41A23.27 23.27 0 0024 99.1a9.92 9.92 0 0013.67-4.55l.22-.39c1.15 3 2.39 5.92 3.38 8.92s4.45 4.25 6.58 4.11c.4 0 .9.34 1.18.12 1.91-1.44 3.41.95 5.07.95h2.69c1.9-1 3.7-1.65 4.94-3.36.15-.21.83-.27 1.25-.22a10 10 0 006.78-1.68 6.45 6.45 0 003-4.81 4.79 4.79 0 003.57-4.83 9.13 9.13 0 00-.67-4.14c-1.8-3.68-3.86-7.23-5.81-10.83l-.17-.39.38.15a17.18 17.18 0 009.1 1.76 5 5 0 004.29-2.39A12.78 12.78 0 0091.91 80c3.08-.22 6-.88 7.63-3.95a53.67 53.67 0 006.61-.07 12.78 12.78 0 004.42-1.62c2.19-1.21 3.67-3 3.21-5.78a10.78 10.78 0 006-2.15 7.78 7.78 0 002.51-4.35 4.5 4.5 0 00.19-1.19v-3.44a6.85 6.85 0 00-.2-1.56zM47 33a6.39 6.39 0 01-6.41-6.46 6.43 6.43 0 1112.85 0A6.35 6.35 0 0147 33zm19.64 5.17a12 12 0 01-1.16-6.23 13.67 13.67 0 013-8.94c.26-.34 1.09-.39 1.64-.35 6.28.44 11.74 3 16.76 6.63a19.38 19.38 0 012.92 2.56c-2-.42-3.92-.88-5.89-1.26a14.34 14.34 0 00-8.7.8c-3 1.35-6.17 1.3-9.35 1.08 1.74 1.56 3.83 1.47 5.9 1.16 1.75-.26 3.46-.77 5.26-1.19l.1 1z" fill="#f4bf75" data-name="Calque 1"/></g></svg>