<svg xmlns="http://www.w3.org/2000/svg" viewBox="0 0 1152 1024"><path fill="#e26969" d="M251.6,685.92V599.26l175.86-77.09a180.34,180.34,0,0,1,26.76-9.56,214.8,214.8,0,0,1,22.3-5.1q-8.29-1.27-22.3-4.78a157.59,157.59,0,0,1-26.76-9.24L251.6,416.4V329.11L544,461.32V128A128,128,0,0,0,416,0C356.26,0,306.52,41.1,292.4,96.44c-1.5,0-2.9-.44-4.4-.44A127.2,127.2,0,0,0,163.32,252.08,159.91,159.91,0,0,0,64,400c0,25.16,6.32,48.64,16.68,69.82C32.68,497.44,0,548.66,0,608A160,160,0,0,0,98.84,755.78,145.83,145.83,0,0,0,96,784,141.9,141.9,0,0,0,264.06,925.58C283.22,982.62,336.5,1024,400,1024A144,144,0,0,0,544,880V553.06Z"/><path fill="#e26969" d="M900.4,685.92V599.26L724.54,522.17a180.34,180.34,0,0,0-26.76-9.56,214.8,214.8,0,0,0-22.3-5.1q8.29-1.27,22.3-4.78a157.59,157.59,0,0,0,26.76-9.24L900.4,416.4V329.11L608,461.32V128A128,128,0,0,1,736,0c59.74,0,109.48,41.1,123.6,96.44,1.5,0,2.9-.44,4.4-.44A127.2,127.2,0,0,1,988.68,252.08,159.91,159.91,0,0,1,1088,400c0,25.16-6.32,48.64-16.68,69.82,48,27.62,80.68,78.84,80.68,138.18a160,160,0,0,1-98.84,147.78A145.83,145.83,0,0,1,1056,784,141.9,141.9,0,0,1,887.94,925.58C868.78,982.62,815.5,1024,752,1024A144,144,0,0,1,608,880V553.06Z"/></svg>
