<svg viewBox="0 0 125.29 129.95" xmlns="http://www.w3.org/2000/svg"><path d="m131.91 58.14a6.53 6.53 0 0 0 -12.91-1.57c-10-5.25-21.58-15.91-18.76-31.3a42.91 42.91 0 0 1 9.07-8.91c-7.58-.89-15.64.49-23.31 3.43a48.18 48.18 0 0 1 1.61-13.26 49.55 49.55 0 0 0 -20.44 11.47 48.19 48.19 0 0 1 -3.26-13c-6.23 4.41-11.3 10.83-15 18.15a48.1 48.1 0 0 1 -7.77-11c-4.23 6.34-6.66 14.12-7.52 22.28a48.39 48.39 0 0 1 -11-7.41c-1.67 7.42-1.15 15.56 1 23.48a48 48 0 0 1 -13.18-3c1.1 7.54 4.5 15 9.32 21.59a48.3 48.3 0 0 1 -13.1 1.85c3.74 6.66 9.6 12.38 16.51 16.86a48 48 0 0 1 -11.87 6.58c5.86 4.86 13.34 8.09 21.35 9.8a48.4 48.4 0 0 1 -8.5 10.12 49.56 49.56 0 0 0 23.4 1.51 48.14 48.14 0 0 1 -4.34 12.68c7.61-.31 15.34-2.92 22.45-7a48.07 48.07 0 0 1 .5 13.51c15.34-6.61 27.26-23.74 31.46-40.69 1.14-3.07 1.75-7.5 1.75-13.62 0-1.64 0-3.22-.1-4.77a79.09 79.09 0 0 0 26.63-9.42c1.9-1.12 3.83-2.76 4.45-4.1a6.5 6.5 0 0 0 1.56-4.26zm-28.59 14.72q-2 .46-4.15.82c-.34-6.29-1.08-11.8-1.81-16.72a4.35 4.35 0 1 0 -.12-8.53 2.72 2.72 0 0 1 -.36 5.32c-1.43-9.55-2.38-16.92.71-23.94 0 7.82 3.35 14.87 9.44 20.82a46.91 46.91 0 0 0 19.49 11.24c.34.41.36.9-.09 1.59a15.43 15.43 0 0 1 -1.64 1.11 75 75 0 0 1 -21.47 8.29z" fill="#ffd539" transform="translate(-6.62 -5)"/></svg>