<svg viewBox="0 0 512 504.37" xmlns="http://www.w3.org/2000/svg"><path d="m116.85 294.39c0-32.47 14.38-124.77 17.49-124.77 8.41 16.06-9.59 123.06 11 126.87 15.28-.64 7.88-113 16.71-126.87 9.16 14 1.34 125.06 17.22 126 19.13 1.17 5.21-122.66 11.75-126 10 8.57 16.88 98.68 16.2 124.77-1.43 55.13-32 53.46-34.92 77.74a316.7 316.7 0 0 0 -2.16 54l71.19 71.19c2.2-110-4.6-106.73-5.71-114.5v-269c0-22.94 21.48-33.79 41.24 16.57s14.24 229.5 14.24 242.23c-3.7 13.1-16.5 9.53-22.79 29.84-2.15 7-4.86 59.33-4.68 101.91l98.12-98.12c-2-52.56.12-43.29-24.07-66.28-46.13-45.87-15.5-159.19 30.53-162.18 42.99 1.71 77.79 114.73 30.54 162.21-25 20.37-22.41 23.21-23.82 53.11l137.07-137.11-256-256-256 256 153.82 153.82c.15-16.14.38-40.72-7.59-50.79-8.46-10.71-28.41-25.31-29.38-64.64z" fill="#019639"/></svg>