<svg viewBox="0 0 28 21.85" xmlns="http://www.w3.org/2000/svg"><path d="m14 8.74 10.95 2.72c1.9-.74 3.05-1.69 3.05-2.72v-4.37c0-2.37-6.27-4.37-14-4.37s-14 2-14 4.37v4.37c0 2.41 6.27 4.37 14 4.37z" fill="#e64a19"/><path d="m24.95 11.46-10.95-2.72v4.37l10.95 2.72c1.9-.75 3.05-1.69 3.05-2.72v-4.37c0 1.03-1.15 1.98-3.05 2.72zm-24.95-2.72v4.37c0 2.41 6.27 4.37 14 4.37v-4.37c-7.73 0-14-1.96-14-4.37z" fill="#fff"/><path d="m24.95 15.83-10.95-2.72v4.37l10.95 2.72c1.9-.75 3.05-1.69 3.05-2.72v-4.37c0 1.03-1.15 1.97-3.05 2.72zm-24.95-2.72v4.37c0 2.41 6.27 4.37 14 4.37v-4.37c-7.73 0-14-1.96-14-4.37z" fill="#e64a19"/></svg>