<svg viewBox="0 0 1058.8 1058.8" xmlns="http://www.w3.org/2000/svg"><path d="M507.5 538.9c-5.8 12.6-11.5 25.2-17.1 37.9-21.3 48.2-44.8 106.8-53.4 144.3-3.1 13.4-5 29.9-5 48.3 0 7.3.4 14.9 1 22.7 30.9 11.3 63.5 17.2 96.4 17.2 30-.1 59.8-4.9 88.3-14.4-6.5-6-12.7-12.3-18.4-19.5-37.6-48-58.6-118.3-91.8-236.5M368.6 300.6c-71.8 50.6-118.9 134.1-119 228.8.2 93.2 45.8 175.7 115.8 226.5 17.2-71.6 60.2-137.1 124.8-268.4-4.2-11.5-8.5-22.9-13.1-34.2-17.9-44.9-43.7-97-66.8-120.6-11.7-12.3-26-23-41.7-32.1" fill="#91dc47"/><path d="M773.3 850.4c-37.1-4.6-67.7-10.3-94.4-19.7-46.4 23.1-97.6 35-149.4 35-185.7 0-336.3-150.5-336.3-336.3 0-100.8 44.4-191.2 114.7-252.8-18.8-4.5-38.4-7.2-58.4-7.2-98.7.9-202.8 55.5-246.2 203C-.8 493.9.2 510.1.2 529.3c0 292.4 237 529.4 529.4 529.4 179 0 337.2-89 433-225-51.8 12.9-101.6 19.1-144.3 19.2-16.1.1-31.1-.8-45-2.5" fill="#63b132"/><path d="M673.8 747.8c3.3 1.6 10.7 4.3 21 7.2 69.4-50.9 114.4-132.9 114.6-225.7-.3-154.5-125.4-279.5-280-279.8-29.9.1-59.5 4.9-87.9 14.3 56.8 64.8 84.2 157.4 110.6 258.6v.1c.1.1 8.5 28.1 22.9 65.3 14.3 37.2 34.8 83.1 57 116.7 14.8 22.5 30.8 38.6 41.8 43.3" fill="#90b4fe"/><path d="M529.5 0C352.2 0 195.3 87.3 99.2 221.1c50-31.3 101-42.6 145.6-42.2 61.5.2 109.9 19.3 133.1 32.3 5.5 3.2 10.9 6.6 16.1 10.3 42.6-18.8 88.7-28.5 135.3-28.4 185.8 0 336.3 150.6 336.4 336.3 0 93.7-38.3 178.3-100.1 239.3 15.2 1.7 31.3 2.8 47.8 2.7 58.6 0 122-12.9 169.5-52.9 31-26.1 56.9-64.3 71.3-121.6 2.8-22.1 4.4-44.6 4.4-67.5C1058.8 237 821.8 0 529.5 0" fill="#5881d8"/></svg>