<svg viewBox="0 0 512 512" xmlns="http://www.w3.org/2000/svg"><path d="m127.71 34.45c-170.28 98.17-170.28 344.92 0 443.09s384.29-25.2 384.29-221.54-214-319.72-384.29-221.55zm1 233.51 102.6 102.56c26.14 29.14-14 65.83-40.43 40.43l-134.88-134.95a28.45 28.45 0 0 1 0-40.23l134.9-134.94c27.82-25.53 66.34 13 40.41 40.43l-102.58 102.57a17.07 17.07 0 0 0 0 24.17zm190 142.88c-28.09 26.32-65.92-14.68-40.43-40.43l102.6-102.56a17.07 17.07 0 0 0 0-24.13l-102.55-102.57c-26.33-26.32 14.11-66.75 40.43-40.43l134.95 134.95a28.45 28.45 0 0 1 0 40.23z" fill="#fbc02d"/></svg>