<?xml version="1.0" encoding="utf-8"?>
<!-- Generator: Adobe Illustrator 21.1.0, SVG Export Plug-In . SVG Version: 6.00 Build 0)  -->
<svg version="1.1" id="Calque_1" xmlns="http://www.w3.org/2000/svg" xmlns:xlink="http://www.w3.org/1999/xlink" x="0px" y="0px"
	 viewBox="0 0 256 256" enable-background="new 0 0 256 256" xml:space="preserve">
<path fill="#00599C" d="M235.5,190.1c1.7-3,2.8-6.4,2.8-9.4V75.3c0-3-1.1-6.4-2.8-9.4L128,128L235.5,190.1z"/>
<path fill="#004482" d="M137.6,249.9l91.2-52.7c2.6-1.5,5-4.1,6.7-7.1L128,128L20.5,190.1c1.7,3,4.1,5.6,6.7,7.1l91.2,52.7
	C123.7,252.9,132.3,252.9,137.6,249.9z"/>
<path fill="#659AD2" d="M235.5,65.9c-1.7-3-4.1-5.6-6.7-7.1L137.6,6.1c-5.3-3-13.9-3-19.1,0L27.2,58.8c-5.3,3-9.6,10.5-9.6,16.5
	v105.3c0,3,1.1,6.4,2.8,9.4L128,128L235.5,65.9z"/>
<g>
	<path fill="#FFFFFF" d="M128,201.5c-40.6,0-73.5-33-73.5-73.5s33-73.5,73.5-73.5c26.2,0,50.6,14.1,63.7,36.8l-31.8,18.4
		c-6.6-11.3-18.8-18.4-31.9-18.4c-20.3,0-36.8,16.5-36.8,36.8c0,20.3,16.5,36.8,36.8,36.8c13.1,0,25.3-7,31.9-18.4l31.8,18.4
		C178.6,187.5,154.2,201.5,128,201.5z"/>
</g>
<g>
	<polygon fill="#FFFFFF" points="201.5,123.9 193.4,123.9 193.4,115.7 185.2,115.7 185.2,123.9 177,123.9 177,132.1 185.2,132.1 
		185.2,140.3 193.4,140.3 193.4,132.1 201.5,132.1 	"/>
</g>
<g>
	<polygon fill="#FFFFFF" points="232.2,123.9 224,123.9 224,115.7 215.8,115.7 215.8,123.9 207.7,123.9 207.7,132.1 215.8,132.1 
		215.8,140.3 224,140.3 224,132.1 232.2,132.1 	"/>
</g>
</svg>
