<svg viewBox="0 0 28.01 17.95" xmlns="http://www.w3.org/2000/svg"><path d="m12.75 17a10.24 10.24 0 0 1 -4.67.92 7.63 7.63 0 0 1 -5.91-2.35 8.88 8.88 0 0 1 -2.17-6.23 9.48 9.48 0 0 1 2.43-6.75 8.22 8.22 0 0 1 6.29-2.59 11.15 11.15 0 0 1 4 .64v3.77a6.84 6.84 0 0 0 -3.72-1.04 4.81 4.81 0 0 0 -3.7 1.53 5.9 5.9 0 0 0 -1.41 4.16 5.8 5.8 0 0 0 1.33 4 4.57 4.57 0 0 0 3.59 1.49 7.32 7.32 0 0 0 3.94-1.11zm2.37-9.2v-2.34h2.35v2.34h2.34v2.34h-2.34v2.35h-2.35v-2.35h-2.34v-2.34zm8.2 0v-2.34h2.35v2.34h2.34v2.34h-2.34v2.35h-2.35v-2.35h-2.34v-2.34z" fill="#765f89"/></svg>