<svg xmlns="http://www.w3.org/2000/svg" viewBox="0 0 20 14"><path d="M9.5 11l.41 2.44a5 5 0 01-1.24.39 9.1 9.1 0 01-2 .2 6.46 6.46 0 01-5-2A7 7 0 010 7.21a7.3 7.3 0 012-5.32A6.9 6.9 0 016.94 0a9 9 0 011.94.19 4.48 4.48 0 011.2.4L9.5 3.08l-1.06-.34a5.75 5.75 0 00-1.39-.15 3.87 3.87 0 00-2.87 1.1A4.58 4.58 0 003 7a4.57 4.57 0 001.08 3.2 3.92 3.92 0 003 1.18l1.33-.12A5.36 5.36 0 009.5 11m2.39 3l.61-4H11l.34-2h1.5l.32-2h-1.5L12 4h1.5l.61-4h2l-.61 4h1l.61-4h2l-.61 4H20l-.34 2h-1.5l-.32 2h1.5L19 10h-1.5l-.61 4h-2l.61-4h-1l-.61 4h-2m2.95-6h1l.32-2h-1z" fill="#058567" data-name="Calque 2"/></svg>
