<svg xmlns="http://www.w3.org/2000/svg" viewBox="0 0 25.89 13.92"><path d="M16 5.28l-2.38 2a10.84 10.84 0 00-1.52-2.17 3 3 0 00-1.65-.6A4.2 4.2 0 007.26 6s1 3.66 4.39 3.83 6.87-4.5 6.87-4.5S15 .87 10.45 1.38A10.24 10.24 0 002.86 5.5s1.95 6.26 7.59 6.94S20.89 9 22.71 7.36a8.74 8.74 0 001.74 1 4.31 4.31 0 011.44.91s-2 2.08-8.66 3.82a20.44 20.44 0 01-6.78.77c-.77-.14-6.93-.3-10.45-8.66C0 5.21 5.08.36 10.45 0s9.25 3.06 11 5.19c0 0-3.81 4.56-7.74 5.5A6.64 6.64 0 017 9.07a8.68 8.68 0 01-2-3.38 9.14 9.14 0 015.46-2.64A6.15 6.15 0 0116 5.28z" fill="#96ae60" data-name="Calque 2"/></svg>