<svg viewBox="0 0 24 24" xmlns="http://www.w3.org/2000/svg"><linearGradient id="a" gradientTransform="matrix(47.058 0 0 46.985 .495 .559)" gradientUnits="userSpaceOnUse" x1=".994118" x2=".000181" y1=".480156" y2=".452131"><stop offset="0" stop-color="#11998e"/><stop offset=".99130434783" stop-color="#38ef7d"/></linearGradient><path fill="url(#a)" fill-rule="evenodd" d="m11.998 0c-6.632 0-11.998 5.367-11.998 12a11.992 11.992 0 0 0 12 12c6.633 0 12-5.367 12-12-.001-6.633-5.412-12-12.002-12zm-5.628 14.575c.392.523.916.742 1.657.742.35 0 .699-.044 1.004-.175.306-.13.655-.306 1.09-.567l1.223 1.745c-1.003.83-2.138 1.222-3.447 1.222-1.048 0-1.92-.218-2.705-.654a4.393 4.393 0 0 1 -1.746-1.92c-.392-.83-.611-1.79-.611-2.925 0-1.09.219-2.094.61-2.923a4.623 4.623 0 0 1 1.748-2.007c.741-.48 1.657-.698 2.661-.698.699 0 1.353.087 1.877.305a5.64 5.64 0 0 1 1.614.96l-1.222 1.658a4.786 4.786 0 0 0 -1.003-.568c-.305-.13-.698-.174-1.048-.174-1.483 0-2.225 1.134-2.225 3.446-.043 1.18.175 2.008.524 2.532h-.001zm12 2.705c-.436 1.353-1.091 2.357-2.008 3.098-.916.743-2.138 1.135-3.665 1.266l-.305-2.05c1.003-.132 1.745-.35 2.225-.7.174-.13.524-.523.524-.523l-3.622-11.607h3.01l2.095 8.683 2.226-8.683h2.923z"/></svg>
