<svg viewBox="0 0 32 32" xmlns="http://www.w3.org/2000/svg"><path d="M16.549,2.74a14.888,14.888,0,0,0-10.7,3.879A11.874,11.874,0,0,0,2,15.594a13.2,13.2,0,0,0,3.562,9.44q3.932,4.22,10.915,4.226,7.053,0,11.055-4.226a12.926,12.926,0,0,0,1.826-2.388H23.923q-2.111,3.914-7.34,3.947a7.6,7.6,0,0,1-7.011-3.685,13.582,13.582,0,0,1-1.826-7.315q0-9.551,8.73-9.96,4.725.174,6.981,3.347a8.984,8.984,0,0,1,.756,1.251H30a12.38,12.38,0,0,0-2.683-3.613A15.152,15.152,0,0,0,16.549,2.74Z" fill="#646464"/><path id="path1948" d="M16.763,7.579a11.473,11.473,0,0,0-1.92.164c-1.7.3-2.009.929-2.009,2.089v1.531h4.018v.51H11.326a2.509,2.509,0,0,0-2.51,2.037,7.51,7.51,0,0,0,0,4.083c.286,1.189.968,2.037,2.135,2.037h1.381V18.2a2.553,2.553,0,0,1,2.51-2.5h4.013a2.024,2.024,0,0,0,2.009-2.042V9.832a2.243,2.243,0,0,0-2.009-2.089A12.532,12.532,0,0,0,16.763,7.579ZM14.59,8.811a.766.766,0,1,1-.754.768A.762.762,0,0,1,14.59,8.811Z" fill="#5a9fd4"/><path id="path1950" d="M21.366,11.874v1.784a2.577,2.577,0,0,1-2.51,2.547H14.843a2.05,2.05,0,0,0-2.009,2.042v3.826c0,1.089.947,1.729,2.009,2.042a6.722,6.722,0,0,0,4.013,0c1.012-.293,2.009-.882,2.009-2.042V20.541H16.852v-.51h6.022c1.168,0,1.6-.814,2.009-2.037a6.9,6.9,0,0,0,0-4.083c-.289-1.162-.84-2.037-2.009-2.037Zm-2.257,9.689a.766.766,0,1,1-.754.763A.758.758,0,0,1,19.109,21.562Z" fill="#ffd43b"/></svg>