<svg viewBox="0 0 19.93 21.18" xmlns="http://www.w3.org/2000/svg"><g fill="#fbc02d"><path d="m2.53 13.26a21.16 21.16 0 0 0 7.47 1.19 21.16 21.16 0 0 0 7.44-1.19c1.86-.73 2.52-1.53 2.52-2v-3.56a10.36 10.36 0 0 1 -2.08 1.08 22.29 22.29 0 0 1 -7.88 1.3 22.36 22.36 0 0 1 -7.88-1.3 10.28 10.28 0 0 1 -2.12-1.08v3.55c0 .47.66 1.28 2.53 2.01z"/><path d="m10 21.18c5.5 0 10-1.74 10-3.89v-2.84a10.5 10.5 0 0 1 -1.53.76l-.16.06a23.49 23.49 0 0 1 -8.31 1.36 23.42 23.42 0 0 1 -8.27-1.35l-.16-.06a10.5 10.5 0 0 1 -1.57-.77v2.84c0 2.15 4.46 3.89 10 3.89z"/><ellipse cx="9.96" cy="3.89" rx="9.96" ry="3.89"/></g></svg>