<svg clip-rule="evenodd" fill-rule="evenodd" stroke-linejoin="round" stroke-miterlimit="2" viewBox="0 0 200 200" xmlns="http://www.w3.org/2000/svg"><path d="m100 10c49.672 0 90 40.328 90 90s-40.328 90-90 90-90-40.328-90-90 40.328-90 90-90zm-17.275 130.794c5.143-1.378 10.436 1.678 11.814 6.821 1.378 5.142-1.678 10.436-6.821 11.814-5.142 1.378-10.436-1.678-11.814-6.821-1.378-5.142 1.678-10.436 6.821-11.814zm51.93-101.248a3.465 3.465 0 0 1 -1.793 6.693l-3.228-.864c-.587 4.746-3.673 30.841-2.389 45.669-13.697 11.83-37.37 47.413-37.37 47.413l12.44-46.426c2.429-.155 5.097-1.699 5.761-4.179a5.835 5.835 0 0 0 -4.124-7.143 5.835 5.835 0 0 0 -7.143 4.124c-.664 2.48.874 5.151 2.9 6.499l-12.44 46.427s-3.294-40.774-8.657-59.747c8.716-11.292 18.966-36.244 20.779-40.741l-3.241-.868a3.465 3.465 0 0 1 1.794-6.693z" fill="#484848"/></svg>