<svg viewBox="0 0 460 322.05" xmlns="http://www.w3.org/2000/svg"><g fill="#42a5f5"><path d="m204 52.25h47.51v43.19h-47.51zm0 51.89h47.51v42.69h-47.51zm-56.13-51.89h47.51v43.19h-47.51zm112.33 51.82h47.51v42.69h-47.51zm-56.2-104.07h47.51v43.63h-47.51zm-112.26 52.25h47.5v43.19h-47.5zm56.13 51.82h47.51v42.69h-47.51z"/><path d="m450.44 124.12c-10.35-7-34.21-9.49-52.54-6-2.37-17.25-12-32.27-29.54-45.78l-10.06-6.72-6.68 10.06c-13.23 20-16.82 52.9-2.66 74.6-6.25 3.38-18.55 8-34.79 7.69h-312.41c-6.25 36.51 4.17 83.95 31.62 116.5 26.62 31.53 66.62 47.58 118.87 47.58 113.12 0 196.85-52.1 236-146.76 15.38.29 48.58.07 65.62-32.48 1.08-1.8 4.74-9.49 6.11-12.29z"/><path d="m83.19 104.07h-47.51v42.69h47.51zm8.55 0h47.5v42.69h-47.5z"/></g></svg>