<svg xmlns="http://www.w3.org/2000/svg" viewBox="0 0 28 15.75"><g data-name="Calque 2"><path d="M0 9.54V6.2L11.86 0v3.07L3.1 7.81l8.76 4.84v3.1zM27.81.66L17.47 15.1h-3.56L24.28.66zm-2.86 12.71a.79.79 0 00.62-.28 1.06 1.06 0 00.25-.73 1.14 1.14 0 00-.25-.75.77.77 0 00-1.22 0 1.14 1.14 0 00-.25.75 1.09 1.09 0 00.24.73.76.76 0 00.61.28zm2.19 1a3.24 3.24 0 01-4.35 0 2.86 2.86 0 01-.05-4l.05-.05a3.22 3.22 0 014.35 0 2.77 2.77 0 01.86 2.04 2.74 2.74 0 01-.87 2.05zM16.82 4.93a.79.79 0 00.62-.28 1.06 1.06 0 00.25-.73 1.14 1.14 0 00-.25-.75.77.77 0 00-1.22 0 1.14 1.14 0 00-.25.75 1.09 1.09 0 00.24.73.76.76 0 00.61.28zM19 6a3.24 3.24 0 01-4.35 0 2.86 2.86 0 01-.05-4l.05-.05a3.22 3.22 0 014.35 0 2.77 2.77 0 01.87 2.06A2.74 2.74 0 0119 6z" fill="#96ae60" data-name="Calque 1"/></g></svg>