<svg viewBox="0 0 146.45 219.67" xmlns="http://www.w3.org/2000/svg"><path d="M36.61 219.67a36.62 36.62 0 0036.61-36.61v-36.61H36.61a36.61 36.61 0 000 73.22z" fill="#0acf83"/><path d="M0 109.84a36.63 36.63 0 0136.61-36.62h36.61v73.23H36.61A36.62 36.62 0 010 109.84z" fill="#a259ff"/><path d="M0 36.61A36.62 36.62 0 0136.61 0h36.61v73.22H36.61A36.62 36.62 0 010 36.61z" fill="#f24e1e"/><path d="M73.22 0h36.62a36.61 36.61 0 010 73.22H73.22z" fill="#ff7262"/><path d="M146.45 109.84a36.62 36.62 0 11-36.61-36.62 36.62 36.62 0 0136.61 36.62z" fill="#1abcfe"/></svg>