<svg width="16" height="16" viewBox="0 0 16 16" fill="none" xmlns="http://www.w3.org/2000/svg">
<g id="Icon/Solid/menu-alt-2">
<g id="Icon">
<path fillRule="evenodd" clipRule="evenodd" d="M2.3999 3.99995C2.3999 3.55812 2.75807 3.19995 3.1999 3.19995H12.7999C13.2417 3.19995 13.5999 3.55812 13.5999 3.99995C13.5999 4.44178 13.2417 4.79995 12.7999 4.79995H3.1999C2.75807 4.79995 2.3999 4.44178 2.3999 3.99995Z" fill="#B4BBCA"/>
<path fillRule="evenodd" clipRule="evenodd" d="M2.3999 7.99995C2.3999 7.55812 2.75807 7.19995 3.1999 7.19995H12.7999C13.2417 7.19995 13.5999 7.55812 13.5999 7.99995C13.5999 8.44178 13.2417 8.79995 12.7999 8.79995H3.1999C2.75807 8.79995 2.3999 8.44178 2.3999 7.99995Z" fill="#B4BBCA"/>
<path fillRule="evenodd" clipRule="evenodd" d="M2.3999 12C2.3999 11.5581 2.75807 11.2 3.1999 11.2H7.9999C8.44173 11.2 8.7999 11.5581 8.7999 12C8.7999 12.4418 8.44173 12.8 7.9999 12.8H3.1999C2.75807 12.8 2.3999 12.4418 2.3999 12Z" fill="#B4BBCA"/>
</g>
</g>
</svg>
