<svg viewBox="0 0 192 192" xmlns="http://www.w3.org/2000/svg"><defs><clipPath id="a"><path d="M143.41 47.34a4 4 0 0 0-6.77-2.16L115.88 66 99.54 34.89a4 4 0 0 0-7.08 0l-8.93 17-22.4-41.77a4 4 0 0 0-7.48 1.28L32 150l57.9 32.46a12 12 0 0 0 11.7 0L160 150z"/></clipPath></defs><g clip-path="url(#a)"><path d="M32 150 53.66 11.39a4 4 0 0 1 7.48-1.27l22.4 41.78 8.93-17a4 4 0 0 1 7.08 0L160 150z" fill="#ffa000"/><path d="m106.83 96.01-23.3-44.12L32 150l74.83-53.99z" fill="#f57c00"/><path d="M160 150 143.41 47.34a4 4 0 0 0-6.77-2.16L32 150l57.9 32.47a12 12 0 0 0 11.7 0z" fill="#ffca28"/><path d="M101.6 181.49a12 12 0 0 1-11.7 0l-57.76-32.4-.14.91 57.9 32.46a12 12 0 0 0 11.7 0L160 150l-.15-.92z" fill="#a52714" opacity=".2" style="isolation:isolate"/></g></svg>