<svg viewBox="0 0 256 236" xmlns="http://www.w3.org/2000/svg"><path d="m128.075 236.075 47.104-144.97h-94.209l47.104 144.97z" fill="#e24329"/><path d="m128.075 236.074-47.105-144.97h-66.014z" fill="#fc6d26"/><path d="m14.956 91.104-14.314 44.056a9.752 9.752 0 0 0 3.542 10.903l123.891 90.012-113.12-144.97z" fill="#fca326"/><path d="m14.956 91.105h66.014l-28.369-87.315c-1.46-4.493-7.816-4.492-9.275 0z" fill="#e24329"/><path d="m128.075 236.074 47.104-144.97h66.015l-113.12 144.97z" fill="#fc6d26"/><path d="m241.194 91.104 14.314 44.056a9.752 9.752 0 0 1 -3.543 10.903l-123.89 90.012 113.119-144.97z" fill="#fca326"/><path d="m241.194 91.105h-66.015l28.37-87.315c1.46-4.493 7.816-4.492 9.275 0z" fill="#e24329"/></svg>