<svg xmlns="http://www.w3.org/2000/svg" viewBox="0 0 512 512">
  <path d="M508 90c-4-16-9-27-19-39-8-10-19-21-30-27a115 115 0 00-89-9c-6 2-13 7-17 9-5 3-12 9-18 8-3 0-7-1-9-3 1 7 2 10 7 16 8 8 27 5 38 5 9-1 16-4 26-4a66 66 0 0149 31l8 18 3 21-2 17c-2 10-12 28-27 24-12-4-22-17-29-27-10-14-22-32-37-45-8-7-22-13-33-14-20-2-28 1-44 13l-13 10c-9-5-17-14-29-19s-15-5-30-5-29 3-43 15c-13 11-54 62-62 67s-10 8-19 7c-9 0-26-14-27-33-1-18 0-26 13-49 12-22 39-29 55-32s27 5 44 4c18 0 37-2 37-24-4 2-8 4-15 4-6 0-17-8-28-15-11-6-25-7-45-8-20 0-41 3-63 14a97 97 0 00-47 46C0 90-1 108 1 136s8 46 26 69c18 22 34 30 63 35 0 11 2 14-7 23-8 9 3 15-13 24-7 4-9 10-10 17-1 8 5 11 10 7 6-4 12-3 16-2 3 1 9 0 11-4 3-6 8-7 11-7-1 27-3 50 8 78 10 28 28 50 63 76-27-27-47-46-57-79-10-32-7-49-6-79 12-2 19-4 30-12l4 20v19c2 5 5 0 7 5s2 18 3 22 2 2 4 2c2 1 6 0 9 3 2 2 0 8 3 10s8 0 10 2 1 3-1 4l-4 4 1 10c1 3 2 6 5 8s9 1 11 3c3 2 0 6 2 8s7 0 9 1 5 2 4 5c0 3-5 7-7 10-2 2-2 4-2 6l6 8c5 6 13 11 19 15 3 2 5 4 5 6 0 3-1 4-3 6l-9 5c-2 2-2 5-2 8l5 7 7 6-6-9c-1-2-1-5 1-7 1-2 5-1 7-3 2-1 5-2 6-4 2-2 4-5 3-9l-8-17 9 8c2 3 3 7 6 10l8 9-4 6c-3 4-7 10-5 15 1 7 5 9 11 14l-6-11c-1-3 1-5 2-7l6-4c0 3-2 5-1 8l8 9 9 9c3 2 6 4 9 4l10 1-9-5-4-7 8 5 10 4 18 2c-5-2-9-3-12-6s-3-6-4-8c7 3 12 8 18 10a40 40 0 0029-4c-5 1-12 2-18 0l11-7c7-6 12-13 14-17-5 5-12 8-19 10 3-3 7-6 7-10-4 2-9 2-12 1-5-2-13-11-14-16-1-4 2-4 4-7 3-2 9-4 11-7l5-8v-10l-5-10v-7l6-9 11-2 14-1c4-2 6-8 6-11 2-8 1-13 0-20 7-3 12-4 17-10 2-3 2-6 2-8 0-3-1-4-3-6l-8-6-3-6 17-14c4-4 6-6 7-10 2-4 2-9 2-14s-1-12-3-16c-1-4-3-4-5-6l-6-3c-2-1-4 1-7 1-3 1-7 2-10 1s-4-3-5-4l-2-7v-9l-4-9 7 3c8 5 16 13 26 14 7 1 11 5 17 7h20c6 0 9 0 13-2 7-4 8-12 6-14-3-2-4-2-6-1-4 1-7-3-8-7l-1-9c16-3 30-8 42-20s27-36 31-52c6-19 5-50 0-70z" fill="#fff" stroke="#000"/>
  <path d="M265 219c2-2 3-5 2-11l-1-9-2-2-1-2-1-3c0-5-1-9-4-14h-1l-3-3c-4-1-14 1-18 2-6 2-10 5-15 9l-5 3 4-2 6-2 12-5h15c3 2 3 7 3 11v3h-1l-5 1h-4l-5-1-4 1-4 1a79 79 0 01-5 1c-3 0-5 0-10 4-3 2-1 7 0 10 2 5 9 10 14 12s13 4 19 4c7 0 12-3 14-8zm-13 2l-12-1-9-3-9-9c5-4 5-4 11-4h1a26 26 0 010 1v6c3 5 6 7 12 6 5 0 9-4 9-9 0-4-1-6-3-8h9l2 6c1 4 0 9-3 11l-8 4zm-29-56c2-7 2-12 2-19-2 3-4 6-8 8l-7 2c-1 1 0 2-2 3h-10l-6 6-3 6c-1 2 0 4-2 5-3 0-3 1-5 3l-2 7c-2 3-9 7-12 9l14-7 7-7c2-1 4-1 5-3l1-5c4-7 6-10 11-9v4l-1 10c0 3-2 4-4 6l8-3c8-5 11-9 14-16zm42-1l2 3h6l7 16 3 9 10 17-4-11-3-13c-2-3-3-2-4-5-5-7-8-16-10-24-2 1-2 3-5 3s-7-3-10-4c1 3 1 6 3 7 1 2 4 1 5 2zm243-74a110 110 0 00-49-66 115 115 0 00-89-10l-17 10c-5 3-12 8-18 8-3 0-7-2-9-4 1 7 2 11 7 16 8 8 27 6 38 5 9 0 16-4 26-3 8 0 20 5 25 7 9 5 18 14 24 23l8 19c2 6 3 14 3 20l-2 17c-2 10-12 29-27 24-12-4-22-16-29-27-10-13-22-31-37-44-8-7-22-14-33-15-20-2-28 2-44 13l-13 11c-9-6-17-15-29-20-11-4-15-5-30-5s-29 4-43 15c-13 12-54 62-62 67s-10 8-19 8-26-14-27-33 0-27 13-49c12-22 39-30 55-32 16-3 27 4 44 4 18-1 37-3 37-24-4 2-8 4-15 4-6 0-17-9-28-15s-25-8-45-8c-20-1-41 2-63 14a97 97 0 00-47 46C0 89-1 107 1 135s8 47 26 69c18 23 34 31 63 35 0 12 2 15-7 23-8 9 3 15-13 24-7 4-9 11-10 18s5 10 10 6c6-4 12-3 16-1 3 1 9 0 11-5 3-5 8-7 11-7-1 27-3 50 8 78 10 28 28 50 63 77-27-28-47-47-57-79-10-33-7-50-6-79 12-2 19-5 30-12l4 19v20c2 4 5 0 7 5 2 4 2 17 3 21 1 5 2 2 4 3s6 0 9 2c2 2 0 8 3 10 3 3 8 1 10 3s1 3-1 4l-4 4c-1 2 0 6 1 9 1 4 2 6 5 9 3 2 9 1 11 3 3 2 0 6 2 8l9 1c2 1 5 2 4 5 0 3-5 6-7 9s-2 5-2 7l6 8c5 6 13 10 19 15 3 1 5 3 5 6 0 2-1 3-3 5s-7 3-9 6c-2 2-2 4-2 7l5 7 7 6-6-9c-1-2-1-5 1-7 1-2 5-1 7-2 2-2 5-2 6-4 2-3 4-5 3-10l-8-16 9 7c2 3 3 8 6 11l8 8-4 6c-3 5-7 10-5 16 1 6 5 8 11 13l-6-10c-1-4 1-5 2-7l6-4c0 2-2 4-1 7s5 7 8 10l9 8c3 3 6 4 9 5h10c-3-1-7-2-9-4l-4-8 8 6c3 2 6 2 10 3l18 3c-5-3-9-4-12-7-3-2-3-5-4-8 7 4 12 9 18 10a40 40 0 0029-3h-18l11-7c7-6 12-13 14-18-5 5-12 9-19 11 3-3 7-6 7-11-4 2-9 3-12 1-5-2-13-10-14-16-1-3 2-4 4-6l11-7c3-3 4-6 5-9v-10l-5-10v-6l6-9 11-2c4-1 11 0 14-2 4-1 6-8 6-11 2-7 1-12 0-19 7-3 12-4 17-11 2-2 2-5 2-8l-3-6-8-6-3-5 17-14c4-4 6-6 7-10 2-4 2-9 2-14s-1-13-3-17c-1-3-3-4-5-5l-6-4-7 2-10 1c-3-1-4-3-5-5l-2-6v-9l-4-10 7 3c8 6 16 13 26 14 7 1 11 6 17 7l20 1 13-2c7-4 8-12 6-14-3-3-4-2-6-2-4 2-7-3-8-6l-1-9c16-3 30-9 42-21 12-11 27-35 31-51 6-20 5-50 0-70zM329 74c11 1 22 6 31 14 12 10 22 24 31 37-10-9-27-21-43-30-12-7-22-10-34-8l-17 6-2-1-10-3c16-13 22-17 44-15zM173 87c15-12 27-13 40-14 13 0 18 1 30 6 11 5 16 11 24 18l4 5s13-1 24 24c1 4 3 3 6 5l2 4v-4c-2-2-5-3-5-6 0-6 2-9-1-16-3-8-9-11-16-14l9 2c9 4 23 12 27 21 3 7 1 11-4 17-3 3-11 7-13 11l1 8c2 2 6 3 7 5 2 5-3 10-7 9 3-1 4-5 3-8s-5-6-8-7c-6-4-12-3-20-9-5-4-6-7-7-12l-2-17 2-9-3 4c-12-10-18-20-34-23-18-3-30 0-46 9-21 12-31 28-47 46-11 12-18 11-30 14l2-1c9-6 47-55 62-68zM31 201c-16-20-24-39-26-66A107 107 0 0164 23c21-11 42-13 59-12 17 0 30 1 42 6 11 6 22 15 29 16 8 0 11-1 13-3-1 4-3 6-6 8-8 2-11 0-24-4-13-5-30-13-41-15-16-3-30 1-30 1l-20 6s-29 9-42 24c-13 16-28 45-28 77 1 32 15 54 15 54s12 20 27 33 33 20 33 20c-29-4-44-14-60-33zm340 74c4 2 7 0 10 0 2-1 4-3 7-2s6 2 8 6c2 3 2 10 2 14 0 5-1 9-3 13l-8 10-10 7c-4 2-9 6-14 7l-14 5c6 0 14 0 23-2 1 2 2 5 5 7l7 5c2 2 2 5 1 7-2 4-12 6-15 6-12 0-22-1-31 1-13 3-26 7-39 6l-15-3c-11-5-19-20-25-30 1-10 2-16 9-24-9 6-8 10-11 20-3-4-9-16-13-18-3-2-7-1-11-1 3 1 7 1 9 3l7 9 11 24c3 3 10 15 18 20s20 7 28 6c10 0 21-4 31-5 9-1 19 0 28 2 2 6 3 12 1 19-1 3-1 5-4 6s-9-1-14-1c-11 0-21 1-31 3-12 2-30 4-34 8l11 2c3 1 5 5 10 5s9-5 13-5c4-1 7 1 11 1 0 4-2 8 0 11l6 10v8c-1 3-3 4-5 6l-7 6c0-4 1-6-1-7-1 4-5 9-11 11 2-3 5-9 4-14 0-5 0-6-2-10l-1 12c-2 3-3 6-8 9-4 4-14 7-18 11-4 3-5 6-5 11 0 4 3 8 5 12-3-3-7-4-9-7s-3-6-3-10v-11l-8-4c-3-2-8-5-11-9-2-4-3-8-2-12 0-4 3-6 5-9-3 1-6 3-10 3-7-1-5-6-5-10v-9l-7 7c-3 2-8 3-10 8-2 4 1 9 1 15l-8-6c-6-6-2-9-1-12l3-9c0-3 0-5-2-8s-5-7-9-9c-3-2-8-1-12-2-3-2-7-3-8-6-2-3-2-5-1-8 2-3 5-4 5-7 1-3 0-7-2-8-3-2-7 0-10-2-3-1-1-6-2-8l-5-5c-2-1-7 1-9-3s0-13-2-18c-1-5-5-2-7-6-2-5 2-13 0-20s-3-14-2-21c14-12 17-14 27-30l4 12c2 5 9 13 12 17l-5-10c-9-18-5-32-3-45l1-7 2-17h-7c-1 41-38 77-38 78-9 6-17 9-23 11-8 3-21 3-27 9-12 12-12 6-17 6s-11 3-15 6c-1-10 2-9 7-14 4-5 7-3 9-7 3-4 2-17 9-22 6-5 4-12 4-22 9-35 25-65 37-75 8-6 21-14 31-18 6-2 15-1 18-2 13-4 27-9 38-6 6 1 8 2 19-1 5 0 10-4 15-6s8-2 12-2c2 9 2 11 9 17 8 5 14 5 21 8 3 2 6 4 6 6 0 4-3 5-8 6 4 4 10 4 15 1 4-2 5-10 2-12l-5-5c-3-3 0-6 3-9l7-6h22l2 7c1 6 1 10 4 14 4 4 7 4 11 12v15c-1 4-3 6-5 9l-8-1-16 5v-8c1-3 3-2 4-4l2-7 6-1c4 0 5 1 8 4-1-3-3-5-6-6h-7c1-3 1-5 4-7l4-4c0-3-1-5-3-6l-7 1c-6 2-8 7-10 12-2 7-2 14-1 21l2 11c9 12 18 24 25 36l12 23c4 6 9 10 13 12zm-39-64l-5-8c3-2 4-1 8-1-2 3-3 4-3 9zm11 16l6-1 4-3 4 16 4 10v10l-9-17-9-15zm102 25c0 6-6 8-11 9l-20-1-15-6c-6-1-9-3-14-5-6-2-11-7-15-9l-10-6-5-13 6-6-7 2c-3 0-5 2-7 3l-8 2-2-5 6 1c4-1 7-3 7-8v-6l4 1 3 4 3 1c0-2 1-6-1-9l-4-5-3-1 6-8c1-3 0-15-1-19-2-5-7-9-10-13-2-2-3-6-3-9s4-4 6-5c6 2 12 2 18 5 11 5 17 12 24 21l10 15c3 6 3 14 7 20 3 7 8 15 12 19l8 10c3 4 2 11 3 14 3 7 9 8 13 7zm59-95c-4 16-18 39-30 51a64 64 0 01-41 19c-5-8 3-11 3-11l15-6c7-3 16-9 23-17 7-9 12-21 15-30 6-22 5-40 3-57l-6-24-9-23s-6-12-20-19c-25-14-38-17-38-17s-10-3-27-1c-21 2-49 18-55 21l-6-8c3 2 6 2 10 0 11-4 20-13 31-17 7-3 14-5 25-5 19 0 41 3 58 13 12 7 21 17 30 27 10 14 15 22 19 38 5 18 4 49 0 66zM332 277l-12-7-12-9c-7-3-18-3-22-2-5 0-10 2-13 4-6 4-9 10-9 17l3 11c1 3 4 6 7 8l-2-6v-4l4 2 1-4c1-4-1-7 3-9s6-2 10-1l4 3c-1-4-4-7-8-8-4 0-8 0-11 3l-5 5c-1-5 1-8 5-12s12-5 18-5c4 0 10 1 14 3l10 7 10 6 11 7 9 6c3 1 5 0 8-1-3-1-6 0-8-2-5-3-8-8-15-12zm-20 15l-5-4c-2-2-6-2-9-3-3 0-10 0-11 4-2 4-1 8 2 10s6 4 10 2c2-1 2-3 2-5l-1-3 4 1c7 3 12 9 15 15l4 12-2-13c-1-7-4-12-9-16zm-91 5c-2 2-1 5-1 8l4-2 1-3 11-3c-5-1-12-2-15 0zm50-66c2-3 2-6 2-9v-5l1-8-3 8-1 4-2 7-5 4-3 1-4 4 5-2 3-1c3 0 5 0 7-3z"/>
</svg>