<svg xmlns="http://www.w3.org/2000/svg" viewBox="0 0 150.87 76.73"><path fill="#2b99c9" d="M150.49,29.13c-1.3-9.6-6.2-16.9-14.1-22.3-8.7-5.9-18.3-6.9-28.5-5.1-11.9,2.1-20.7,7.1-28,16.7a42.6,42.6,0,0,0-6.91,13H40.79a2.7,2.7,0,0,0-2.5,1.6c-1.4,2.6-3.8,7.8-5.1,10.9-.7,1.7-.2,3,1.9,3h19.3c-1,1.4-1.8,2.6-2.7,3.7-4.5,5.1-10.2,7.5-17,6.6a15.67,15.67,0,0,1-13.5-15.7,21.26,21.26,0,0,1,10.2-19c5.7-3.7,11.8-4.6,18.1-1.5a13.66,13.66,0,0,1,4.7,3.8c1.3,1.5,1.4,1.4,2.9,1,6.2-1.6,10.5-2.8,16.8-4.4,1.2-.3,1.6-.8,1-1.7a31.46,31.46,0,0,0-11.6-14.1C55.19.13,46.19-1,36.79.73A44.4,44.4,0,0,0,8.79,18c-6.6,8.6-9.8,18.4-8.5,29.3A31.37,31.37,0,0,0,13,69.53c8,6,17.1,7.9,26.9,6.6,11.9-1.6,21.3-7.5,28.5-17a41.86,41.86,0,0,0,4.2-6.78,31.34,31.34,0,0,0,10,15.58c7,6,15.3,8.6,24.4,8.8,2.6-.3,5.3-.4,8-.9A45.79,45.79,0,0,0,139,63C148.29,53.63,152.19,42.63,150.49,29.13Zm-32.4,26.3a18.3,18.3,0,0,1-16.3.6,16.45,16.45,0,0,1-9.2-18.9c2.2-9.4,8.2-15.3,17.5-17.4,9.5-2.2,18.6,3.4,20.4,13.3a30.65,30.65,0,0,1,.3,3.3C130.29,44.93,126,51.33,118.09,55.43Z"/></svg>
