<svg viewBox="0 0 256 257" xmlns="http://www.w3.org/2000/svg"><path d="m105.61 45.74h72.158l36.4 63.049h41.569c-9.463-61.447-62.565-108.498-126.66-108.498-16.21 0-31.702 3.039-45.978 8.53l22.51 36.92" fill="#006533"/><path d="m216.098 146.763-38.33 66.39h-96.656l-48.327-83.706 38.61-66.875-21.332-34.988c-29.91 23.463-49.15 59.908-49.15 100.87 0 70.783 57.381 128.164 128.164 128.164 64.564 0 117.953-47.749 126.84-109.855h-39.82" fill="#82b816"/><path d="m174.51 128.115c0 25.28-20.493 45.773-45.773 45.773s-45.772-20.493-45.772-45.773 20.493-45.773 45.772-45.773c25.28 0 45.773 20.493 45.773 45.773" fill="#006532"/></svg>