<svg enable-background="new 0 0 224.6 512" viewBox="0 0 224.6 512" xmlns="http://www.w3.org/2000/svg"><path d="m175.6 183.7c-18.3 13.4-116 12.7-126.6-.7 2.7-4.4 44.2-3.1 42.2-8.5-2.8-9.8-3-20.2-10.5-28.1l-26-28.8 7.3-5.9s13.6 13.8 18 17.9c11.6 10.9 20.4 23.2 22.5 39.4.7 7 4.2 7.7 9.8 8.5 30.4 2.1 60.1 1.5 63.3 6.2zm-104.1 147.7c-5.6-1.4-7.7-4.9-7.7-10.6l-14.8-131.4c45.6 12.4 91.4 10.7 126.6 0l-12.7 130.7c-.7 7-4.9 10.5-11.3 12-34.2 5.6-53.5 6.3-80.1-.7zm79.5 17.6c-1.4 11.3-2.1 23.2-2.8 35.2-.7 4.2-2.1 6.3-5.6 7.7l-25.3 8.4h-13.8s-16.4-7-22.7-9.8c-1.4-.7-2.8-2.8-3.5-4.9-3-25.3 1-41.3-7.7-50.6v-1.4c29.5 7.1 59.1 7.1 89.3-1.4-7 10.2-7.6 14-7.9 16.8z" fill="#e64a19"/></svg>