<svg viewBox="0 0 487.37 504.36" xmlns="http://www.w3.org/2000/svg"><path d="m456.65 309.77c3.07 3.07 4.1 8.7 0 11.78-9.22 6.14-21.5 5.63-33.28 4.1-19.46-2.56-42-3.07-51.71-21l-1-1c-12.29-7.17 8.7-11.78 14.85-12.29 13.31-1.54 28.16 1.54 41 4.61 11.26 2 21.5 5.12 30.21 13.82zm18.43-111.62c-5.63-34.82-9.22-71.17-21-105.47-5.62-13.83-7.67-29.68-24.08-31.75-21.5-4.1-14.85 14.85-11.78 31.74 4.1 26.11 6.14 53.25 13.31 78.85 4.61 17.92 13.31 39.42-10.75 25.6-40.45-23.55-54.27-77.31-69.63-116.74-7.15-17.91-28.15-60.38-42.98-71.16-7.17-5.63-41-12.29-47.1-7.68-13.82 9.22 29.7 76.8 35.84 89.09 13.31 27.14 27.14 53.25 44 77.31 12.29 16.9 31.74 32.77 4.1 43.52-28.16 10.75-42-5.63-61.44-19.46-15.36-11.78-34.82-13.31-54.27-15.36-52.74-6.14-102.91 0-144.9 34.82-20 16.9-33.28 40.45-44 64.51-3.07 6.14-20 58.88-17.92 58.88-10.75-1.54-4.1-27.14-17.92-12.29-12.29 12.8 3.58 50.18 9.22 62.46 12.29 28.67 24.58 56.83 34.82 87 9.22 30.21 11.78 29.7 39.42 31.74 34.82 3.07 69.63-7.68 103.94-11.78 0 0-61.44-37.89 59.9 4.1 27.14 9.22 54.78 7.17 84 7.68 20-4.61 21-39.42 31.23-54.78 4.1-6.14 23-36.35 29.7-38.91 8.7-3.07 21 5.63 29.7 7.17 50.18 7.68 66-33.28 58.37-73.73-7.17-35.84-3.07-75.26 2.56-102.4 0-11.26-10.75-33.79-12.29-43z" fill="#e64a19"/></svg>