<svg viewBox="0 0 256 346" xmlns="http://www.w3.org/2000/svg"><g fill="#ff3632"><path d="m82.554 267.473s-13.198 7.675 9.393 10.272c27.369 3.122 41.356 2.675 71.517-3.034 0 0 7.93 4.972 19.003 9.279-67.611 28.977-153.019-1.679-99.913-16.517m-8.262-37.814s-14.803 10.958 7.805 13.296c29.236 3.016 52.324 3.263 92.276-4.43 0 0 5.526 5.602 14.215 8.666-81.747 23.904-172.798 1.885-114.296-17.532m69.65-64.144c16.66 19.18-4.377 36.44-4.377 36.44s42.301-21.837 22.874-49.183c-18.144-25.5-32.059-38.172 43.268-81.858 0 0-118.238 29.53-61.765 94.6"/><path d="m233.364 295.442s9.767 8.047-10.757 14.273c-39.026 11.823-162.432 15.393-196.714.471-12.323-5.36 10.787-12.8 18.056-14.362 7.581-1.644 11.914-1.337 11.914-1.337-13.705-9.655-88.583 18.957-38.034 27.15 137.853 22.356 251.292-10.066 215.535-26.195m-144.464-104.962s-62.771 14.91-22.228 20.323c17.118 2.292 51.243 1.774 83.03-.89 25.978-2.19 52.063-6.85 52.063-6.85s-9.16 3.923-15.787 8.448c-63.744 16.765-186.886 8.966-151.435-8.183 29.981-14.492 54.358-12.848 54.358-12.848m112.605 62.942c64.8-33.672 34.839-66.03 13.927-61.67-5.126 1.066-7.411 1.99-7.411 1.99s1.903-2.98 5.537-4.27c41.37-14.545 73.187 42.897-13.355 65.647 0 .001 1.003-.895 1.302-1.697m-39.067-253.051s35.887 35.9-34.037 91.101c-56.071 44.282-12.786 69.53-.023 98.377-32.73-29.53-56.75-55.526-40.635-79.72 23.651-35.517 89.174-52.736 74.695-109.759"/><path d="m95.268 344.665c62.199 3.982 157.712-2.209 159.974-31.64 0 0-4.348 11.158-51.404 20.018-53.088 9.99-118.564 8.824-157.399 2.421.001 0 7.95 6.58 48.83 9.201"/></g></svg>