<svg enable-background="new 0 0 482.2 367.2" viewBox="0 0 482.2 367.2" xmlns="http://www.w3.org/2000/svg"><path d="m130.9 39.7h64.9v181.9c0 82-39.2 110.6-102 110.6-15.3 0-35-2.6-47.8-6.9l7.3-52.5c10.8 3.4 22 5.2 33.3 5.1 27.3 0 44.4-12.4 44.4-56.8 0 .1-.1-181.4-.1-181.4zm121.3 221.2c17.1 9 44.4 17.9 72.1 17.9 29.9 0 45.7-12.4 45.7-31.5 0-17.5-13.6-28.2-48.2-40.1-47.8-17.1-79.4-43.5-79.4-85.8 0-49.2 41.4-86.3 108.9-86.3 32.9 0 56.4 6.4 73.4 14.5l-14.5 52.1c-18.6-9.1-39.1-13.8-59.8-13.6-28.2 0-41.8 13.2-41.8 27.8 0 18.3 15.8 26.5 53.4 41 50.8 18.8 74.3 45.2 74.3 86.3 0 48.2-36.8 89.3-115.8 89.3-32.9 0-65.4-9-81.6-17.9z" fill="#f4bf75"/></svg>