<svg xmlns="http://www.w3.org/2000/svg" viewBox="0 0 256 256"><path fill="#FBC234" d="M32.5,64.8v39.1c0,4.6-1.7,8.2-5,10.8c-3.3,2.5-8,3.8-14.1,3.8V137c6.1,0,10.8,1.3,14.1,3.8s5,6.1,5,10.8,v39.2c0,11.6,3.8,20.6,11.4,26.9c7.6,6.3,18.3,9.5,32.1,9.5v-18.5c-6.6,0-11.7-1.4-15.3-4.2c-3.6-2.8-5.4-6.7-5.4-11.7v-40.1,c0-10.6-3.5-18.9-10.4-24.8c6.9-5.7,10.4-13.7,10.4-23.9V62.6c0-5,1.8-8.9,5.4-11.7c3.6-2.7,8.7-4.1,15.3-4.1V28.3,c-13.8,0-24.6,3.2-32.1,9.6C36.3,44.2,32.5,53.2,32.5,64.8z"/><path fill="#FBC234" d="M228.5,114.7c-3.3-2.5-5-6.1-5-10.8V64.8c0-11.6-3.8-20.6-11.4-26.9c-7.6-6.4-18.3-9.6-32.1-9.6v18.5,c6.6,0,11.7,1.4,15.3,4.1c3.6,2.7,5.4,6.6,5.4,11.7V104c0,10.2,3.5,18.2,10.4,23.9c-6.9,5.9-10.4,14.2-10.4,24.8v40.1,c0,5-1.8,8.9-5.4,11.7c-3.6,2.8-8.7,4.2-15.3,4.2v18.5c13.8,0,24.5-3.2,32.1-9.5s11.4-15.3,11.4-26.9v-39.2c0-4.6,1.7-8.2,5-10.8,c3.3-2.5,8-3.8,14.1-3.8v-18.5C236.5,118.5,231.8,117.2,228.5,114.7z"/><path fill="#FBC234" d="M95.6,184.3c-7.4-5.4-11.1-13.1-11.1-23.2v-9.8h27.6v11.2c0,8.1,5,12.1,15.1,12.1s15.1-4,15.1-12.1v-28,	c0-8.2-5-12.3-15.1-12.3s-15.1,4.1-15.1,12.3v1.1H84.5l5.3-69.6h76.9v17.8h-50.9l-2.4,29.7h0.5c5.5-6.1,13.9-9.1,25.2-9.1,	c10.6,0,18.7,2.4,24.1,7.3c5.5,4.9,8.2,11.9,8.2,21.2V161c0,10.1-3.7,17.8-11.1,23.2c-7.4,5.4-18.2,8.1-32.4,8.1,	C113.9,192.4,103.1,189.7,95.6,184.3z"/></svg>
