<svg viewBox="0 0 28 28" xmlns="http://www.w3.org/2000/svg" xmlns:xlink="http://www.w3.org/1999/xlink"><linearGradient id="a" gradientTransform="matrix(.89 0 0 -.89 -95.28 -796.53)" gradientUnits="userSpaceOnUse" x1="114.33" x2="146.06" y1="-931.53" y2="-899.44"><stop offset="0" stop-color="#0296d8"/><stop offset="1" stop-color="#8371d9"/></linearGradient><linearGradient id="b" x1="94.74" x2="126.48" xlink:href="#a" y1="-912.16" y2="-880.07"/><linearGradient id="c" gradientTransform="matrix(.89 0 0 -.89 -95.28 -796.53)" gradientUnits="userSpaceOnUse" x1="105.61" x2="138.08" y1="-922.14" y2="-892.66"><stop offset="0" stop-color="#cb55c0"/><stop offset="1" stop-color="#f28e0e"/></linearGradient><linearGradient id="d" x1="102.61" x2="134.35" xlink:href="#a" y1="-919.95" y2="-887.86"/><linearGradient id="e" x1="102.54" x2="135.01" xlink:href="#c" y1="-918.76" y2="-889.28"/><path d="m21.05 20.95-6.94-7-.01.01.03.03-14.01 14.01h27.88v-.05z" fill="url(#a)"/><path d="m0 0v14.32l14.32-14.32z" fill="url(#b)"/><path d="m14.1 13.95h.01l6.94-7 6.89-6.95-6.89 6.93z" fill="url(#c)"/><path d="m14.1 13.96.01-.01h-.01l6.95-7.02 6.89-6.93h-13.62l-14.32 14.32v13.68h.12l14.01-14.01z" fill="url(#d)"/><path d="m14.1 13.96.01-.01h-.01l6.95-7.02 6.89-6.93h-13.62l-14.32 14.32v13.68h.12l14.01-14.01z" fill="url(#e)"/></svg>