<svg xmlns="http://www.w3.org/2000/svg" viewBox="0 0 126 59.41"><g data-name="Calque 2"><path d="M121.3 24.34a11.62 11.62 0 01-1-4.28c-.15-3.56 0-7.14-.18-10.7-.14-3.19-1.28-6.06-4.34-7.71C113.12.21 110 .06 107 0v5.72a6 6 0 011 .08c4 .2 5.38 1.48 5.43 5.47 0 3 0 5.95.06 8.92.06 3.6.6 7 3.89 9.32.06 0 .05.18.08.35a7.65 7.65 0 00-3.39 4.82 34.53 34.53 0 00-.54 5.15c-.1 3.12 0 6.24-.09 9.36-.07 2.44-1.23 3.59-3.6 4.13-.89.21-1.84.28-2.84.41v5.68c2-.12 3-.2 4.39-.35 5.16-.56 8.06-3.24 8.65-8.24.19-1.57.17-3.17.2-4.75.07-3 0-6 .3-8.9s2.46-4.68 5.46-4.51v-6a4.17 4.17 0 01-4.7-2.32zm-94 12.13c0-11.55-.31-23.1-.31-34.65V0H17.6a29.09 29.09 0 00-3.69.3C9 1 6.69 3.28 5.83 8.14a26.78 26.78 0 00-.22 4.29v8.18C5.54 24 3.93 26.7.43 26.9c-.12 0 .57.15-.43.24v5.3c4 .63 5.27 2.24 5.54 6 0 .59.05 1.19.06 1.78 0 3.32 0 6.64.15 10 .14 3.09.83 5.86 3.75 7.48 2.73 1.52 6.5 1.64 8.5 1.72v-5.74s-.21-.09-.41-.1c-4.34-.26-5.32-1.44-5.34-5.79 0-2.87.11-5.75.06-8.62-.06-3.61-.59-7-3.86-9.32-.05 0 0-.18 0-.38a8 8 0 003.69-6.09 40.84 40.84 0 00.26-4.3c.05-3 0-5.95.08-8.92a4 4 0 013.09-4A33 33 0 0121 5.73v2.05c0 10.31-.37 20.62-.31 30.93 0 3.53.41 7 4.19 8.54a46.19 46.19 0 006.63 1.64c.4-2.31.52-4.23.85-6.13-4.36-1.25-5.05-1.9-5.05-6.29zM54 16.58a14.7 14.7 0 00-19.68 6.92 20.51 20.51 0 00-.22 16.87A12.1 12.1 0 0040.58 47c5.9 2.62 11.88 2 17.83.14a1.31 1.31 0 00.69-1c-.2-1.66-.54-3.31-.84-5-1.42.36-2.6.72-3.81.95a16.81 16.81 0 01-9.51-.64 7.52 7.52 0 01-4.62-7.73h20.87a25.53 25.53 0 00-1.12-10.54 11.39 11.39 0 00-6.07-6.6zm0 12.13H40.23a7.5 7.5 0 017.54-7.51c3.75.07 6.34 3.5 6.17 7.5zM110.05 41c.49-5.05-1-7.9-5.53-10.09-1.6-.78-3.29-1.36-4.92-2.08A32.44 32.44 0 0196 27a2.94 2.94 0 01-1.39-3 2.62 2.62 0 012.17-2.36 15.92 15.92 0 014.39-.42c2 .17 4.06.69 6.16 1.08l1.33-5.82c-2.85-.43-5.51-1-8.19-1.21a15.81 15.81 0 00-8.63 1.67C86.06 19.89 86 29 91.27 32c1.59.9 3.28 1.6 4.93 2.38s3.54 1.55 5.2 2.5a3 3 0 011.38 3.47 2.67 2.67 0 01-2.58 2.11 26.61 26.61 0 01-5.61.13 66.53 66.53 0 01-6.66-1.45L86.77 47a27.4 27.4 0 0015.94 1.15c4.46-1 7-3.6 7.34-7.13zm-28.41-9.47c-2-1-4.07-1.8-6.09-2.72a21.55 21.55 0 01-3.69-1.87 2.89 2.89 0 01.75-5.26 12.23 12.23 0 014.52-.48 61.26 61.26 0 016.16 1.06l1.26-5.55c-1.08-.29-2.05-.61-3.05-.82-4-.84-8-1.16-11.87.22-3.36 1.18-5.69 3.39-6.15 7.11-.52 4.15.86 7.43 4.7 9.4 1.54.79 3.18 1.36 4.75 2.1a41.35 41.35 0 014.61 2.34 2.87 2.87 0 011.24 3.25 2.7 2.7 0 01-2.53 2.17 26 26 0 01-5.61.15 66.66 66.66 0 01-6.71-1.46c-.34 1.61-.74 3.24-1 4.89a1.41 1.41 0 00.68 1.16 26.25 26.25 0 0016.34.52c3.27-1 5.56-3.05 6-6.62.53-4.05-.44-7.54-4.31-9.59z" fill="#0277bd" data-name="Calque 1"/></g></svg>