<svg viewBox="0 0 63 57" xmlns="http://www.w3.org/2000/svg"><path d="m23 2h33v3 1h-37-2-10v-1-3h3v-2h10z" fill="#e29f33"/><path d="m17 6h39v2 1h-36l-2-2z" fill="#edab37"/><path d="m20 9h36 3v3 1h-55v-1-3h3v-3h10l1 1z" fill="#f6bb42"/><path d="m63 19v36a2 2 0 0 1 -2 2h-59a2 2 0 0 1 -2-2v-36a2 2 0 0 1 2-2h59a2 2 0 0 1 2 2zm-19.5 20.5v-3a1.5 1.5 0 0 0 -3 0v1.5h-18v-1.5a1.5 1.5 0 0 0 -3 0v3a1.5 1.5 0 0 0 1.5 1.5h21a1.5 1.5 0 0 0 1.5-1.5z" fill="#656d78"/><path d="m59 16v1h-55v-1-3h55z" fill="#ffce54"/><path d="m43.5 36.5v3a1.5 1.5 0 0 1 -1.5 1.5h-21a1.5 1.5 0 0 1 -1.5-1.5v-3a1.5 1.5 0 0 1 3 0v1.5h18v-1.5a1.5 1.5 0 0 1 3 0z" fill="#ccd1d9"/><path d="m7 11h49v2h-49z" fill="#fff"/><path d="m10 4h43v2h-43z" fill="#e6e9ed"/><path d="m3 52.5a.5.5 0 0 1 -.5-.5v-30a.5.5 0 0 1 1 0v30a.5.5 0 0 1 -.5.5zm57 0a.5.5 0 0 1 -.5-.5v-30a.5.5 0 1 1 1 0v30a.5.5 0 0 1 -.5.5z" fill="#545c66"/></svg>