<svg viewBox="0 0 512 467.81" xmlns="http://www.w3.org/2000/svg"><path d="m495.85 345.51c-29-73.18-53-148.23-80.73-221.89-12.23-31.36-24.2-63-40.87-92.33-6.62-10.53-13-22.12-23.81-28.86a15.87 15.87 0 0 0 -8.87-2.43 23 23 0 0 0 -14 5.65c-14.57 11.55-23.24 28.35-32.92 43.8-17.11 28.7-35.16 58.75-63.77 77.4-13.44 9.49-31 10.51-44 20.69-17.72 13.36-29.77 32.31-44.3 48.74-3.31 4-8.44 5.53-12.92 7.67-43.34 17.66-86.71 35.3-129.66 53.87 36.37 28.18 75.11 53.18 112.21 80.32 10.17-2 20.38-6.2 30.88-4.34 16.63 5.21 26.38 21.15 34 35.72 15.5 31.77 26.7 65.31 39.25 98.28 21-1.49 39.88-12.31 56.1-25 31.24-25.31 55-58 81.23-88.19 12.55-13.2 25.35-28.92 44.2-32.59 19.05-4.6 39.45 2.22 53.58 15.34 19.82 17.72 37.38 38.2 60.54 51.77-3.1-15.37-10.56-29.13-16.14-43.62zm-324-51.56c-18.28 10.82-37.7 19.72-56.71 29.16-29.83-20-58.89-41.15-88.19-61.86 39.51-17.32 79.64-33.4 119.68-49.55 19 14.81 38.55 28.88 57.52 43.69a173.12 173.12 0 0 1 -32.31 38.55zm40.67-49.65c-18.85-14.17-37.94-28-56.51-42.48 11.91-16.23 24.94-31.91 40.56-44.7 10.33-6.62 23-8.46 33.7-14.43 25.47-12.71 42.84-36 59.43-58.32-21.27 55.21-43.97 110.63-77.19 159.93z" fill="#d28445"/></svg>