<svg xmlns="http://www.w3.org/2000/svg" width="28" height="28"><g fill="none"><path fill="#26557C" d="M27.999 25.199v-22.4a2.8 2.8 0 00-2.8-2.8h-22.4A2.8 2.8 0 000 2.8v22.4A2.8 2.8 0 002.8 28h22.4a2.8 2.8 0 002.8-2.8z"/><path fill="#FFF" d="M5.187 4c-.906-.019-1.33.612-1.144 1.7.06.35.365.852 1.022 1.682.731.922 1.025 1.426 1.344 2.299.502 1.375.734 1.837 1.141 2.267.317.334.317.336.104 1.017-.33 1.056-.398 3.173-.133 4.17.396 1.49.885 2.166 1.566 2.166.485 0 .883-.41 1.025-1.055a6.41 6.41 0 01.206-.71c.11-.29.14-.267.572.443.25.412.729 1.026 1.061 1.363.769.78 1.824 1.659 1.9 1.584.032-.031-.276-.492-.683-1.025-.408-.534-1.175-1.773-1.708-2.753-.62-1.144-1.04-1.783-1.173-1.784-.43-.003-.829.676-1.06 1.804-.268 1.3-.738 1.082-1.12-.519-.22-.923-.105-2.165.306-3.33.186-.528.339-1.018.339-1.086 0-.067-.299-.634-.663-1.26-.365-.626-.794-1.513-.952-1.971-.385-1.113-.568-1.437-1.341-2.384-.797-.973-.872-1.423-.238-1.42.493.004 1.288.339 2.087.88.507.344.679.39 1.491.39 1.02 0 1.24.084 2.655 1.023 1.44.957 2.515 1.846 3.258 2.698.66.758 1.022 1.417 2.966 5.432.745 1.541 1.406 2.286 2.319 2.604 1.41.493 1.89.715 2.51 1.165l.656.474-.44.087c-.244.046-.775.123-1.18.17-.841.098-1.392.45-1.392.891 0 .497 1.68 1.92 3.364 2.848.81.447 1.589.887 1.731.978.378.245.48.214.382-.106-.205-.675-.895-1.33-2.813-2.678-1.126-.79-1.137-.762.366-.912 1.072-.107 1.613-.292 1.613-.55 0-.12-.545-.752-1.21-1.404-1.042-1.023-1.394-1.277-2.542-1.84-1.563-.765-2.132-1.373-2.493-2.663-.537-1.925-1.982-4.185-3.903-6.102-1.982-1.98-3.875-3.074-5.61-3.245-.704-.07-1.07-.178-1.434-.426C7.322 4.49 5.888 4.015 5.187 4zm3.43 3.503c-.14-.01-.265.009-.349.069-.317.218-.28.484.093.648.174.078.422.352.55.61.435.861 1.1.284.804-.698-.094-.31-.671-.601-1.097-.63z"/></g></svg>