<svg viewBox="0 0 24.52 28" xmlns="http://www.w3.org/2000/svg"><path d="m24.1 6.77-10.86-6.24a10.41 10.41 0 0 0 -1-.53h-.07c-.34.16-.65.35-1 .53l-10.78 6.25a.69.69 0 0 0 -.39.67v13.16a.7.7 0 0 0 .4.67l11.6 6.63a.59.59 0 0 0 .66 0l11.55-6.64a.81.81 0 0 0 .36-.51v-13.16a.79.79 0 0 0 -.47-.83zm-4.87 12.75a1.56 1.56 0 0 1 -1.23 1.37 2.83 2.83 0 0 1 -2.6-.78q-3.6-4.28-7.18-8.57v7.86a1.56 1.56 0 0 1 -.68 1.29 1.65 1.65 0 0 1 -2.06-.21 1.51 1.51 0 0 1 -.48-1.08v-10.86a1.58 1.58 0 0 1 1.43-1.54 2.82 2.82 0 0 1 2.65 1.09c2.34 2.78 4.65 5.57 7 8.33v-8a1.58 1.58 0 0 1 3.15 0q.01 5.58 0 11.1z" fill="#019639"/></svg>