<svg xmlns="http://www.w3.org/2000/svg" width="64" height="64" viewBox="0 0 60 60"><path d="M30.238 9.438l-4.643 3.62c-2.41-.077-7.14.463-9.702 1.395-2.36-1.495-4.435-3.146-4.435-3.146L8.57 16.146c-1.653.88-3.313 1.868-4.792 3.176l-3.78-1.544c2.278 4.595 3.8 9.197 7.976 11.962 6.633-10.476 37.456-9.5 44.226-.06C56.577 27.4 58.28 22.5 60 17.957c-.19.062-2.53.846-4.048 1.425-.906-.987-3.042-2.503-4.256-3.236-1.15-2.11-2.827-4.957-2.827-4.957s-1.985 1.476-4.286 3.087c-3.108-.574-6.868-1.27-10.03-1.098-2.152-1.77-4.315-3.74-4.315-3.74z" fill="#f3d400"/><path d="M2.355 27.545l5.472 13.252c9.503 12.537 33.77 13.41 44.35.243l5.88-13.57c-2.714 4.02-7.13 6.796-9.85 8.29-1.933 1.06-6.393 1.7-6.393 1.7l-11.7-6.068-11.777 5.947s-4.4-.707-6.393-1.638c-4.02-2.147-6.726-4.683-9.577-8.155z" fill="#ffe953"/></svg>