<svg height="464.15" viewBox="0 0 501.704 435.14" width="535.15" xmlns="http://www.w3.org/2000/svg" xmlns:xlink="http://www.w3.org/1999/xlink"><linearGradient id="a" gradientUnits="userSpaceOnUse" x1="271.247" x2="360.737" y1="-703.74" y2="-548.963"><stop offset="0" stop-color="#699ad7"/><stop offset=".243" stop-color="#7eb1dd"/><stop offset="1" stop-color="#7ebae4"/></linearGradient><linearGradient id="b" gradientUnits="userSpaceOnUse" x1="280.497" x2="368.399" y1="-709.004" y2="-553.626"><stop offset="0" stop-color="#415e9a"/><stop offset=".232" stop-color="#4a6baf"/><stop offset="1" stop-color="#5277c3"/></linearGradient><g fill-rule="evenodd"><path d="m153.065 222.938 122.197 211.675-56.157.527-32.624-56.869-32.856 56.565-27.903-.01-14.29-24.69 46.81-80.49-33.23-57.826z" fill="#5277c3"/><path d="m197.17 135.747-122.216 211.663-28.535-48.37 32.939-56.687-65.416-.172-13.942-24.171 14.236-24.72 93.112.293 33.464-57.69zm9.377 169.2 244.414.012-27.622 48.897-65.562-.181 32.559 56.737-13.961 24.158-28.528.032-46.301-80.784-66.693-.135zm142.257-92.745-122.196-211.675 56.157-.527 32.623 56.87 32.857-56.567 27.902.01 14.291 24.69-46.81 80.49 33.229 57.826z" fill="#7ebae4"/><path d="m153.065 222.938 122.197 211.675-56.157.527-32.624-56.869-32.856 56.565-27.903-.01-14.29-24.69 46.81-80.49-33.23-57.826zm141.933-93.28-244.415-.012 27.623-48.897 65.562.182-32.56-56.737 13.962-24.159 28.527-.031 46.301 80.784 66.693.135zm9.535 169.69 122.218-211.663 28.534 48.37-32.938 56.688 65.415.171 13.942 24.17-14.237 24.721-93.112-.294-33.463 57.69z" fill="#5277c3"/></g><g transform="translate(-156.339 933.19)"><path id="c" d="m309.549-710.388 122.197 211.675-56.157.527-32.624-56.87-32.856 56.566-27.903-.011-14.29-24.69 46.81-80.49-33.23-57.826z" fill="url(#a)" fill-rule="evenodd"/><use height="100%" transform="matrix(.5 .8660254 -.8660254 .5 -416.333726 -710.462834)" width="100%" xlink:href="#c"/><use height="100%" transform="matrix(.5 -.8660254 .8660254 .5 823.470381 -5.107461)" width="100%" xlink:href="#c"/><use height="100%" transform="matrix(-1 0 0 -1 814.838 -1431.512)" width="100%" xlink:href="#c"/><path id="d" d="m309.549-710.388 122.197 211.675-56.157.527-32.624-56.87-32.856 56.566-27.903-.011-14.29-24.69 46.81-80.49-33.23-57.826z" fill="url(#b)" fill-rule="evenodd"/><use height="100%" transform="matrix(-.5 .8660254 -.8660254 -.5 -9.136935 -1426.892788)" width="100%" xlink:href="#d"/><use height="100%" transform="matrix(-.5 -.8660254 .8660254 -.5 1230.893606 -721.083245)" width="100%" xlink:href="#d"/></g></svg>