<svg viewBox="0 0 24.83 28" xmlns="http://www.w3.org/2000/svg"><g fill="#96ae60"><path d="m12.42 28a2.15 2.15 0 0 1 -1.08-.29l-3.42-2c-.51-.29-.26-.39-.09-.45a6.83 6.83 0 0 0 1.55-.7.26.26 0 0 1 .26 0l2.63 1.56a.34.34 0 0 0 .32 0l10.25-5.92a.32.32 0 0 0 .16-.28v-11.85a.33.33 0 0 0 -.16-.28l-10.27-5.92a.32.32 0 0 0 -.32 0l-10.25 5.92a.33.33 0 0 0 -.16.28v11.85a.32.32 0 0 0 .16.27l2.81 1.62c1.52.76 2.46-.14 2.46-1v-11.73a.3.3 0 0 1 .3-.3h1.3a.3.3 0 0 1 .3.3v11.7c0 2-1.11 3.2-3 3.2a4.39 4.39 0 0 1 -2.36-.64l-2.7-1.55a2.17 2.17 0 0 1 -1.11-1.87v-11.85a2.16 2.16 0 0 1 1.08-1.87l10.26-5.92a2.25 2.25 0 0 1 2.16 0l10.25 5.92a2.17 2.17 0 0 1 1.08 1.87v11.85a2.17 2.17 0 0 1 -1.08 1.87l-10.26 5.92a2.15 2.15 0 0 1 -1.07.29z"/><path d="m10.47 16a.3.3 0 0 1 .3-.3h1.33a.3.3 0 0 1 .3.25c.2 1.35.8 2 3.51 2 2.16 0 3.08-.49 3.08-1.64 0-.66-.26-1.15-3.62-1.48-2.81-.28-4.54-.9-4.54-3.14 0-2.07 1.75-3.31 4.67-3.31 3.29 0 4.91 1.14 5.12 3.59a.3.3 0 0 1 -.28.32h-1.34a.3.3 0 0 1 -.29-.23c-.32-1.42-1.1-1.87-3.2-1.87-2.36 0-2.63.82-2.63 1.44s.32 1 3.51 1.39 4.61.98 4.61 3.2-1.86 3.52-5.11 3.52c-4.48 0-5.42-2.06-5.42-3.74z"/></g></svg>