<svg viewBox="0 0 512 512" xmlns="http://www.w3.org/2000/svg"><path d="m486.91 256.81-109.49 104.94 109.49 104.94zm-11.09-10.63h-219l109.51 104.94zm0-15-109.48-104.98-109.5 104.94zm-128.42-108.1h-219l109.51 104.92zm139.51-112.45-109.49 104.94 109.49 104.94zm-139.51 97.37-109.49-104.89-109.49 104.89zm-128.4-108h-219l109.49 104.94zm-193.91 255.2 109.48-104.95-109.48-104.94zm120.58-94.31-109.49 104.94h219zm-109.49 120 109.48 104.92 109.49-104.95zm-11.09 10.6v209.88l109.48-104.93zm358.49 97.43-109.49-104.92-109.49 104.92zm-219 15 109.51 104.97 109.48-104.89zm128.42 108.08h219l-109.49-104.93z" fill="#765f89"/></svg>