<svg xmlns="http://www.w3.org/2000/svg" viewBox="0 0 652.21 607.09"><path fill="#517570" d="M545.84,246.45c-7-84.35,33.76-133.74,85.26-166.51C604.4,38.2,561.19,11.15,500.31,2,449.66-5.67,411.22,10.56,372,24.71c-13.38,4.89-26.59,11.81-39.87,12.19-19.6.6-40.3-10.68-56.84-17-17.46-6.61-37.38-13.28-56.88-16.3-45.49-7-86.34,8.6-116.06,26.87C46.05,64.8,3.69,135.69,0,222.88v35.79c8.71,121.83,55.54,217,116.14,290.74,20.55,24.94,48.76,52.62,83.71,57.68h16.23c47.6-6.71,76.23-33.38,128.29-32.53,49.22.84,81.12,31.72,129.14,31.72,55.57,0,86.7-47,112.1-82,27.82-38.5,50.62-80,66.6-128.4v-1.58C596.57,367.89,552,323.07,545.84,246.45ZM466.09,372.39c0,112-66.72,138.82-134.58,138.82-119.19,0-145.42-58.77-145.42-207.67,0-152.81,35.35-207.66,145.42-207.66,95.8,0,131.73,49.25,131.73,126.5v25.19H360.59V225.18c0-45.34-8.55-58.78-29.08-58.78-32.51,0-35.93,29.11-35.93,137.14S299,440.68,331.51,440.68c26.23,0,31.93-22.39,31.93-97.95H466.09Z"/></svg>
