<svg xmlns="http://www.w3.org/2000/svg" viewBox="0 0 652.21 607.09"><path fill="#7a6753" d="M545.84,246.45c-7-84.35,33.76-133.74,85.26-166.51C604.4,38.2,561.19,11.15,500.31,2,449.66-5.67,411.22,10.56,372,24.71c-13.38,4.89-26.59,11.81-39.87,12.19-19.6.6-40.3-10.68-56.84-17-17.46-6.61-37.38-13.28-56.88-16.3-45.49-7-86.34,8.6-116.06,26.87C46.05,64.8,3.69,135.69,0,222.88v35.79c8.71,121.83,55.54,217,116.14,290.74,20.55,24.94,48.76,52.62,83.71,57.68h16.23c47.6-6.71,76.23-33.38,128.29-32.53,49.22.84,81.12,31.72,129.14,31.72,55.57,0,86.7-47,112.1-82,27.82-38.5,50.62-80,66.6-128.4v-1.58C596.57,367.89,552,323.07,545.84,246.45ZM503.28,347.14H375.13v114H277.08v-114H148.93V260H277.08V146h98.05V260H503.28Z"/></svg>
