<svg xmlns="http://www.w3.org/2000/svg" viewBox="0 0 28 24.4"><defs><style>.cls-2{fill:#d28445}</style></defs><g id="Calque_2" data-name="Calque 2"><g id="Calque_1-2" data-name="Calque 1"><path d="M14.57 21.45a4.28 4.28 0 000-.71c-.06-.2-.2-.22-.3-.37a3.51 3.51 0 01-.53-1.48c0-.45-.2-.89-.22-1.34v-.67a2 2 0 000-.32 1.13 1.13 0 000-.2l.06-.14a2.72 2.72 0 01.65 0H15a8 8 0 001.54-.06 3.72 3.72 0 001.95-.85 5 5 0 001.54-2c.18-.39.18-1.08.55-1.4s1.18-.34 1.69-.57a1.19 1.19 0 01.81-.14c.22 0 .63.31.73-.06-.08 0-.1-.14-.14-.18.41 0 0-1-.16-1.2a2.22 2.22 0 00-1.14-.55A3.51 3.51 0 0020.71 9c-.89.18-.83-.34-1.34-.34s-1.73 0-1.93.63a1.54 1.54 0 01-.33.51c-.14.18 0 .35 0 .57s-.18 1-.28 1.26c-.18.45-.39 1-.79 1a3.15 3.15 0 01-1.44-.08l-.94-.33c-1-.43-1.2-.91-1.2-.91a3 3 0 01-.51-.87c-.12-.41-.31-.77-.39-1s-.3-.59-.45-1a2.67 2.67 0 00-.71-1.06c-.31-.28-.61-.73-1.26-.59a1.64 1.64 0 00-.87.31c-.22.18-.3.57-.49.89s-.31.71-.51 1.16a1.93 1.93 0 01-.34.65c-.12.08-.26.2-.41.14a.92.92 0 01-.31-.2 5.33 5.33 0 01-.71-1.12 11.1 11.1 0 00-.79-1.24 1 1 0 00-1-.55c-1 0-1.1.57-1.56 1.42a5.57 5.57 0 01-.67 1.4C1.22 9.93.51 11 0 11.19v7.62a2.85 2.85 0 01.1-.28c.2-.41.65-.81.91-1.22a3.5 3.5 0 00.37-.71 3.74 3.74 0 01.24-.71.79.79 0 01.57-.33c.35-.06.65.49 1.08.71.2.08 1.06.39 1.32.45.43.1.91.2 1.34.28.24 0 .45.08.71.1a7.3 7.3 0 011.08.1 2.28 2.28 0 00-.81 1.22c-.16.43-.28.92-.47 1.34s-.67.67-.61 1.22a2.67 2.67 0 010 .69 4 4 0 01-.22.69c-.1.32-.22 1.36-.35 1.67l.91-.12a10.69 10.69 0 00.21-1.33 3.74 3.74 0 01.73-1.28c.34-.37.31-.85.51-1.3a12.49 12.49 0 01.77-1.3c.49-.81.81-1.81 1.85-2a3.3 3.3 0 011 .71 4.45 4.45 0 01.89 1.1 12.85 12.85 0 01.89 2.68 1.23 1.23 0 00.39.71 5.46 5.46 0 01.43.73c.08.18.2.57.3.79a6.27 6.27 0 01.32.83h.85a9.75 9.75 0 01-.74-2.8z" fill="#fff"/><path class="cls-2" d="M14.22 23.44c-.1-.2-.22-.61-.3-.79a5.46 5.46 0 00-.43-.73 1.12 1.12 0 01-.39-.71 12.49 12.49 0 00-.89-2.68 4.45 4.45 0 00-.89-1.1 3.3 3.3 0 00-1-.71c-1 .2-1.36 1.22-1.85 2a12.49 12.49 0 00-.77 1.3c-.2.43-.18.92-.51 1.3a3.44 3.44 0 00-.73 1.28c0 .1-.12 1.08-.22 1.32l1.54-.1c1.44.1 1 .65 3.25.53l3.52-.12a6.27 6.27 0 00-.33-.79z"/><path class="cls-2" d="M24.46 0H3.54A3.52 3.52 0 000 3.52v7.68c.53-.2 1.24-1.25 1.48-1.51a5.91 5.91 0 00.67-1.4c.45-.83.53-1.42 1.56-1.42a1 1 0 011 .55 9.55 9.55 0 01.79 1.24 4.85 4.85 0 00.71 1.12 2 2 0 00.31.2c.16.06.3-.06.41-.14a1.93 1.93 0 00.33-.65c.2-.45.39-1 .51-1.16s.28-.71.49-.89a1.59 1.59 0 01.87-.31c.65-.14.94.31 1.26.59a3.29 3.29 0 01.71 1.06c.16.39.35.77.45 1a9 9 0 01.39 1 3.71 3.71 0 00.51.87s.18.47 1.2.91a8.75 8.75 0 00.95.33 3.15 3.15 0 001.44.08c.39 0 .61-.57.79-1 .1-.28.22-1 .28-1.26s-.1-.37 0-.57.26-.24.33-.51c.2-.61 1.3-.63 1.93-.63s.45.51 1.34.34a3.24 3.24 0 011.54.22 2.22 2.22 0 011.14.55c.16.2.57 1.16.16 1.2 0 0 .08.14.14.18-.1.37-.49.1-.73.06a1.19 1.19 0 00-.81.14c-.51.22-1.24.2-1.69.57s-.37 1-.55 1.4a5.17 5.17 0 01-1.54 2 3.9 3.9 0 01-1.95.85 8 8 0 01-1.54.06h-1.42l-.06.14a.7.7 0 000 .2v.99c0 .45.2.87.22 1.34a3.26 3.26 0 00.53 1.48c.1.16.24.18.3.37a4.16 4.16 0 010 .71 9.68 9.68 0 00.83 2.76c.51-.08 1-.28 1.71-.37 1.24-.18 3-.1 4.06-.2 2.8-.26 4.31 1.14 6.81.57V3.53A3.55 3.55 0 0024.46 0z"/><path class="cls-2" d="M6.48 19.77c.2-.43.31-.91.47-1.34a2.28 2.28 0 01.81-1.22 7.3 7.3 0 00-1.08-.1c-.24 0-.47-.06-.71-.1-.43-.08-.93-.18-1.34-.28-.26-.06-1.14-.37-1.32-.45-.45-.2-.75-.77-1.08-.71a.79.79 0 00-.57.33 3.74 3.74 0 00-.24.71c-.1.24-.26.47-.37.71a12.29 12.29 0 00-.92 1.2c0 .1-.06.2-.1.3v4.74a5.4 5.4 0 01.73.16 8.77 8.77 0 004.37.35h.18c.14-.32.26-1.36.35-1.67a5.49 5.49 0 00.22-.69 2.67 2.67 0 000-.69c-.07-.58.38-.77.6-1.25z"/></g></g></svg>