<svg viewBox="0 0 512 493.21" xmlns="http://www.w3.org/2000/svg"><path d="m467.47 358.49c13 34.69 3.56 66.27-32.39 85.06-35 18.31-72.81 29.43-111.32 38.1a569.42 569.42 0 0 1 -72.35 11c-22.54 2.1-43.82-2-61.9-16.47a71.57 71.57 0 0 1 -26.76-46.85c-1.63-11.57 2.78-22 13.8-28.14 14.47-8.12 24.72-19.62 29.52-35.75a24.89 24.89 0 0 0 .61-13c-2.42-11-2.79-22 .93-32.86 5.73-16.71 17.84-27.75 33.38-34.7 9.74-4.36 46-14.06 53.72-15.59 6.81-1.34 13.78-1.91 20.67-2.82 17.29-.21 32.68 4.64 46.14 15.46a63 63 0 0 1 18.57 25c2.49 5.88 6.42 10 11.39 13.63 12.43 9.08 26.16 14.13 41.67 14 17.16-.26 28.68 8.91 34.32 23.93zm-228.09-265.49c4.77 6.65 6.95 13.44 6.54 21.28-.33 6.32-.74 12.66-1.64 18.92-3.07 21.56 8.92 41.62 29.42 45.88 26.23 5.45 49.91.19 67.93-21.36 9.57-11.45 14.22-24.44 11.92-39.69a72.78 72.78 0 0 0 -10.64-28.27c-11.81-18.73-27.56-33.08-47.84-41.73-11.94-22.52-29.07-41.09-44.88-48.03-2.74 7.23-1.74 13 3.24 17.86 7.15 7 9.9 15.74 10.7 25.34-6.86 1.87-13.48 3-19.59 5.47-11.15 4.44-16.17 13.73-13.29 25.33 1.67 6.62 4.18 13.54 8.13 19zm-138.91 64.37c3.2 26.84 19.09 46.86 46.27 54.24 25.64 7 47.69.89 66.83-16.79 6.89-6.37 10.37-14.74 8.55-24.09a60.77 60.77 0 0 0 -6.67-18.62c-3.61-6.23-8.8-11.59-13.53-17.12-7.83-9.16-14.22-19.79-12.78-32.64-2.71-23.74-17.5-34.49-40.74-28.07-3.29.91-6.63 1.6-10.08 2.42-5.85-8.48-9.14-17.07-7.94-27.14.85-7.1-2.92-11.66-8.82-15-8.13 12.3-10.72 39.74-5.77 59.94-13.07 19.43-18.04 40.09-15.32 62.87zm392.9-.4c-2.07-2.73-4.41-5-5-8.86-2.49-17.73-11-32.95-21.07-47.35-1.16-1.65-3-2.78-5.45-4.91-3.71 6.49-5.69 11.83-2.45 18.46 3.39 6.93 5.36 14.26 2 22.57-20-2.22-31.91 4.12-38.25 22.65-6.72 19.66-20.83 45.07-29.24 63.89-7.89 17.65-2 32.2 14.41 42.6q32.59 20.64 68 4.81c16.7-7.45 28.23-19.81 32.64-37.42 7.04-27.71 1.81-53.41-15.6-76.41zm-348.64 139.64c-5.72-5.35-12.5-9.74-19.29-13.74-16.66-9.87-44.76-27.87-61.21-38.32-12.71-8.1-26.68-5.53-40.59 10.8a22 22 0 0 1 -8.19-14.69c-.87-8.12-6.2-11.86-13.74-15.91-.71 3.37-1.84 6-1.7 8.53.91 16.21 2.81 32.21 10.56 46.93a26 26 0 0 1 2.66 8.93c1.82 15.72 6.66 30.38 15.4 43.56 17.29 26.06 40.36 40.7 72.93 36.42 22.82-3 39.6-14.36 49.63-35.21 6.81-14.13 4.95-26.62-6.46-37.3z" fill="#82c5a9"/></svg>