<svg xmlns="http://www.w3.org/2000/svg" viewBox="0 0 62.6 61.26"><g data-name="Calque 2"><path d="M62.51 39.32a3.16 3.16 0 00-.92-1.58c-1.26-1.24-4-1.89-8.25-1.95a68.16 68.16 0 00-9.92.73 24.72 24.72 0 01-4.6-3.18 33.6 33.6 0 01-8.31-12.89c.12-.47.22-.88.32-1.3 0 0 2-11.28 1.46-15.1A4.39 4.39 0 0032 3l-.17-.44A3.58 3.58 0 0028.6 0h-1a3.69 3.69 0 00-3.76 2.36c-1.2 4.44 0 11.09 2.29 19.69l-.58 1.4c-1.61 3.94-3.63 7.9-5.41 11.39l-.23.45C18 39 16.33 42.08 14.78 44.72l-1.59.84c-.12.06-2.85 1.51-3.49 1.89C4.27 50.7.67 54.38.07 57.3A2.42 2.42 0 001 60l1.54.78a4.73 4.73 0 002.1.5c3.87 0 8.36-4.82 14.55-15.62a144.73 144.73 0 0122.41-5.32c5.4 3.03 12.1 5.16 16.32 5.16a7.55 7.55 0 001.92-.21A3.33 3.33 0 0061.75 44a6.92 6.92 0 00.76-4.68zm-58.72 19c.7-1.93 3.5-5.75 7.63-9.13.26-.21.9-.81 1.48-1.37-4.32 6.9-7.21 9.64-9.11 10.51zM28.25 2c1.24 0 2 3.13 2 6.07a12.48 12.48 0 01-1.48 6.53 31.7 31.7 0 01-1-8.15S27.68 2 28.25 2zM21 42.14q1.3-2.33 2.69-4.92a92.13 92.13 0 004.72-10.3 34.07 34.07 0 007.79 9.67l1.22 1A98.93 98.93 0 0021 42.14zm39.43-.35a5.76 5.76 0 01-2.17.37c-2.26 0-5.07-1-9-2.72 1.51-.11 2.9-.17 4.14-.17a15.89 15.89 0 015.17.56c2.17.57 2.2 1.72 1.81 1.96z" fill="#e64a19" data-name="Calque 1"/></g></svg>