<svg xmlns="http://www.w3.org/2000/svg" viewBox="0 0 512 365.56"><g data-name="Calque 2"><path d="M170.32 276.59c-2.4-15.66-9-28.38-25-34.53-6.27-2.4-11.7-6.78-17.88-9.54a140.62 140.62 0 00-21.57-8.1c-5.61-1.5-10.83 1-14.16 5.94-3.15 4.62-.87 9 1.77 12.84 3 4.35 6.27 8.49 9.6 12.57 5.52 6.78 11.37 13.29 16.74 20.16 5.13 6.57 9.51 13.86 8.76 22.56-1.65 19.08-10.29 34.89-24.21 47.76a9.22 9.22 0 01-6.21 2.19 39.35 39.35 0 01-23.46-10.53c-7.47-7.11-6.33-15.48 2.61-20.67a56.26 56.26 0 006.3-3.87 13.76 13.76 0 004.32-17.22c-1.41-2.94-3-6.12-5.34-8.25-11.43-10.41-22.65-21.15-34.89-30.63C18 234.23 2.77 203.75.43 166.85A189.58 189.58 0 0128.93 52.6c8.19-13.29 17.73-26 32.37-32.52 10-4.47 20.88-7 31.53-9.78 29.31-7.71 58.89-13.5 89.4-8.3 26.28 4.41 45.51 17.94 54.33 43.77 5.79 16.89 7.17 34.35 5.37 52.23-3.54 35.13-29.49 66.54-63.33 75.84-14.67 4-22.68 1.77-31.5-10.44-6.33-8.79-11.58-18.36-17.25-27.63-.84-1.38-1.44-3-2.16-4.44s-1.44-2.88-2.16-4.35c2.13 15.24 5.67 29.91 14 43C144 177 150 182.29 158.8 183.07c32.34 2.91 59.64-7.71 79-33.72 21.69-29.1 26.46-62.58 20.19-97.83-1.23-7-3.3-13.77-4.77-20.7-1-4.47.78-7.77 5.19-9.33a52.52 52.52 0 016.18-1.68A256.33 256.33 0 01344.8 15c30.6 3.06 59.55 11.46 85.44 28.47 40.53 26.67 65.64 64.62 79.29 110.52 2 6.66 2.28 13.95 2.46 21 .12 4.68-2.88 5.91-6.45 3a98.94 98.94 0 01-10.92-10.65c-3.15-3.57-5.67-7.65-8.73-11.4-2.37-2.94-4.44-2.49-5.58 1.17-.72 2.22-1.35 4.41-2 6.63-7.08 25.26-18.24 48.3-36.33 67.71-2.52 2.73-4.77 6.78-5.07 10.38-.78 10-1.35 20.13-.39 30.06 2 21.33 5.07 42.57 7.47 63.87 1.35 12-2.52 19.11-13.83 23.28a92.59 92.59 0 01-24.87 5.64c-13.38.93-26.88.27-40.32.27-.36-15 .93-29.73-13.17-37.77 2.73-11.13 5.88-21.69 7.77-32.49 1.56-9 .24-17.79-6.06-25.14-5.91-6.93-13.32-8.82-20.1-4.86-20.43 11.91-41.67 12-63.3 4.17-9.93-3.6-16.86-1.56-22.35 7.5A54.48 54.48 0 00240 308c.84 14 3.27 27.75 5.13 41.64 1 7.77.15 9.78-7.56 11.76-17.13 4.35-34.56 4.83-52.08 3.42a15.26 15.26 0 01-2.46-.63c-.87-14.55.66-29.67-16.68-37.41 7.68-16.29 6.63-33.18 4-50.07l-.06-.15zM66.76 219.5a19.41 19.41 0 005.31-9.6c1.8-8.64-4.68-20.22-12.18-23.43-4-1.74-7.47-1.11-10.29 2.07q-10.3 11.65-20.4 23.52a24.07 24.07 0 00-3 4.53c-2.7 5.19-1.11 9 4.65 10.38a104.66 104.66 0 0010.65 1.56c9.3-.9 18.3-2.46 25.23-9zm.78-86.37a11.52 11.52 0 00-11.28-11.37 11.7 11.7 0 00-11.46 11.76 11.53 11.53 0 0011.61 11.07 11.31 11.31 0 0011.16-11.43z" fill="#765f89" data-name="Calque 1"/></g></svg>