<svg viewBox="0 0 210 210" xmlns="http://www.w3.org/2000/svg"><path d="m155 40h10c2.8 0 5 2.2 5 5s-2.2 5-5 5h-10c-2.8 0-5-2.2-5-5s2.2-5 5-5z" fill="#56b3b4"/><path d="m5 200h50c2.8 0 5 2.2 5 5s-2.2 5-5 5h-50c-2.8 0-5-2.2-5-5s2.2-5 5-5z" fill="#ea5e5e"/><path d="m125 120h30c2.8 0 5 2.2 5 5s-2.2 5-5 5h-30c-2.8 0-5-2.2-5-5s2.2-5 5-5z" fill="#bf85bf"/><path d="m65 120h40c2.8 0 5 2.2 5 5s-2.2 5-5 5h-40c-2.8 0-5-2.2-5-5s2.2-5 5-5z" fill="#ea5e5e"/><path d="m5 120h40c2.8 0 5 2.2 5 5s-2.2 5-5 5h-40c-2.8 0-5-2.2-5-5s2.2-5 5-5z" fill="#56b3b4"/><path d="m5 160h50c2.8 0 5 2.2 5 5s-2.2 5-5 5h-50c-2.8 0-5-2.2-5-5s2.2-5 5-5z" fill="#bf85bf"/><path d="m5 80h50c2.8 0 5 2.2 5 5s-2.2 5-5 5h-50c-2.8 0-5-2.2-5-5s2.2-5 5-5z" fill="#bf85bf"/><path d="m55 20h100c2.8 0 5 2.2 5 5s-2.2 5-5 5h-100c-2.8 0-5-2.2-5-5s2.2-5 5-5z" fill="#f7ba3e"/><path d="m5 20h30c2.8 0 5 2.2 5 5s-2.2 5-5 5h-30c-2.8 0-5-2.2-5-5s2.2-5 5-5z" fill="#ea5e5e"/><path d="m45 180h10c2.8 0 5 2.2 5 5s-2.2 5-5 5h-10c-2.8 0-5-2.2-5-5s2.2-5 5-5z" fill="#f7ba3e"/><path d="m45 60h10c2.8 0 5 2.2 5 5s-2.2 5-5 5h-10c-2.8 0-5-2.2-5-5s2.2-5 5-5z" fill="#56b3b4"/><path d="m5 180h20c2.8 0 5 2.2 5 5s-2.2 5-5 5h-20c-2.8 0-5-2.2-5-5s2.2-5 5-5z" fill="#56b3b4"/><path d="m5 60h20c2.8 0 5 2.2 5 5s-2.2 5-5 5h-20c-2.8 0-5-2.2-5-5s2.2-5 5-5z" fill="#f7ba3e"/><path d="m85 100h80c2.8 0 5 2.2 5 5s-2.2 5-5 5h-80c-2.8 0-5-2.2-5-5s2.2-5 5-5z" fill="#56b3b4"/><path d="m35 100h30c2.8 0 5 2.2 5 5s-2.2 5-5 5h-30c-2.8 0-5-2.2-5-5s2.2-5 5-5z" fill="#f7ba3e"/><path d="m5 100h10c2.8 0 5 2.2 5 5s-2.2 5-5 5h-10c-2.8 0-5-2.2-5-5s2.2-5 5-5z" fill="#ea5e5e"/><path d="m95 40h40c2.8 0 5 2.2 5 5s-2.2 5-5 5h-40c-2.8 0-5-2.2-5-5s2.2-5 5-5z" fill="#bf85bf"/><path d="m5 40h70c2.8 0 5 2.2 5 5s-2.2 5-5 5h-70c-2.8 0-5-2.2-5-5s2.2-5 5-5z" fill="#56b3b4"/><path d="m35 140h90c2.8 0 5 2.2 5 5s-2.2 5-5 5h-90c-2.8 0-5-2.2-5-5s2.2-5 5-5z" fill="#f7ba3e"/><path d="m5 140h10c2.8 0 5 2.2 5 5s-2.2 5-5 5h-10c-2.8 0-5-2.2-5-5s2.2-5 5-5z" fill="#bf85bf"/><path d="m125 60h50c2.8 0 5 2.2 5 5s-2.2 5-5 5h-50c-2.8 0-5-2.2-5-5s2.2-5 5-5z" fill="#ea5e5e"/><path d="m125 80h50c2.8 0 5 2.2 5 5s-2.2 5-5 5h-50c-2.8 0-5-2.2-5-5s2.2-5 5-5z" fill="#f7ba3e"/><path d="m5 0h120c2.8 0 5 2.2 5 5s-2.2 5-5 5h-120c-2.8 0-5-2.2-5-5s2.2-5 5-5z" fill="#56b3b4"/></svg>