<svg viewBox="0 0 1024 1024" xmlns="http://www.w3.org/2000/svg"><path d="m0 0h1024v1024h-1024z" fill="#14161a"/><path d="m691.29 698.7-66.58-62.17h-292.38l66.58 62.17zm-292.38-217.95-66.58 62.17h292.38l66.58-62.17zm292.36-93.63-66.56-62.19h-292.36l66.56 62.19zm-389.71 61.54-43.98-43.99-163.09 163.06c-5.86 5.85-9.09 13.68-9.08 21.99 0 8.31 3.22 16.12 9.08 21.97l163.08 163.08 43.98-43.97-141.08-141.07zm627.57-36.71-163.03-163.1-43.97 43.99 141.01 141.09-141 141.09 43.97 43.97 163.02-163.04c5.88-5.9 9.12-13.72 9.12-22.03-.03-8.32-3.25-16.11-9.12-21.97z" fill="#fff"/></svg>