<svg xmlns="http://www.w3.org/2000/svg" width="511.875" height="511.824"><circle fill="#FFF" cx="256.252" cy="255.986" r="253.093"/><path fill="#3E5BA9" d="M455.398 412.197c33.792-43.021 53.946-97.262 53.946-156.211 0-139.779-113.313-253.093-253.093-253.093-30.406 0-59.558 5.367-86.566 15.197 102.75 53.899 238.664 229.749 285.713 394.107z"/><path fill="#9F1D20" d="M220.003 164.337c-39.481-42.533-83.695-76.312-130.523-98.715-52.907 46.389-86.321 114.47-86.321 190.364 0 63.814 23.626 122.104 62.597 166.623 34.355-103.217 98.941-202.702 154.247-258.272zm46.635 57.39c-54.792 59.051-109.392 162.422-129.152 257.794 35.419 18.857 75.84 29.559 118.766 29.559 44.132 0 85.618-11.306 121.74-31.163-20.821-96.205-60.124-184.313-111.354-256.19z"/></svg>