<svg viewBox="0 0 490.6 436.9" xmlns="http://www.w3.org/2000/svg"><g fill="#0e74ae"><path d="M490.6 218.5c0-32.5-40.7-63.3-103.1-82.4 14.4-63.6 8-114.2-20.2-130.4A43.84 43.84 0 00344.9.1v22.3a23.16 23.16 0 0111.4 2.6c13.6 7.8 19.5 37.5 14.9 75.7-1.1 9.4-2.9 19.3-5.1 29.4a484.62 484.62 0 00-63.5-10.9 487.8 487.8 0 00-41.6-50c32.6-30.3 63.2-46.9 84-46.9V0c-27.5 0-63.5 19.6-99.9 53.6C208.7 19.8 172.7.4 145.2.4v22.3c20.7 0 51.4 16.5 84 46.6a472.31 472.31 0 00-41.3 49.9 467 467 0 00-63.6 11c-2.3-10-4-19.7-5.2-29-4.7-38.2 1.1-67.9 14.6-75.8 3-1.8 6.9-2.6 11.5-2.6V.5a44.59 44.59 0 00-22.6 5.6c-28.1 16.2-34.4 66.7-19.9 130.1C40.5 155.4 0 186.1 0 218.5s40.7 63.3 103.1 82.4c-14.4 63.6-8 114.2 20.2 130.4 6.5 3.8 14.1 5.6 22.5 5.6 27.5 0 63.5-19.6 99.9-53.6 36.4 33.8 72.4 53.2 99.9 53.2a44.59 44.59 0 0022.6-5.6c28.1-16.2 34.4-66.7 19.9-130.1 62-19.1 102.5-49.9 102.5-82.3zm-130.2-66.7c-3.7 12.9-8.3 26.2-13.5 39.5-4.1-8-8.4-16-13.1-24s-9.5-15.8-14.4-23.4c14.2 2.1 27.9 4.7 41 7.9zm-45.8 106.5c-7.8 13.5-15.8 26.3-24.1 38.2-14.9 1.3-30 2-45.2 2s-30.2-.7-45-1.9q-12.45-17.85-24.2-38-11.4-19.6-20.8-39.8c6.2-13.4 13.2-26.8 20.7-39.9 7.8-13.5 15.8-26.3 24.1-38.2 14.9-1.3 30-2 45.2-2s30.2.7 45 1.9q12.45 17.85 24.2 38 11.4 19.65 20.8 39.8c-6.3 13.4-13.2 26.8-20.7 39.9zm32.3-13c5.4 13.4 10 26.8 13.8 39.8-13.1 3.2-26.9 5.9-41.2 8 4.9-7.7 9.8-15.6 14.4-23.7s8.9-16.1 13-24.1zM245.5 352a412.27 412.27 0 01-27.8-32c9 .4 18.2.7 27.5.7s18.7-.2 27.8-.7a390.33 390.33 0 01-27.5 32zm-74.4-58.9c-14.2-2.1-27.9-4.7-41-7.9 3.7-12.9 8.3-26.2 13.5-39.5 4.1 8 8.4 16 13.1 24s9.5 15.8 14.4 23.4zM245 85a412.27 412.27 0 0127.8 32c-9-.4-18.2-.7-27.5-.7s-18.7.2-27.8.7A390.33 390.33 0 01245 85zm-74 58.9c-4.9 7.7-9.8 15.6-14.4 23.7s-8.9 16-13 24c-5.4-13.4-10-26.8-13.8-39.8 13.1-3.1 26.9-5.8 41.2-7.9zM80.5 269.1c-35.4-15.1-58.3-34.9-58.3-50.6s22.9-35.6 58.3-50.6c8.6-3.7 18-7 27.7-10.1a480.28 480.28 0 0022.5 60.9 473.51 473.51 0 00-22.2 60.6c-9.9-3.1-19.3-6.5-28-10.2zM134.3 412c-13.6-7.8-19.5-37.5-14.9-75.7 1.1-9.4 2.9-19.3 5.1-29.4a484.62 484.62 0 0063.5 10.9 487.8 487.8 0 0041.6 50c-32.6 30.3-63.2 46.9-84 46.9a23.87 23.87 0 01-11.3-2.7zm237.2-76.2c4.7 38.2-1.1 67.9-14.6 75.8-3 1.8-6.9 2.6-11.5 2.6-20.7 0-51.4-16.5-84-46.6a472.31 472.31 0 0041.3-49.9 467 467 0 0063.6-11 279.94 279.94 0 015.2 29.1zm38.5-66.7c-8.6 3.7-18 7-27.7 10.1a480.28 480.28 0 00-22.5-60.9 473.51 473.51 0 0022.2-60.6c9.9 3.1 19.3 6.5 28.1 10.2 35.4 15.1 58.3 34.9 58.3 50.6s-23 35.6-58.4 50.6z"/><circle cx="245.2" cy="218.5" r="45.7"/></g></svg>