<svg fill="none" height="250" width="250" xmlns="http://www.w3.org/2000/svg" xmlns:xlink="http://www.w3.org/1999/xlink"><filter id="a" color-interpolation-filters="sRGB" filterUnits="userSpaceOnUse" height="251.674" width="249.998" x="0" y="-1.674"><feFlood flood-opacity="0" result="BackgroundImageFix"/><feBlend in="SourceGraphic" in2="BackgroundImageFix" result="shape"/><feColorMatrix in="SourceAlpha" result="hardAlpha" values="0 0 0 0 0 0 0 0 0 0 0 0 0 0 0 0 0 0 127 0"/><feOffset dy="-1.674"/><feGaussianBlur stdDeviation="1.674"/><feComposite in2="hardAlpha" k2="-1" k3="1" operator="arithmetic"/><feColorMatrix values="0 0 0 0 0 0 0 0 0 0 0 0 0 0 0 0 0 0 0.2 0"/><feBlend in2="shape" result="effect1_innerShadow"/></filter><filter id="b" color-interpolation-filters="sRGB" filterUnits="userSpaceOnUse" height="66.506" width="64.832" x="136.38" y="56.63"><feFlood flood-opacity="0" result="BackgroundImageFix"/><feColorMatrix in="SourceAlpha" values="0 0 0 0 0 0 0 0 0 0 0 0 0 0 0 0 0 0 127 0"/><feOffset dx="2.12" dy="2.12"/><feColorMatrix values="0 0 0 0 0 0 0 0 0 0 0 0 0 0 0 0 0 0 0.15 0"/><feBlend in2="BackgroundImageFix" result="effect1_dropShadow"/><feBlend in="SourceGraphic" in2="effect1_dropShadow" result="shape"/><feColorMatrix in="SourceAlpha" result="hardAlpha" values="0 0 0 0 0 0 0 0 0 0 0 0 0 0 0 0 0 0 127 0"/><feOffset dx="-3.347" dy="-5.021"/><feGaussianBlur stdDeviation="4.24"/><feComposite in2="hardAlpha" k2="-1" k3="1" operator="arithmetic"/><feColorMatrix values="0 0 0 0 0.909804 0 0 0 0 0.309804 0 0 0 0 0.309804 0 0 0 0.25 0"/><feBlend in2="shape" result="effect2_innerShadow"/></filter><filter id="c" color-interpolation-filters="sRGB" filterUnits="userSpaceOnUse" height="139.664" width="53.849" x="61.968" y="55.626"><feFlood flood-opacity="0" result="BackgroundImageFix"/><feBlend in="SourceGraphic" in2="BackgroundImageFix" result="shape"/><feColorMatrix in="SourceAlpha" result="hardAlpha" values="0 0 0 0 0 0 0 0 0 0 0 0 0 0 0 0 0 0 127 0"/><feOffset dx="-3.35" dy="-5.021"/><feGaussianBlur stdDeviation="4.24"/><feComposite in2="hardAlpha" k2="-1" k3="1" operator="arithmetic"/><feColorMatrix values="0 0 0 0 0.909804 0 0 0 0 0.309804 0 0 0 0 0.309804 0 0 0 0.25 0"/><feBlend in2="shape" result="effect1_innerShadow"/></filter><linearGradient id="d" gradientUnits="userSpaceOnUse" x1="124.999" x2="215.066" y1="0" y2="241.846"><stop offset="0" stop-color="#e84f4f"/><stop offset=".409" stop-color="#db4646"/><stop offset=".999" stop-color="#cb3939"/></linearGradient><g filter="url(#a)"><path d="m0 80.086c0-33.366 0-50.042 8.496-61.744a44.557 44.557 0 0 1 9.846-9.847c11.69-8.495 28.377-8.495 61.74-8.495h89.83c33.368 0 50.042 0 61.745 8.495a44.452 44.452 0 0 1 9.841 9.847c8.5 11.695 8.5 28.377 8.5 61.744v89.828c0 33.367 0 50.042-8.5 61.744a44.32 44.32 0 0 1 -9.841 9.841c-11.696 8.501-28.377 8.501-61.745 8.501h-89.83c-33.363 0-50.043 0-61.74-8.501a44.428 44.428 0 0 1 -9.846-9.841c-8.496-11.695-8.496-28.377-8.496-61.744z" fill="url(#d)"/></g><g filter="url(#b)"><path d="m169.41 121.016c16.393 0 29.683-13.29 29.683-29.683s-13.29-29.682-29.683-29.682-29.682 13.29-29.682 29.682c0 16.393 13.289 29.683 29.682 29.683z" fill="#fff"/></g><path d="m67.416 89.688c0-9.423 0-14.136 1.841-17.741a16.802 16.802 0 0 1 7.354-7.364c3.6-1.831 8.313-1.831 17.74-1.831l21.503-2.092 2.061 2.092v109.398c0 7.841-.569 11.366-1.851 14.455a16.823 16.823 0 0 1 -9.11 9.108c-3.091 1.282-6.445 1.68-14.284 1.68-7.841 0-11.764 0-14.854-1.282a16.816 16.816 0 0 1 -9.11-9.108c-1.282-3.091-1.282-7.014-1.282-14.853l-.008-82.463z" fill="#000" fill-opacity=".2"/><g filter="url(#c)"><path d="m65.318 87.582c0-9.422 0-14.135 1.84-17.74a16.802 16.802 0 0 1 7.355-7.364c3.6-1.831 8.313-1.831 17.74-1.831h23.564v109.398c0 7.842 0 11.765-1.282 14.854a16.823 16.823 0 0 1 -9.11 9.108c-3.091 1.282-7.014 1.282-14.853 1.282-7.842 0-11.765 0-14.854-1.282a16.817 16.817 0 0 1 -9.11-9.108c-1.282-3.091-1.282-7.014-1.282-14.854z" fill="#fff"/></g></svg>