<svg viewBox="0 0 43.4 43.4" xmlns="http://www.w3.org/2000/svg"><path d="m21.7 0a21.7 21.7 0 0 1 21.7 21.7 21.7 21.7 0 0 1 -21.7 21.7 21.7 21.7 0 0 1 -21.7-21.7 21.7 21.7 0 0 1 21.7-21.7z" fill="#0277bd"/><path d="m26.77 33.09-4.87-9.54q-.45.06-.93.09h-2.17l-1.22-.12v7.85l3.49 1.11v.63h-9.13v-.63l2.84-1.11v-19.32l-2.84-1.11v-.63h8.7a12.54 12.54 0 0 1 3.57.46 7.63 7.63 0 0 1 2.63 1.28 5.48 5.48 0 0 1 1.64 2 5.89 5.89 0 0 1 .52 2.59 6.53 6.53 0 0 1 -1.08 3.71 6.66 6.66 0 0 1 -3.17 2.46l4.5 8.77 2.27.88v.63zm-5.69-21.16h-3.46v9.93l1.19.12h1.11q6 0 6-5.13a5.06 5.06 0 0 0 -1.24-3.72 4.83 4.83 0 0 0 -3.57-1.24" fill="#ecf0f1"/></svg>