<svg height="400" width="400" xmlns="http://www.w3.org/2000/svg"><path d="m295.035 285.896h8.546c0 25.004-4.036 43.204-12.107 54.598-8.07 11.394-18.278 17.092-30.622 17.092-9.97 0-19.545-3.72-28.724-11.157-9.179-7.438-17.408-27.616-24.688-60.533l-20.415-92.105-70.74 160.471h-44.866l101.6-218.868c-5.38-28.328-11.869-49.296-19.465-62.907-7.596-13.61-17.012-20.415-28.249-20.415-9.02 0-16.854 3.403-23.5 10.208-6.647 6.805-10.446 17.487-11.395 32.047h-8.546c.475-23.264 5.143-41.859 14.006-55.785 8.862-13.927 19.94-20.97 33.234-21.128 8.545 0 16.616 3.482 24.213 10.445 7.596 6.964 14.243 18.991 19.94 36.083 5.697 17.091 14.48 52.382 26.35 105.873l16.854 75.25c6.805 31.177 13.926 51.988 21.364 62.433s16.459 15.746 27.062 15.904c17.725 0 27.774-12.502 30.148-37.506z" fill="#b151bb"/></svg>