<svg xmlns="http://www.w3.org/2000/svg" viewBox="0 0 112.19 117.98"><path d="M109.58 73.94L99.15 66.2c0-.16 0-.32.07-.48v-.19q.15-1 .26-2v-.13q.11-1.06.16-2.11v-.09q.05-1 .05-2.09v-2.24c0-.37 0-.74-.06-1.12v-.45c0-.11 0-.39-.06-.59v-1.27c-.06-.51-.13-1-.22-1.51v-.13L109.6 44a5.18 5.18 0 001.9-7.07L102.86 22a5.18 5.18 0 00-7.07-1.9l-11.94 5.2-.2-.16-.09-.08-.47-.37-.51-.4-.43-.29-.2-.15-.35-.26-.19-.14-.49-.34-.12-.11-.21-.15-.72-.48-.08-.05c-.4-.26-.79-.51-1.2-.75l-.31-.18c-.87-.51-1.75-1-2.66-1.45h-.05Q73.8 19 72 18.33h-.1l-.47-.19-1.54-12.96A5.18 5.18 0 0064.72 0H47.46a5.18 5.18 0 00-5.18 5.18L40.79 18.1l-.21.08-.24.1c-.48.18-.95.38-1.42.58l-.25.11-1.26.57-.13.06-.17.08-.46.23-1 .54-.75.4-.47.27h-.09l-.15.09q-.85.49-1.67 1l-.19.12-.19.12h-.05q-.71.47-1.39 1l-.19.14q-.77.56-1.52 1.15l-.26.21-.33.26-12-5.07A5.18 5.18 0 009.33 22L.7 37a5.18 5.18 0 001.89 7.08L13 51.8c0 .13 0 .25-.06.38l-.06.43c-.09.59-.16 1.19-.23 1.78v.35c-.05.53-.1 1.06-.13 1.59v6.93c0 .39.07.77.12 1.15q.1.85.24 1.7v.1L2.59 73.94A5.18 5.18 0 00.7 81l8.63 15a5.18 5.18 0 007.07 1.9l11.92-5.2.25.19.39.31.62.48.42.32.48.36h.05l.23.16.56.39.22.15c.65.45 1.32.88 2 1.29l.36.21q1.28.76 2.61 1.43h.09a43.8 43.8 0 004.15 1.81l1.49 12.9a5.18 5.18 0 005.21 5.3h17.26a5.18 5.18 0 005.18-5.18l1.49-12.91.22-.08.21-.09q.72-.28 1.43-.58l.28-.12 1.26-.57.12-.06.13-.06.49-.24 1-.53.77-.41.39-.22.13-.08h.07l.11-.07q.88-.51 1.74-1.07l.13-.08.27-.17c.48-.32 1-.65 1.43-1l.14-.1c.53-.39 1.06-.78 1.57-1.19l.23-.19.35-.28 11.92 5.16a5.18 5.18 0 007.07-1.9L111.48 81a5.18 5.18 0 00-1.9-7.06zM56.09 77a18 18 0 1118-18 18 18 0 01-18 18z" fill="#d14748"/></svg>
