<svg xmlns="http://www.w3.org/2000/svg" width="28" height="28"><g fill="none"><path fill="#FDB300" d="M6.097 1.833L13.972 1l7.875.833 6.097 8.199L13.972 26.29 0 10.032z"/><path fill="#EA6C00" d="M5.66 10.032l8.312 16.258L0 10.032z"/><path fill="#EA6C00" d="M22.284 10.032L13.971 26.29l13.972-16.258z"/><path fill="#FDAD00" d="M5.66 10.032h16.624L13.972 26.29z"/><path fill="#FDD231" d="M13.972 1l-7.875.833-.437 8.199z"/><path fill="#FDD231" d="M13.971 1l7.875.833.437 8.199z"/><path fill="#FDAD00" d="M27.943 10.032l-6.097-8.2.438 8.2h5.66zM0 10.032l6.097-8.2-.437 8.2H0z"/><path fill="#FEEEB7" d="M13.972 1L5.66 10.032h16.624z"/></g></svg>