<svg xmlns="http://www.w3.org/2000/svg" viewBox="0 0 179.85 176.92"><defs><style>.cls-1{fill:#e54a4a;}.cls-2{fill:#fff;}.cls-3{fill:#bfbebe;}.cls-4{fill:#231f20;}</style></defs><g id="Calque_2" data-name="Calque 2"><g id="svg2"><g id="g154"><g id="g156"><g id="g162"><g id="g164"><path id="path176" class="cls-1" d="M124.63,15A85.1,85.1,0,0,0,89.92,7.59h0a85.12,85.12,0,0,0-35,7.49h0C42.15-4.76,19.07.68,19.07.68h0c12.19,10.22,8.47,28,5.71,36.54h0A98,98,0,0,0,0,102.83H0c0,20.25,13,43.26,15.6,74.09h0l16.47-14.27S51.79,176,89.92,176h0c38.14,0,57.85-13.35,57.85-13.35h0l16.48,14.27c2.6-30.83,15.6-53.84,15.6-74.09h0a97.87,97.87,0,0,0-25.33-66.2h0c-2.73-8.76-6-26,5.9-35.95h0a34.62,34.62,0,0,0-7.2-.68h0c-7.83,0-20.33,2.25-28.59,15"/></g></g></g></g><g id="g222"><g id="g224"><g id="g302"><path id="path304" class="cls-2" d="M84.28,70.7A35.54,35.54,0,1,1,48.75,35.17,35.54,35.54,0,0,1,84.28,70.7"/></g><g id="g306"><path id="path308" class="cls-3" d="M73.45,74.18A17.34,17.34,0,1,1,56.11,56.84,17.34,17.34,0,0,1,73.45,74.18"/></g><g id="g310"><path id="path312" class="cls-4" d="M67.21,74.18a11.1,11.1,0,1,1-11.1-11.1,11.1,11.1,0,0,1,11.1,11.1"/></g><g id="g314"><path id="path316" class="cls-2" d="M54.53,70.27A3.33,3.33,0,1,1,51.2,67a3.33,3.33,0,0,1,3.33,3.32"/></g><g id="g318"><path id="path320" class="cls-2" d="M166,70.7a35.54,35.54,0,1,1-35.54-35.53A35.54,35.54,0,0,1,166,70.7"/></g><g id="g322"><path id="path324" class="cls-3" d="M155.15,74.18a17.34,17.34,0,1,1-17.34-17.34,17.35,17.35,0,0,1,17.34,17.34"/></g><g id="g326"><path id="path328" class="cls-4" d="M148.9,74.18a11.1,11.1,0,1,1-11.09-11.1,11.09,11.09,0,0,1,11.09,11.1"/></g><g id="g330"><path id="path332" class="cls-2" d="M136.22,70.27A3.32,3.32,0,1,1,132.9,67a3.32,3.32,0,0,1,3.32,3.32"/></g></g></g></g></g></svg>