<svg viewBox="0 0 338.18 302.6" xmlns="http://www.w3.org/2000/svg"><path d="m333.12 301.42c-20-38.93-57.23-29.27-76.31-19.47-1.72 1-3.48 2-5.25 3l-.42.25c-39.5 21-92.53 22.54-145.85-.38a234.64 234.64 0 0 1 -105.29-90.37 230.63 230.63 0 0 0 39.17 23.37c56.36 26.4 113 24.49 153 0-57-43.85-104.6-101-141.09-147.22a197.09 197.09 0 0 1 -18.78-25.9c43.7 40 112.7 90.22 137.48 104.12-52.57-55.49-98.89-123.94-96.72-121.74 82.79 83.42 159.18 130.59 159.18 130.59 2.88 1.58 5 2.85 6.73 4a127.43 127.43 0 0 0 4.16-12.47c13.22-48.33-1.66-103.58-35.31-149.2 76.79 46.08 122.18 133.67 103.58 207.75-.44 1.73-1 3.4-1.44 5.09 38.52 47.4 28 98.17 23.13 88.59z" fill="#e64a19"/></svg>