<svg viewBox="0 0 22.29 28" xmlns="http://www.w3.org/2000/svg"><g fill="#fbc02d"><path d="m21.86 22.21-6.72-13.45v-6.76h1v-2h-10v2h1v6.76l-6.72 13.45a4 4 0 0 0 3.58 5.79h14.3a4 4 0 0 0 3.57-5.79zm-1.86 2.79a2 2 0 0 1 -1.7 1h-14.3a2 2 0 0 1 -1.78-2.89l1.54-3.11 1-2 .44-.89.25-.49 3.55-7.17a1 1 0 0 0 .14-.45v-7h4v7a1 1 0 0 0 .11.45l3.58 7.17.69 1.38 1 2 1.55 3.11a2 2 0 0 1 -.07 1.89z"/><path d="m15.31 16.3a2.23 2.23 0 1 1 -3.92-1.84h-3.5l-4.25 8.54s-.94 1.88 1 1.93h13.07c1.93 0 1-1.93 1-1.93z"/><circle cx="13.18" cy="15.77" r="1.49"/></g></svg>