<svg xmlns="http://www.w3.org/2000/svg" viewBox="0 0 28 13.06"><g><path d="M26.64 9.13L23 4.12 25.45.91c.14-.18.2-.21.67-.26a5.26 5.26 0 01.84 0h.37V0h-3.87v.61a4.1 4.1 0 011.29.17l-2.1 2.79-2.12-3h1.17V0H17v.61h1.38L21.54 5l-2.85 3.8c-.13.17-.17.21-.67.26a7.45 7.45 0 01-.82 0h-.38v.61h.41c-.32 1.78-1 2.72-3.21 2.72h-2.23V8.34h.84c1.36 0 1.5.58 1.5 1.66h.6V6.07h-.6c0 1.06-.14 1.66-1.5 1.66h-.84V4H14c2.17 0 2.64.92 2.85 2.76h.6L17 3.39H9.91L9.65.29H.28L0 3.65h.6C.72 2.1.84.9 2.88.9H4v8.4H1.89v.61L5 9.88h3.08V9.3H5.91V.9H7C9 .9 9.18 2 9.31 3.39h-.9V4h1.51v8.45H8.41v.61h8.88l.54-3.35h2.86v-.58A4.1 4.1 0 0119.41 9l2.53-3.38 2.56 3.55h-1.19v.62h4.68v-.66z" fill="#42a5f5" data-name="Calque 1"/></g></svg>
