<svg xmlns="http://www.w3.org/2000/svg" viewBox="0 0 256 256"><path fill="#00A7F8" d="M27.5,64.8v39.1c0,4.6-1.7,8.2-5,10.8c-3.3,2.5-8,3.8-14.1,3.8V137c6.1,0,10.8,1.3,14.1,3.8s5,6.1,5,10.8,v39.2c0,11.6,3.8,20.6,11.4,26.9c7.6,6.3,18.3,9.5,32.1,9.5v-18.5c-6.6,0-11.7-1.4-15.3-4.2c-3.6-2.8-5.4-6.7-5.4-11.7v-40.1,c0-10.6-3.5-18.9-10.4-24.8c6.9-5.7,10.4-13.7,10.4-23.9V62.6c0-5,1.8-8.9,5.4-11.7c3.6-2.7,8.7-4.1,15.3-4.1V28.3,c-13.8,0-24.6,3.2-32.1,9.6C31.3,44.2,27.5,53.2,27.5,64.8z"/><path fill="#00A7F8" d="M233.5,114.7c-3.3-2.5-5-6.1-5-10.8V64.8c0-11.6-3.8-20.6-11.4-26.9c-7.6-6.4-18.3-9.6-32.1-9.6v18.5,c6.6,0,11.7,1.4,15.3,4.1c3.6,2.7,5.4,6.6,5.4,11.7V104c0,10.2,3.5,18.2,10.4,23.9c-6.9,5.9-10.4,14.2-10.4,24.8v40.1,c0,5-1.8,8.9-5.4,11.7c-3.6,2.8-8.7,4.2-15.3,4.2v18.5c13.8,0,24.5-3.2,32.1-9.5s11.4-15.3,11.4-26.9v-39.2c0-4.6,1.7-8.2,5-10.8,c3.3-2.5,8-3.8,14.1-3.8v-18.5C241.5,118.5,236.8,117.2,233.5,114.7z"/>	<path fill="#00A7F8" d="M106.6,167.6H92.4v-56.1H74.8V98.3h49.4v13.3h-17.6V167.6z"/><path fill="#00A7F8" d="M143.8,166.1c-3.6-1.6-6.4-4-8.4-7c-2-3-2.9-6.5-2.9-10.5h14.3c0,2.3,0.9,4.2,2.7,5.6c1.8,1.4,4.3,2,7.4,2,	c3,0,5.3-0.7,7-2c1.7-1.3,2.5-3.2,2.5-5.5c0-2-0.6-3.8-1.9-5.2c-1.3-1.5-3-2.4-5.3-2.9l-7-1.6c-5.9-1.4-10.5-4-13.7-7.7,	c-3.3-3.8-4.9-8.4-4.9-13.8c0-4.1,0.9-7.6,2.8-10.6c1.9-3,4.5-5.3,8-7c3.5-1.6,7.5-2.5,12.1-2.5c7.1,0,12.7,1.8,16.9,5.3,	s6.2,8.3,6.2,14.2h-14.3c0-2.2-0.8-4-2.4-5.2c-1.6-1.3-3.8-1.9-6.7-1.9c-2.7,0-4.8,0.6-6.3,1.9s-2.2,3-2.2,5.3c0,2,0.6,3.8,1.8,5.2,	c1.2,1.5,2.8,2.4,5,2.8l7.4,1.7c6.1,1.5,10.8,4,14,7.6c3.2,3.6,4.8,8.3,4.8,13.8c0,4.1-1,7.6-3,10.7c-2,3.1-4.8,5.5-8.4,7.2,	c-3.6,1.7-7.8,2.6-12.6,2.6C151.7,168.6,147.5,167.7,143.8,166.1z"/></svg>
