<svg xmlns="http://www.w3.org/2000/svg" viewBox="0 0 24.94 16.43"><g data-name="Calque 2"><path d="M20.86.15a4.42 4.42 0 012.22 1.28 5.85 5.85 0 01.85 1.14s-1.53 1.08-2.46 1.66c0 0-.17-.12-.32-.35a2 2 0 00-1.67-1c-1.08-.07-1.77.49-1.77 1.43a1.3 1.3 0 00.15.67c.24.49.68.78 2.06 1.38 2.54 1.1 3.64 1.82 4.31 2.84a5.16 5.16 0 01.42 4.33 4.76 4.76 0 01-3.93 2.82 10.9 10.9 0 01-2.71 0 6.53 6.53 0 01-3.62-1.88 6.28 6.28 0 01-.93-1.37 2.65 2.65 0 01.33-.21l1.32-.76 1-.6.21.31a4.77 4.77 0 001.35 1.29 3.3 3.3 0 003.46-.17 1.55 1.55 0 00.2-2c-.28-.4-.84-.73-2.44-1.42a8.8 8.8 0 01-3.35-2.06 4.69 4.69 0 01-1-1.78 7.12 7.12 0 01-.06-2.27A4.33 4.33 0 0118.17.06a9 9 0 012.69.09zm-8.34 1.48v1.45H7.9v13.15H4.63V3.09H0V1.66A14 14 0 010 .19h12.46z" fill="#0277bd" data-name="Calque 1"/></g></svg>