<svg xmlns="http://www.w3.org/2000/svg" viewBox="0 0 30 30"><title>vim</title><path d="M15,0a3,3,0,0,0-2.16.88l-12,12a3.08,3.08,0,0,0,0,4.32l12,12a3.08,3.08,0,0,0,4.32,0l12-12a3.08,3.08,0,0,0,0-4.32l-12-12A3,3,0,0,0,15,0Z" style="fill:#2f9e10"/><path d="M15,0a3,3,0,0,0-2.16.88l-12,12A3.06,3.06,0,0,0,0,15.5a3,3,0,0,1,.83-1.66l12-12a3.09,3.09,0,0,1,4.32,0l12,12A3,3,0,0,1,30,15.5a3.06,3.06,0,0,0-.83-2.66l-12-12A3,3,0,0,0,15,0Z" style="fill:#fff;opacity:0.20000000298023224;isolation:isolate"/><path d="M3.5,3a1.5,1.5,0,0,0,0,3H4V23a3,3,0,0,0,5.12,2.12c6.39-6.59,13.08-12.91,19.42-19.54A1.5,1.5,0,0,0,27.5,3h-7a1.5,1.5,0,0,0-.61,2.87L10,15.76V6h.5a1.5,1.5,0,0,0,0-3Z" style="fill:#e4e4e4"/><path d="M3.5,3A1.49,1.49,0,0,0,2.09,5,1.49,1.49,0,0,1,3.5,4h7a1.49,1.49,0,0,1,1.41,1A1.49,1.49,0,0,0,10.5,3Zm17,0A1.5,1.5,0,0,0,19,4.5a1.48,1.48,0,0,0,.09.5A1.49,1.49,0,0,1,20.5,4h7a1.49,1.49,0,0,1,1.41,1A1.49,1.49,0,0,0,27.5,3ZM19.33,6.42,10,15.76v1l9.89-9.89A1.5,1.5,0,0,1,19.33,6.42Z" style="fill:#fff;opacity:0.20000000298023224;isolation:isolate"/></svg>