<svg xmlns="http://www.w3.org/2000/svg" viewBox="0 0 96 95.5"><defs><linearGradient id="a" x1="48" y1="694.25" x2="48" y2="789.75" gradientTransform="translate(0 -694.25)" gradientUnits="userSpaceOnUse"><stop offset="0" stop-color="#fff"/><stop offset="1" stop-color="#fff" stop-opacity="0"/></linearGradient></defs><g data-name="Calque 2"><g data-name="Calque 1"><path d="M13.87 75.15a4 4 0 01-4.14.65l-7.27-3.05A4 4 0 010 69.08V26.42a4 4 0 012.46-3.67l7.27-3a4 4 0 014.14.65l1.63 1.35a2.21 2.21 0 00-3.5 1.8V72a2.21 2.21 0 003.5 1.8z" fill="#52218a"/><path d="M2.46 72.75A4 4 0 010 69.08v-.33a2.31 2.31 0 004 1.55L66 1.75A6 6 0 0172.82.59l19.78 9.52a6 6 0 013.4 5.41v.23a3.79 3.79 0 00-6.19-2.93L15.5 73.75l-1.63 1.4a4 4 0 01-4.14.65z" fill="#6c33af"/><path d="M2.46 22.75A4 4 0 000 26.42v.33a2.31 2.31 0 014-1.55l62 68.55a6 6 0 006.82 1.16l19.78-9.52A6 6 0 0096 80v-.23a3.79 3.79 0 01-6.19 2.93L15.5 21.75l-1.63-1.4a4 4 0 00-4.14-.6z" fill="#854cc7"/><path d="M72.82 94.91A6 6 0 0166 93.75a3.52 3.52 0 006-2.49v-87a3.52 3.52 0 00-6-2.51A6 6 0 0172.82.59L92.6 10.1a6 6 0 013.4 5.41V80a6 6 0 01-3.4 5.41z" fill="#b179f1"/><path d="M68.89 95.35a6 6 0 003.93-.44L92.6 85.4A6 6 0 0096 80V15.51a6 6 0 00-3.4-5.41L72.82.59A6 6 0 0066 1.75L34.12 37 15.5 21.75l-1.63-1.4a4 4 0 00-3.61-.83 2.55 2.55 0 00-.53.18l-7.27 3A4 4 0 000 26.12v43.26a4 4 0 002.46 3.37l7.27 3a2.55 2.55 0 00.53.18 4 4 0 003.61-.83l1.63-1.35 18.62-15.26L66 93.75a6 6 0 002.89 1.6zM72 27.43L47.21 47.75 72 68.07zM12 34l12.41 13.75L12 61.48z" fill="url(#a)" opacity=".25"/></g></g></svg>