<svg fill="none" height="490" viewBox="0 0 490 490" width="490" xmlns="http://www.w3.org/2000/svg"><g fill="#654ff0"><path d="m301.048 0v2.64077c0 14.90113-5.919 29.19193-16.456 39.72863-10.537 10.5366-24.828 16.4561-39.729 16.4561s-29.192-5.9195-39.728-16.4561c-10.537-10.5367-16.456-24.8275-16.456-39.72863 0-.91061 0-1.775689 0-2.64077h-188.679v490h490v-490zm-67.203 437.549-23.858-118.061h-.41l-25.816 118.061h-32.873l-37.244-173.472h32.464l22.219 118.061h.409l26.772-118.061h30.369l24.04 119.518h.41l25.361-119.518h31.871l-41.387 173.472zm178.753 0-11.064-38.61h-58.416l-8.514 38.61h-32.463l41.979-173.472h51.222l51.04 173.472z"/><path d="m363.653 306.831-14.16 63.651h44.073l-16.254-63.651z"/></g></svg>