<svg width="16" height="16" viewBox="0 0 16 16" fill="none" xmlns="http://www.w3.org/2000/svg">
<g id="&#229;&#155;&#190;&#229;&#177;&#130;_1">
<path id="Vector" d="M5.13723 9.81899L4.58941 9.27118L5.73035 8.13962L4.83316 7.24306L4.58691 6.99587L5.13723 6.44556L6.55691 7.86524C6.59317 7.90127 6.62195 7.94412 6.64158 7.99132C6.66121 8.03851 6.6713 8.08913 6.67129 8.14024C6.67143 8.1912 6.66148 8.24168 6.64201 8.28878C6.62254 8.33587 6.59394 8.37864 6.55785 8.41462L6.55598 8.41649L6.2816 8.68931L5.14316 9.81837L5.13723 9.81899ZM9.86473 9.81899H7.9841V9.05118H9.86473V9.81899ZM12.4466 9.04368V8.27587H13.2129V8.34556C13.2129 8.57847 13.2102 8.81087 13.205 9.04274L12.4466 9.04368Z" fill="#FF7B00"/>
<path id="Vector_2" d="M15.9998 5.26709C15.9998 5.30522 15.9998 5.34272 15.9964 5.38115C15.993 5.4483 15.9856 5.51519 15.9742 5.58147C15.8971 6.06032 15.6451 6.49356 15.267 6.79741C15.2655 6.79741 15.2627 6.79991 15.2611 6.80178C15.1708 6.86709 15.0786 6.92959 14.9823 6.98928C14.979 6.99149 14.9756 6.99348 14.972 6.99522C14.4755 7.298 13.9202 7.49136 13.343 7.5624C13.2995 7.5674 13.2552 7.5724 13.2108 7.57584C13.0858 7.58772 12.9591 7.59365 12.8308 7.59365C12.7005 7.59365 12.5711 7.58772 12.4439 7.57584C12.4399 7.17709 12.4317 6.77918 12.4192 6.38209C12.4177 6.33272 12.4158 6.28334 12.4152 6.23459C12.4048 5.9424 12.393 5.65084 12.3777 5.35959C12.3781 5.35273 12.3781 5.34583 12.3777 5.33897C12.3751 5.31369 12.3675 5.28916 12.3555 5.26678C12.3406 5.23897 12.3194 5.21511 12.2934 5.19717C12.2675 5.17924 12.2377 5.16775 12.2064 5.16366C12.1982 5.16256 12.19 5.16194 12.1817 5.16178C12.1467 5.15834 12.1117 5.15584 12.077 5.15334C11.8245 5.13563 11.5722 5.11886 11.3202 5.10303C10.5518 5.05803 9.78099 5.02855 9.00766 5.01459C8.75308 5.00938 8.49797 5.00647 8.24235 5.00584C8.16735 5.00584 8.09672 5.00584 8.02172 5.00584C7.83922 5.00584 7.65797 5.00584 7.47641 5.00834C7.3161 5.0099 7.15516 5.01241 6.99485 5.01522C6.88766 5.01678 6.78016 5.01928 6.67297 5.02272C6.00297 5.03813 5.33568 5.06626 4.6711 5.10709C4.42235 5.12147 4.17412 5.13824 3.92641 5.1574C3.88985 5.1599 3.85422 5.1624 3.81735 5.16584C3.80878 5.16601 3.80022 5.16664 3.79172 5.16772C3.76107 5.17155 3.73175 5.18258 3.70617 5.19991C3.68059 5.21723 3.65947 5.24036 3.64453 5.2674C3.63257 5.28934 3.62474 5.31327 3.62141 5.33803C3.62141 5.34647 3.62141 5.35428 3.61985 5.36272V5.36678C3.60506 5.65053 3.59308 5.93459 3.58391 6.21897C3.58391 6.27428 3.58047 6.33053 3.57891 6.38615C3.56599 6.78199 3.55776 7.17845 3.55422 7.57553C3.55235 7.68647 3.55235 7.79803 3.55172 7.90959C3.55172 7.98365 3.55172 8.05772 3.55172 8.13116C3.55172 8.76511 3.56214 9.3974 3.58297 10.028C3.59235 10.3133 3.60453 10.599 3.61891 10.8833C3.61891 10.8912 3.61891 10.8987 3.61891 10.9065C3.62428 10.9506 3.64423 10.9916 3.67559 11.0231C3.70696 11.0546 3.74794 11.0747 3.79203 11.0802H3.80141H3.81516C4.10141 11.103 4.38672 11.1227 4.67391 11.1399C5.33766 11.1816 6.00349 11.2105 6.67141 11.2268C6.93891 11.2333 7.20641 11.2387 7.47485 11.2412C7.60422 11.2427 7.73485 11.2437 7.86422 11.2446C7.90516 11.2446 7.94516 11.2446 7.98422 11.2446H8.08578C9.17058 11.2446 10.2505 11.2133 11.3255 11.1508C11.6102 11.1346 11.8939 11.1149 12.1767 11.0946H12.1811C12.1925 11.0947 12.204 11.0936 12.2152 11.0912C12.2171 11.0916 12.2191 11.0916 12.2211 11.0912C12.2607 11.0834 12.2969 11.0636 12.3248 11.0345C12.3528 11.0055 12.3711 10.9685 12.3773 10.9287V10.9268C12.3792 10.9172 12.3802 10.9075 12.3802 10.8977V10.8883C12.3945 10.6004 12.4064 10.3116 12.4158 10.0218C12.4227 9.83709 12.4277 9.65209 12.432 9.46709H13.1989C13.1877 9.95209 13.1402 11.0255 13.1392 11.0296C13.1177 11.2156 13.0402 11.3907 12.9169 11.5316C12.7936 11.6725 12.6304 11.7726 12.4489 11.8187C12.4078 11.8289 12.366 11.8363 12.3239 11.8408V11.8424C10.8154 11.9599 9.2912 12.0162 7.75141 12.0112C7.66016 12.0112 7.56828 12.0112 7.47703 12.0096C7.2086 12.0068 6.9411 12.0027 6.6736 11.9958C5.69443 11.9738 4.72099 11.9257 3.75328 11.8518H3.77703C3.76912 11.8522 3.76119 11.8522 3.75328 11.8518C3.72766 11.8518 3.70141 11.8483 3.67578 11.8468C3.67148 11.8466 3.6672 11.846 3.66297 11.8452C3.62536 11.8409 3.58809 11.834 3.55141 11.8246C3.36779 11.7783 3.20287 11.6766 3.07908 11.5333C2.95529 11.39 2.87863 11.2121 2.85953 11.0237C2.85908 11.022 2.85908 11.0203 2.85953 11.0187C2.86 11.0118 2.86 11.0049 2.85953 10.998C2.85953 10.9758 2.85953 10.953 2.8561 10.9299C2.80672 9.92865 2.7837 8.92095 2.78703 7.90678C2.78703 7.79584 2.78703 7.68616 2.78985 7.57522C2.74641 7.57178 2.70266 7.56678 2.66016 7.56178C2.08309 7.4903 1.52791 7.29651 1.03172 6.99334C1.02422 6.9899 1.01735 6.98491 1.00953 6.98053C1.00953 6.98053 1.00953 6.98053 1.00703 6.97866C0.920158 6.92584 0.835784 6.86897 0.753909 6.80928C0.753909 6.80928 0.753908 6.80928 0.751408 6.8074C0.36797 6.50522 0.111558 6.07044 0.0326585 5.58865C0.0207863 5.51989 0.0128563 5.45051 0.00890815 5.38084C0.00640815 5.3424 0.0054711 5.3049 0.0054711 5.26678C0.00392127 5.11392 0.0203892 4.96141 0.0545338 4.8124C0.112246 4.56653 0.217562 4.33435 0.364533 4.12897C0.381721 4.10491 0.398596 4.08115 0.417346 4.05803C0.424221 4.04865 0.431096 4.04022 0.438596 4.03084C0.46746 4.00254 0.506294 3.98671 0.546721 3.98678C0.58569 3.98669 0.623232 4.00143 0.651729 4.02802C0.680225 4.0546 0.697539 4.09102 0.700158 4.1299C0.700647 4.13353 0.700647 4.13721 0.700158 4.14084C0.701429 4.33719 0.749078 4.53046 0.839221 4.7049C0.967762 4.95299 1.17554 5.15098 1.42953 5.2674C1.5289 5.3134 1.63401 5.34578 1.74203 5.36365C1.81129 5.37563 1.88144 5.38159 1.95172 5.38147H2.84891C2.84891 5.34303 2.85235 5.3049 2.85485 5.2674H2.85641C2.85657 5.2605 2.85719 5.2536 2.85828 5.24678C2.87526 5.03677 2.96398 4.839 3.10954 4.68666C3.2551 4.53433 3.44864 4.43672 3.65766 4.41022C3.66269 4.40911 3.66782 4.40849 3.67297 4.40834C3.67545 4.40788 3.67799 4.40788 3.68047 4.40834C3.69578 4.40834 3.71172 4.40584 3.72735 4.40491C3.73276 4.40458 3.73818 4.40458 3.7436 4.40491C3.74754 4.40445 3.75153 4.40445 3.75547 4.40491C4.71922 4.33074 5.69068 4.28157 6.66985 4.25741C6.85214 4.25345 7.03474 4.25011 7.21766 4.2474C7.30297 4.24553 7.38797 4.24459 7.47328 4.24397C7.72974 4.24209 7.9862 4.24147 8.24266 4.24209C8.42183 4.24209 8.60047 4.24386 8.7786 4.2474C9.94172 4.26261 11.0955 4.31397 12.2398 4.40147C12.2418 4.40099 12.2438 4.40099 12.2458 4.40147C12.25 4.40099 12.2543 4.40099 12.2586 4.40147H12.2714C12.2886 4.40147 12.3045 4.40397 12.3208 4.40584H12.3302C12.53 4.43012 12.7166 4.51873 12.8616 4.6583C13.0067 4.79787 13.1025 4.98083 13.1345 5.17959C13.135 5.18154 13.135 5.18358 13.1345 5.18553C13.1345 5.20428 13.1364 5.22303 13.137 5.24272C13.1372 5.25097 13.1379 5.25921 13.1389 5.2674C13.1389 5.3049 13.1423 5.34303 13.1439 5.38147H14.0114C14.0223 5.38147 14.0327 5.38147 14.0427 5.38147C14.0527 5.38147 14.0639 5.38147 14.0739 5.38147C14.14 5.38031 14.2059 5.37352 14.2708 5.36115C14.3723 5.34244 14.471 5.31094 14.5645 5.2674C14.8196 5.14994 15.0276 4.95004 15.1552 4.6999C15.244 4.5265 15.2909 4.33472 15.2923 4.1399C15.2919 4.13648 15.2919 4.13301 15.2923 4.12959C15.2947 4.09055 15.3119 4.05388 15.3404 4.02713C15.369 4.00039 15.4067 3.98561 15.4458 3.98584C15.466 3.98576 15.4861 3.98969 15.5048 3.99742C15.5235 4.00514 15.5405 4.0165 15.5548 4.03084C15.5618 4.03832 15.568 4.04637 15.5736 4.0549L15.5752 4.05647C15.5948 4.08022 15.6127 4.1049 15.6298 4.12959C15.7757 4.33292 15.8804 4.56273 15.9383 4.80615C15.9774 4.95674 15.9981 5.11152 15.9998 5.26709Z" fill="#FF7B00"/>
</g>
</svg>
