<svg height="2369" width="2202" xmlns="http://www.w3.org/2000/svg"><path d="m1456.38 1813.02c0 39.77-9.13 78.57-14.18 117.36-4.24 34.07-.82 37.98 33.74 31.95 77.75-13.36 148.01-46.13 215.82-84.6 72.53-41.4 141.65-88.51 219.24-119.48 59.98-24.12 121.27-40.1 186.47-40.1 56.57 0 95.85 30.65 102.7 79.06 6.52 44.82-18.1 87.69-63.09 97.15-128.61 27.22-239.61 90.63-347.85 161.05-145.07 93.72-303.02 161.37-467.49 213.21-6.04 1.79-13.86 3.09-17.77 6.84-38.8 41.08-90.14 47.93-141.98 54.77-145.4 19.07-291.78 27.55-438.48 36.19-42.22 2.61-84.6 3.91-126.82-4.24-67.32-13.36-95.85-38.47-106.11-93.73-9.13-49.71 14.18-96.66 63.89-129.1 5.22-3.42 10.76-6.84 19.07-12.06-26.73-16.46-48.73-35.86-65.52-59.98-8.15-11.25-12.55-4.24-15.16 5.21-8.15 31.14-16.47 62.6-24.62 93.73-5.54 20.7-12.55 41.08-21.19 60.8-25.1 57.38-70.74 85.09-131.22 90.63-61.77 5.54-119.97-8.15-175.22-35.37-37.99-18.58-49.23-46.62-36.68-87.7 6.52-22 19.07-41.07 34.07-64.38-52.16 10.43-75.15-19.89-93.24-56.57-40.59-80.36-54.45-165.28-37.98-253.31 13.36-69.92 54.44-126.81 103.67-176.04 28.85-28.85 37.49-56.56 36.68-97.15-6.52-234.4 81.99-426.91 264.23-575.73 15.97-13.37 31.94-27.22 48.73-39.29 10.44-7.33 11.58-12.06 3.1-22.82-47.11-59.17-83.78-123.39-100.57-198.05-19.07-84.11 9.45-157.13 51.83-227.06 6.03-9.46 15.49-14.18 25.92-18.1 53.14-19.07 97.97-47.92 138.55-88.51 91.45-91.44 204.57-133.34 334-127.79 16.46.81 23.8-3.92 28.85-19.4 19.4-56.56 43.52-111.01 75.96-161.38 12.06-19.07 25.43-36.67 42.71-50.85 31.95-26.41 59.17-22.5 80.69 12.55 39.77 63.41 70.41 131.71 101.39 199.84 7.82 17.28 13.85 23.31 31.94 11.58 21.19-13.37 44.83-22.83 68.63-31.14 19.07-6.52 30.15-2.12 38.47 17.77 24.12 58.19 37.16 119.15 44.5 181.75 2.12 17.28 6.03 34.07 3.91 51.35-1.3 37.49.49 75.14.82 113.12 0 16.79-6.04 33.74-.82 50.86-3.91 102.69-31.13 199.84-70.74 293.89-37.17 88.03-91.12 166.11-145.08 244.35-21.19 30.15-20.7 30.64 6.85 55.26 134.64 121.27 208.97 273.68 233.91 451.52.82 6.85.49 14.18.49 21.52-5.54 16.46.49 32.43.81 48.41 1.47 24.29-4.07 48.57.17 72.21z" fill="#3398c2"/></svg>