<svg xmlns="http://www.w3.org/2000/svg" viewBox="0 0 159.84 45.41"><g fill="#e94539"><path class="cls-1" d="M15.18,43.86V23.7L0,1.38H12.25l8.87,13.44L30.91,1.38H41.66L25.28,23.29V43.86Z"/><path class="cls-1" d="M33.46,43.86,55.11.06h.64l21.18,43.8H66.33l-2.7-6.18H46.41l-2.76,6.18ZM49.34,30.35H60.5L55,17.05Z"/><path class="cls-1" d="M76.64,43.86,85.46,0h.73l16,27.66L117.33,0h.77L127,43.86h-9.64l-3.6-19.4-11.4,20.95h-.67L89.41,24.17,85.69,43.86Z"/><path class="cls-1" d="M133.15,43.86V1.38h10.14V34.75h16.55v9.11Z"/></g></svg>
