<svg viewBox="0 0 430.38 516.38" xmlns="http://www.w3.org/2000/svg"><g fill="#f4bf75"><path d="m339.77 0h-90.61v19.13h-22.65v19.12h22.65v19.13h-22.65v19.12h22.65v19.13h-22.65v19.13h22.65v19.13h-22.65v19.11h22.65v19.13h-22.65v19.13h22.65v19.13h-22.65v19.11h22.65v19.13h-22.65v38.25c24.92 3.83 45.3 23 45.3 47.81 0 26.77-24.92 47.81-56.63 47.81s-56.63-21-56.63-47.81c0-23 20.39-42.08 45.3-47.81v-19.13h-22.64v-19.12h22.65v-19.13h-22.65v-19.12h22.65v-19.13h-22.65v-19.12h22.65v-19.13h-22.65v-19.12h22.65v-19.13h-22.65v-19.12h22.65v-19.13h-22.65v-19.12h22.65v-19.13h-22.65v-19.12h22.65v-19.13h-113.25c-49.84 0-90.61 34.42-90.61 76.5v363.38c0 42.08 40.77 76.5 90.61 76.5h249.16c49.83 0 90.61-34.42 90.61-76.5v-363.38c0-42.08-40.78-76.5-90.61-76.5z"/><path d="m181.21 334.69c0 15.3 15.86 28.69 34 28.69s34-13.39 34-28.69-15.9-28.69-34.02-28.69-33.98 13.39-33.98 28.69z"/></g></svg>