<svg xmlns="http://www.w3.org/2000/svg" viewBox="0 0 260.93 208.43"><path d="M234.88 20.9H130.66L104.21 0H26.05A25.94 25.94 0 00.13 26.05L0 182.38a26 26 0 0026.05 26.05h208.43a26 26 0 0026.05-26.05l.4-135.43a26 26 0 00-26.05-26.05zM225 114.28v-2.55c0-.47 0-.94-.08-1.41v-.56c0-.13-.05-.5-.07-.75v-1.59c-.08-.64-.17-1.28-.27-1.91v-.17l10.51-7.8-.1 33.71-10.41-7.73c0-.2.06-.4.09-.6s0-.17 0-.25q.19-1.28.32-2.56V120q.13-1.33.2-2.67v-.12q.06-1.32.07-2.64v-.13c0-.04-.26-.11-.26-.16zm9.83-36.34l-5.93-10.2a6.54 6.54 0 00-8.9-2.39l-15.1 6.53-.26-.2-.12-.09-.59-.46-.65-.5-.54-.4-.25-.19-.44-.33-.24-.18-.62-.43-.19-.1-.27-.18-.91-.61-.1-.07c-.5-.32-1-.64-1.51-.95l-.39-.23c-1.1-.65-2.21-1.26-3.35-1.83h-.07q-2.22-1.11-4.55-2l-.13-.05-.59-.24L187.3 47h47.55zm-64.94 59.24a22.75 22.75 0 1122.75-22.75 22.75 22.75 0 01-22.8 22.74zM26.45 46.95h125.89l-1.83 15.84-.26.1-.31.12c-.6.23-1.2.47-1.79.73l-.32.14-1.6.72-.17.08-.21.1-.58.29-1.32.68-.95.51-.59.34-.11.06-.19.11q-1.07.62-2.11 1.29l-.24.15-.24.16h-.07q-.89.59-1.76 1.21l-.24.18q-1 .7-1.92 1.45l-.33.26-.42.33-15.05-6.52a6.54 6.54 0 00-8.93 2.39L99.88 86.63a6.54 6.54 0 002.39 8.94l13.17 9.78c0 .16 0 .32-.07.47l-.08.54c-.11.75-.21 1.5-.29 2.25v.44c-.07.67-.12 1.34-.16 2v.78q-.05 1.15-.06 2.29v2.15c0 .31 0 .81.06 1.21s0 .68.06 1v.65c0 .16 0 .43.06.65 0 .49.09 1 .15 1.45q.13 1.08.31 2.14v.13l-13.17 9.78a6.54 6.54 0 00-2.39 8.93l10.9 18.88a6.54 6.54 0 008.93 2.39l15.08-6.48.32.24h.06l.49.39.78.6.46.34.6.45h.06l.29.21.71.49h.06l.28.19c.83.56 1.67 1.11 2.53 1.63l.45.26q1.62 1 3.3 1.8l.11.06a55.34 55.34 0 005.24 2.29l1.88 16.29H26.05zm160.82 135.43l1.88-16.29.27-.11.27-.11q.91-.35 1.81-.73l.35-.15c.53-.23 1.06-.47 1.59-.72l.15-.07.17-.08.61-.3 1.29-.67 1-.52.49-.28.16-.1h.08l.14-.08q1.11-.65 2.2-1.34l.16-.1.34-.22c.61-.4 1.21-.82 1.81-1.25l.17-.13c.67-.49 1.33-1 2-1.51l.26-.21.44-.35 15.09 6.45a6.54 6.54 0 008.93-2.39l5.69-9.85-.09 31.11z" fill="#40a049"/></svg>
