<svg viewBox="0 0 260.73 208.59" xmlns="http://www.w3.org/2000/svg"><g fill="#40a049"><circle cx="169.74" cy="114.5" r="22.75"/><path d="m234.66 20.91h-104.29c.74 0-25.8-20.91-26.07-20.91h-78.23a26 26 0 0 0 -25.94 26.07l-.13 156.44a26.06 26.06 0 0 0 26.07 26.07h208.59a26.06 26.06 0 0 0 26.07-26.07v-135.51a26.07 26.07 0 0 0 -26.07-26.09zm-10.52 84.68c.1.63.19 1.27.27 1.91v1.59c0 .25.05.5.07.75s0 .28 0 .41v.15c0 .47.05.94.08 1.41v2.83q0 1.32-.07 2.64v.12q-.07 1.34-.2 2.67v.13q-.13 1.28-.32 2.56v.25c0 .09-.06.4-.09.6l13.17 9.78a6.54 6.54 0 0 1 2.4 8.93l-10.9 18.88a6.54 6.54 0 0 1 -8.93 2.39l-15.05-6.51-.44.35-.26.21c-.65.52-1.31 1-2 1.51l-.17.13c-.6.43-1.2.85-1.81 1.25l-.34.22-.16.1q-1.08.7-2.2 1.34l-.14.08h-.08l-.16.1-.49.28-1 .52-1.29.67-.61.3-.17.08-.15.07c-.52.25-1.05.48-1.59.72l-.35.15q-.9.38-1.81.73l-.27.11-.27.11-1.89 16.3a6.54 6.54 0 0 1 -6.54 6.54h-21.8a6.54 6.54 0 0 1 -6.54-6.54l-1.88-16.3a55.34 55.34 0 0 1 -5.24-2.29l-.11-.06q-1.68-.85-3.3-1.8l-.45-.26c-.86-.52-1.7-1.06-2.53-1.63l-.28-.19h-.06l-.71-.49-.29-.21h-.06l-.6-.45-.46-.34-.78-.6-.49-.39h-.06l-.32-.24-15.05 6.51a6.54 6.54 0 0 1 -8.93-2.39l-10.9-18.88a6.54 6.54 0 0 1 2.39-8.93l13.17-9.78v-.12q-.18-1.07-.31-2.14c-.06-.48-.11-1-.15-1.45 0-.21 0-.43-.06-.65s0-.33 0-.5v-.15c0-.34 0-.68-.06-1s0-.81-.06-1.21 0-.63 0-.94v-1.21q0-1.14.06-2.29v-.78c0-.67.1-1.34.16-2v-.44c.08-.75.18-1.5.29-2.25l.08-.54c0-.16 0-.32.07-.47l-13.17-9.78a6.54 6.54 0 0 1 -2.39-8.94l10.9-18.87a6.54 6.54 0 0 1 8.93-2.39l15.28 6.43.42-.33.33-.26q.94-.75 1.92-1.45l.24-.18q.87-.62 1.76-1.21h.07l.24-.16.24-.15q1-.67 2.11-1.29l.19-.11.11-.06.59-.34.95-.51 1.32-.68.58-.29.21-.1.17-.08 1.6-.72.32-.14c.59-.25 1.19-.5 1.79-.73l.31-.12.26-.1 1.89-16.32a6.54 6.54 0 0 1 6.55-6.67h21.79a6.54 6.54 0 0 1 6.54 6.54l1.89 16.32.59.24.13.05q2.33.91 4.55 2h.07c1.14.57 2.26 1.18 3.35 1.83l.39.23c.51.31 1 .63 1.51.95l.1.07.91.61.27.18.16.11.62.43.24.18.44.33.25.19.54.4.65.5.59.46.12.09.26.2 15.07-6.53a6.54 6.54 0 0 1 8.93 2.39l10.9 18.93a6.54 6.54 0 0 1 -2.39 8.93l-13.19 9.79c.01.06.02.11.02.17z"/></g></svg>
