<svg xmlns="http://www.w3.org/2000/svg" viewBox="0 0 612 490.05"><title>folder-bench-outline</title><path d="M547.81,50.4H306L243,0H64.19A64.19,64.19,0,0,0,0,64.19V425.86A64.19,64.19,0,0,0,64.19,490H547.81A64.19,64.19,0,0,0,612,425.86V114.59A64.19,64.19,0,0,0,547.81,50.4ZM61,427.9V110.4H549v78.19a19.34,19.34,0,0,0-12.17,6.31L403.59,343.72,295.73,246.84a19.36,19.36,0,0,0-27.35,1.38l-.11.12L122.06,411.45a19.39,19.39,0,0,0-4.63,16.45Zm98.52,0L284.24,288.58l107.87,96.88a19.36,19.36,0,0,0,27.35-1.38l.11-.12L549,239.57V427.9Z" style="fill:#8e95b2"/></svg>