<svg xmlns="http://www.w3.org/2000/svg" viewBox="0 0 612 490.05"><title>folder-bench</title><path d="M547.81,50.4H306L243,0H64.19A64.19,64.19,0,0,0,0,64.19V425.86A64.19,64.19,0,0,0,64.19,490H547.81A64.19,64.19,0,0,0,612,425.86V114.59A64.19,64.19,0,0,0,547.81,50.4Zm18,170.45L419.56,384l-.11.12a19.36,19.36,0,0,1-27.35,1.38L284.24,288.58,151,437.4a19.44,19.44,0,0,1-29-26L268.28,248.34l.11-.12a19.36,19.36,0,0,1,27.35-1.38l107.87,96.88L536.83,194.9a19.44,19.44,0,0,1,29,26Z" style="fill:#8e95b2"/></svg>