<svg viewBox="0 0 260.73 208.59" xmlns="http://www.w3.org/2000/svg"><g fill="#f4bf75"><path d="m150.89 80.16a7.82 7.82 0 0 0 -7.51 8.12v.11a7.77 7.77 0 0 0 7.8 7.75h.25a7.72 7.72 0 0 0 7.57-7.85v-.62a7.82 7.82 0 0 0 -8.11-7.51zm36.81 15.29c-2.19.51-4.27 1.13-6.4 1.45-2.52.38-5.06.49-7.18-1.41 3.87.27 7.72.33 11.37-1.31a17.44 17.44 0 0 1 10.58-1c2.4.46 4.73 1 7.17 1.53a23.57 23.57 0 0 0 -3.55-3.11c-6.11-4.42-12.75-7.53-20.39-8.07-.67 0-1.68 0-2 .43a16.63 16.63 0 0 0 -3.65 10.88 14.6 14.6 0 0 0 1.41 7.58l12.75-5.77z"/><path d="m234.66 20.91h-104.29c.74 0-25.8-20.91-26.07-20.91h-78.23a26 26 0 0 0 -25.94 26.07l-.13 156.44a26.06 26.06 0 0 0 26.07 26.07h208.59a26.06 26.06 0 0 0 26.07-26.07v-135.51a26.07 26.07 0 0 0 -26.07-26.09zm8.34 109.16a5.47 5.47 0 0 1 -.23 1.45 9.46 9.46 0 0 1 -3.05 5.29 13.11 13.11 0 0 1 -7.3 2.62c.56 3.38-1.24 5.56-3.91 7a15.55 15.55 0 0 1 -5.38 2 65.28 65.28 0 0 1 -8 .09c-2 3.73-5.54 4.54-9.28 4.81a15.55 15.55 0 0 1 -10.29-3 6.08 6.08 0 0 1 -5.22 2.91 20.9 20.9 0 0 1 -11.07-2.14l-.46-.18.21.47c2.37 4.38 4.88 8.7 7.07 13.17a11.11 11.11 0 0 1 .82 5 5.83 5.83 0 0 1 -4.34 5.88 7.85 7.85 0 0 1 -3.65 5.85 12.17 12.17 0 0 1 -8.25 2c-.51-.06-1.34 0-1.52.27-1.51 2.08-3.7 2.87-6 4.09h-3.27c-2 0-3.84-2.91-6.17-1.16-.34.27-.95-.15-1.44-.15-2.59.17-6.8-1.35-8-5s-2.71-7.2-4.11-10.85l-.27.47q-.14.3-.3.59a12.07 12.07 0 0 1 -16.33 4.95 28.31 28.31 0 0 1 -8.92-6.92c-16.57-19.23-23.47-41.2-18.9-66.35a58.21 58.21 0 0 1 45.76-46.4 28.47 28.47 0 0 1 5.88-.52h8.92c.15 0 .28-.3.44-.3 2.94.78 6 .61 8.73 1.75 9.32 4 15 11.29 18.35 20.68.17.44.46 1.11.83 1.22 2 .61 4 1.07 6.08 1.59l.19-.21c5.66-11 14.73-17.34 26.76-19.54a19.73 19.73 0 0 1 9.55.54c-.29.35-.47.58-.67.8-4.05 4.42-7.23 9.28-8.13 15.36-.28 2-.63 3.91-1 5.85-1 5.35-2.82 10.32-6.92 14.14-5.18 4.89-11.72 6.07-18.56 6-.39 0-.91-.5-1.12-.9-.56-1.08-1-2.24-1.47-3.33-4.59 1-5.95 2.26-6.41 6.08 1.36.17 2.71.35 4.09.51a330.44 330.44 0 0 1 35.26 5.7 66.14 66.14 0 0 1 16 5.27 9 9 0 0 1 4.87 6.47h-.06a8.34 8.34 0 0 1 .24 1.9z"/></g></svg>