<svg xmlns="http://www.w3.org/2000/svg" viewBox="0 0 260.93 208.43"><path d="M234.88 20.9H130.66L104.21 0H26.05A25.94 25.94 0 00.13 26.05L0 182.38a26 26 0 0026.05 26.05h208.43a26 26 0 0026.05-26.05l.4-135.43a26 26 0 00-26.05-26.05zM26.45 46.95h208.43l-.2 69a66.13 66.13 0 00-12.55-3.77 330.44 330.44 0 00-35.28-5.73c-1.37-.16-2.72-.34-4.09-.51.46-3.82 1.82-5.1 6.41-6.08.47 1.09.91 2.25 1.47 3.33.21.4.73.9 1.12.9 6.85.1 13.38-1.08 18.56-6 4.1-3.82 5.92-8.78 6.92-14.14.36-1.95.72-3.89 1-5.85.9-6.08 4.08-10.95 8.13-15.36.19-.22.38-.45.67-.8a19.73 19.73 0 00-9.55-.54c-12 2.2-21.11 8.52-26.76 19.54l-.19.21c-2.06-.52-4.11-1-6.08-1.59-.36-.11-.66-.78-.83-1.22-3.31-9.39-9-16.7-18.35-20.68-2.69-1.14-5.79-1-8.73-1.75-.16 0-.29.3-.44.3h-8.93a28.47 28.47 0 00-5.88.52 58.21 58.21 0 00-45.83 46.46c-4.56 25.15 2.34 47.12 18.9 66.35a28.31 28.31 0 008.92 6.92 12.07 12.07 0 0016.33-4.95q.16-.29.3-.59l.27-.47c1.4 3.65 2.91 7.2 4.11 10.85a6.21 6.21 0 00.47 1.05H26.05zm117 41.37v-.11a7.82 7.82 0 1115.63-.62v.62a7.72 7.72 0 01-7.59 7.86h-.25a7.77 7.77 0 01-7.76-7.75zm30.28 6.46a16.63 16.63 0 013.65-10.88c.32-.41 1.33-.47 2-.43 7.64.54 14.28 3.65 20.39 8.07a23.57 23.57 0 013.55 3.11c-2.43-.51-4.77-1.07-7.17-1.53a17.44 17.44 0 00-10.58 1c-3.65 1.64-7.51 1.58-11.37 1.31 2.12 1.9 4.66 1.79 7.18 1.41 2.13-.32 4.21-.94 6.4-1.45l.12 1.22-12.75 5.77a14.6 14.6 0 01-1.39-7.6zm3.08 87.6a12.15 12.15 0 002.13-1.15 7.85 7.85 0 003.65-5.85 5.83 5.83 0 004.41-5.88 11.11 11.11 0 00-.82-5c-2.19-4.48-4.7-8.8-7.07-13.17l-.21-.47.46.18a20.9 20.9 0 0011.07 2.14 6.08 6.08 0 005.22-2.91 15.55 15.55 0 0010.29 3c3.75-.27 7.3-1.07 9.28-4.81a65.28 65.28 0 008-.09 15.55 15.55 0 005.38-2c2.66-1.47 4.46-3.65 3.91-7a13.11 13.11 0 002.09-.27l-.13 43.29z" fill="#f4bf75" data-name="Calque 2"/></svg>