<svg xmlns="http://www.w3.org/2000/svg" viewBox="0 0 260.73 208.58"><defs><style>.cls-1{fill:#6bb96c;}</style></defs><g id="Calque_2" data-name="Calque 2"><g id="folder-i18n"><path class="cls-1" d="M200,142.55,186.13,85h-20l24,77a36.79,36.79,0,0,1-3.48,3.46c-3.18,2.33-8.1,3.77-14.75,4.65l2,13.59c10.13-.87,18.23-3.47,24.3-8.4s10.43-11.57,13.32-20.54L234.16,85H214.78Z"/><path class="cls-1" d="M143.31,97.12a18.37,18.37,0,0,1,6.95,1.16,31.36,31.36,0,0,1,6.65,3.76l8.11-11a37.38,37.38,0,0,0-10.71-6.37,33.15,33.15,0,0,0-12.44-2c-6.66,0-12.73,1.45-17.65,4.63a30.67,30.67,0,0,0-11.59,13.31,45.65,45.65,0,0,0-4,19.38,44.64,44.64,0,0,0,4,19.39,29.05,29.05,0,0,0,11.58,12.73,35.8,35.8,0,0,0,17.93,4.34,34.54,34.54,0,0,0,22.86-8.1l-8.11-11.57a59.1,59.1,0,0,1-7.23,3.76,17.06,17.06,0,0,1-6.65,1.16c-4.92,0-8.39-1.46-11-4.92h0c-2.32-3.47-3.76-9-3.48-16.79C128.56,104.64,133.48,97.12,143.31,97.12Z"/><path class="cls-1" d="M234.68,20.91H130.37c.74,0-25.8-20.91-26.07-20.91H26.07A26,26,0,0,0,.13,26.06h0L0,182.51a26.06,26.06,0,0,0,26.05,26.07H234.66a26.06,26.06,0,0,0,26.07-26.05V47A26.07,26.07,0,0,0,234.68,20.91ZM169.36,199.26h-.11a79.63,79.63,0,1,1,.11,0Z"/></g></g></svg>