<svg xmlns="http://www.w3.org/2000/svg" viewBox="0 0 260.93 208.43"><path fill="#dba710" d="M235,20.9H130.66L104.21,0H26.05A25.94,25.94,0,0,0,.13,26v.09L0,182.38a26,26,0,0,0,26,26.05H234.48a26,26,0,0,0,26-26v-.1L260.93,47A26,26,0,0,0,235,20.9Zm-.1,161.48H26.05L26.45,47h0v0H137.58v0h97.3Z"/><path fill="#dba710" d="M229.93,135.11v28.23c0,17.14-30.68,31.06-68.54,31.06s-68.55-13.91-68.55-31.06V135.1c0,17.16,30.69,31.06,68.55,31.06s68.54-13.91,68.54-31.06Zm0-45.79v28.24c0,17.15-30.68,31.06-68.54,31.06s-68.55-13.91-68.55-31.06V89.32c0,17.15,30.69,31.05,68.55,31.05S229.93,106.47,229.93,89.32ZM161.39,43.6c37.86,0,68.54,13.26,68.54,29.61s-30.68,29.63-68.54,29.63S92.84,89.58,92.84,73.21,123.53,43.6,161.39,43.6Z"/></svg>
