<svg xmlns="http://www.w3.org/2000/svg" viewBox="0 0 260.73 208.58"><path fill="#dba710" d="M234.68,20.91H130.37c.74,0-25.8-20.91-26.07-20.91H26.07A26,26,0,0,0,.13,26.06h0L0,182.51a26.06,26.06,0,0,0,26.05,26.07H234.66a26.06,26.06,0,0,0,26.07-26.05V47A26.07,26.07,0,0,0,234.68,20.91Z"/><path fill="#fff" d="M229.83,135.18v28.23c0,17.15-30.68,31.06-68.54,31.06s-68.55-13.91-68.55-31.06V135.17c0,17.16,30.69,31.07,68.55,31.07s68.54-13.92,68.54-31.07Zm0-45.79v28.24c0,17.16-30.68,31.06-68.54,31.06s-68.55-13.9-68.55-31V89.39c0,17.15,30.69,31.06,68.55,31.06S229.83,106.54,229.83,89.39ZM161.29,43.67c37.86,0,68.54,13.26,68.54,29.62s-30.68,29.63-68.54,29.63S92.74,89.65,92.74,73.28,123.43,43.67,161.29,43.67Z"/></svg>
