<svg width="16" height="16" viewBox="0 0 16 16" fill="none" xmlns="http://www.w3.org/2000/svg">
<g id="Icon/Solid/folder-open">
<g id="Icon">
<path fill-rule="evenodd" clip-rule="evenodd" d="M1.6001 4.79995C1.6001 3.9163 2.31644 3.19995 3.2001 3.19995H6.4001L8.0001 4.79995H11.2001C12.0838 4.79995 12.8001 5.5163 12.8001 6.39995V7.19995H6.4001C5.07461 7.19995 4.0001 8.27447 4.0001 9.59995V10.8C4.0001 11.4627 3.46284 12 2.8001 12C2.13736 12 1.6001 11.4627 1.6001 10.7999V4.79995Z" fill="#FFB660"/>
<path d="M4.8001 9.59995C4.8001 8.7163 5.51644 7.99995 6.4001 7.99995H12.8001C13.6838 7.99995 14.4001 8.7163 14.4001 9.59995V11.2C14.4001 12.0836 13.6838 12.8 12.8001 12.8H1.6001H3.2001C4.08375 12.8 4.8001 12.0836 4.8001 11.2V9.59995Z" fill="#FFB660"/>
</g>
</g>
</svg>
