<svg xmlns="http://www.w3.org/2000/svg" viewBox="0 0 260.73 208.59"><path d="M234.66 20.91H130.37c.74 0-25.8-20.91-26.07-20.91H26.07A26 26 0 00.13 26.07L0 182.51a26.06 26.06 0 0026.07 26.07h208.59a26.06 26.06 0 0026.07-26.07V47a26.07 26.07 0 00-26.07-26.09zm1.64 101.23l-62.16 62.16a9.19 9.19 0 01-13 0L98.7 121.88a9.19 9.19 0 010-13l42.8-42.8 16.19 16.22a11 11 0 006 14.3v39.33a10.93 10.93 0 108.94.26V97.27L187.47 112a10.93 10.93 0 106.53-6.2L178.17 90a10.93 10.93 0 00-13.84-13.84l-16.44-16.48 13-13a9.19 9.19 0 0113 0l62.41 62.41a9.19 9.19 0 010 13.05z" fill="#e64a19" data-name="Calque 2"/></svg>