<svg xmlns="http://www.w3.org/2000/svg" viewBox="0 0 260.73 208.58"><path fill="#7985c1" d="M234.68,20.91H130.37c.74,0-25.8-20.91-26.07-20.91H26.07A26,26,0,0,0,.13,26.06h0L0,182.51a26.06,26.06,0,0,0,26.05,26.07H234.66a26.06,26.06,0,0,0,26.07-26.05V47A26.07,26.07,0,0,0,234.68,20.91Z"/><path fill="#fff" d="M142.78,139.6l-21.42-21.17.25-.27a147.79,147.79,0,0,0,31.3-55.08h24.72V46.19H118.57V29.33H101.7V46.2H42.63V63.08h94.24a133,133,0,0,1-26.74,45.14A131.93,131.93,0,0,1,90.64,80H73.77A148.51,148.51,0,0,0,98.9,118.43L56,160.78l12,12,42.18-42.18,26.24,26.23,6.41-17.2m47.5-42.78H173.4l-38,101.25h16.88l9.45-25.31h40.07l9.53,25.31h16.88l-38-101.25m-22.1,59.06,13.66-36.54,13.67,36.54Z"/></svg>
