<svg xmlns="http://www.w3.org/2000/svg" viewBox="0 0 260.93 208.43"><g fill="#7985c1"><path d="M235,20.9H130.66L104.21,0H26.05A25.94,25.94,0,0,0,.13,26v.09L0,182.38a26,26,0,0,0,26,26.05H234.48a26,26,0,0,0,26-26v-.1L260.93,47A26,26,0,0,0,235,20.9Zm-.1,161.48H26.05L26.45,47h0v0H137.58v0h97.3Z"/><path d="M142.88,139.52l-21.42-21.17.25-.26A147.87,147.87,0,0,0,153,63h24.72V46.12H118.67V29.25H101.8V46.13H42.73V63H137a133.08,133.08,0,0,1-26.74,45.14A132,132,0,0,1,90.74,79.88H73.87A148.51,148.51,0,0,0,99,118.35L56.07,160.71l12,12,42.18-42.19,26.24,26.24,6.41-17.21m47.5-42.77H173.5L135.54,198h16.88l9.45-25.31h40.07L211.47,198h16.88l-38-101.24m-22.1,59.05,13.66-36.53,13.67,36.53Z"/></g></svg>
