<svg xmlns="http://www.w3.org/2000/svg" viewBox="0 0 260.93 208.43"><path fill="#42a1da" d="M235,20.9H130.66L104.21,0H26.05A25.94,25.94,0,0,0,.13,26v.09L0,182.38a26,26,0,0,0,26,26.05H234.48a26,26,0,0,0,26-26v-.1L260.93,47A26,26,0,0,0,235,20.9ZM26.05,182.38,26.45,47h0v0H137.58v0h97.3V62.42a27.34,27.34,0,0,0-19.32-8H105.71A27.55,27.55,0,0,0,78.24,81.89v82.39a27.33,27.33,0,0,0,6.86,18.1h-59Zm102.31-40.76a6.66,6.66,0,0,1,9.62,0l4.12,4.12a6.63,6.63,0,0,0,9.61,0L197,100.43a6.64,6.64,0,0,1,9.62,0L227.23,121a6.19,6.19,0,0,1,2.06,4.8v38.45A13.77,13.77,0,0,1,215.56,178H108.45c-6.18,0-8.92-7.55-4.8-11.67Zm-22.65-46a13.73,13.73,0,1,1,13.73,13.73A13.77,13.77,0,0,1,105.71,95.62Z"/></svg>
