<svg xmlns="http://www.w3.org/2000/svg" viewBox="0 0 260.73 208.58"><path fill="#42a1da" d="M234.68,20.91H130.37c.74,0-25.8-20.91-26.07-20.91H26.07A26,26,0,0,0,.13,26.06h0L0,182.51a26.06,26.06,0,0,0,26.05,26.07H234.66a26.06,26.06,0,0,0,26.07-26.05V47A26.07,26.07,0,0,0,234.68,20.91Z"/><path fill="#fff" d="M242.93,82A27.55,27.55,0,0,0,215.46,54.5H105.61A27.55,27.55,0,0,0,78.14,82v82.4a27.55,27.55,0,0,0,27.47,27.46H215.46a27.55,27.55,0,0,0,27.47-27.46ZM119.34,82A13.74,13.74,0,1,1,105.61,95.7,13.77,13.77,0,0,1,119.34,82Zm109.85,82.4a13.77,13.77,0,0,1-13.73,13.73H108.35c-6.18,0-8.92-7.55-4.8-11.67l24.71-24.72a6.64,6.64,0,0,1,9.62,0l4.12,4.12a6.65,6.65,0,0,0,9.61,0l45.31-45.32a6.66,6.66,0,0,1,9.62,0l20.59,20.6a6.21,6.21,0,0,1,2.06,4.81Z"/></svg>
