<svg viewBox="0 0 260.73 208.59" xmlns="http://www.w3.org/2000/svg"><g fill="#99425b"><path d="m174.87 101.8a13.28 13.28 0 0 1 6.37 10.44 146.59 146.59 0 0 1 16.83 0 13.27 13.27 0 0 1 5.87-10.12l-14.55-29.68z"/><path d="m234.66 20.91h-104.29c.74 0-25.8-20.91-26.07-20.91h-78.23a26 26 0 0 0 -25.94 26.07l-.13 156.44a26.06 26.06 0 0 0 26.07 26.07h208.59a26.06 26.06 0 0 0 26.07-26.07v-135.51a26.07 26.07 0 0 0 -26.07-26.09zm-23.35 79a13.28 13.28 0 0 1 10.19 21.81 23.67 23.67 0 0 1 4.23 18 22.62 22.62 0 0 1 -11.11 15.75c-8 4.64-18 4.29-27.12 6.53-25.11 6.2-48.92 30.82-70.87 15.62-9.42-6.56-11.24-18.12-9.42-29 1.52-9.1 6.36-16.94 9.65-24.44a13.28 13.28 0 1 1 10.65 2.06c-.38.93-.78 1.86-1.17 2.78-3.44 8.12.39 17.41 8.51 21.57a53.49 53.49 0 0 0 18.65-11.59 58 58 0 0 0 10.5-13.17 13.29 13.29 0 0 1 4-25.95h.83l-18.29-53.82h77.63l-18.27 53.94a13.43 13.43 0 0 1 1.41-.12z"/></g></svg>