<svg xmlns="http://www.w3.org/2000/svg" viewBox="0 0 260.93 208.43"><g fill="#306eb5"><path d="M235,20.9H130.66L104.21,0H26.05A25.94,25.94,0,0,0,.13,26v.09L0,182.38a26,26,0,0,0,26,26.05H234.48a26,26,0,0,0,26-26v-.1L260.93,47A26,26,0,0,0,235,20.9Zm-.1,78.36A76.18,76.18,0,0,0,193.25,47h41.63ZM26.45,182.38h-.4L26.45,47h0v0H127.72a78.54,78.54,0,0,0-7.58,4.12,76.35,76.35,0,0,0,2.75,131.31H26.45Zm208,0H197.89c.94-.53,1.87-1.07,2.79-1.65a7.62,7.62,0,0,0,2.15-11L143.72,88.48A7.64,7.64,0,0,0,129.91,93v45.8a7.64,7.64,0,0,0,15.27,0V116.44l40.16,55.22a61.09,61.09,0,1,1,22.59-17.41,7.63,7.63,0,1,0,11.88,9.58,76.18,76.18,0,0,0,15.07-31.29v49.84Z"/><path class="cls-1" d="M183.34,85.34A7.63,7.63,0,0,0,175.71,93v22.9a7.63,7.63,0,0,0,15.26,0V93A7.63,7.63,0,0,0,183.34,85.34Z"/></g></svg>
