<svg xmlns="http://www.w3.org/2000/svg" viewBox="0 0 260.73 208.58"><path fill="#306eb5" d="M234.68,20.91H130.37c.74,0-25.8-20.91-26.07-20.91H26.07A26,26,0,0,0,.13,26.06h0L0,182.51a26.06,26.06,0,0,0,26.05,26.07H234.66a26.06,26.06,0,0,0,26.07-26.05V47A26.07,26.07,0,0,0,234.68,20.91Z"/><g fill="#fff"><path class="cls-2" d="M160.46,192.32a77.34,77.34,0,0,1-17.51-2,76.32,76.32,0,1,1,76.76-26.39,7.63,7.63,0,0,1-11.88-9.59,61,61,0,1,0-22.59,17.41l-40.16-55.21v22.32a7.64,7.64,0,0,1-15.27,0V93.05a7.64,7.64,0,0,1,13.81-4.5l59.11,81.29a7.62,7.62,0,0,1-2.15,11A75.84,75.84,0,0,1,160.46,192.32Z"/><path class="cls-2" d="M183.24,123.57a7.62,7.62,0,0,1-7.63-7.63V93.05a7.63,7.63,0,1,1,15.26,0v22.89A7.62,7.62,0,0,1,183.24,123.57Z"/></g></svg>
