<svg xmlns="http://www.w3.org/2000/svg" viewBox="0 0 260.93 208.43"><g fill="#4d5356"><path d="M235,20.9H130.66L104.21,0H26.05A25.94,25.94,0,0,0,.13,26v.09L0,182.38a26,26,0,0,0,26,26.05H234.48a26,26,0,0,0,26-26v-.1L260.93,47A26,26,0,0,0,235,20.9Zm-.1,161.48H26.05L26.45,47h0v0H137.58v0h97.3Z"/><path d="M125.15,154.62a6.9,6.9,0,0,0,10.63,0l39.89-41.88c3.32-3.32,0-8.64-5.32-8.64H143.76s1.33-30.58,0-46.53c-.66-7.31-6-13.3-13.29-13.3s-12.64,6-13.3,13.3c-1.33,15.29,0,46.53,0,46.53H90.58c-5.32,0-8.64,5.32-5.32,9.31Z"/><path d="M177,170.58H83.93a13.33,13.33,0,0,0-13.29,13.29h0a6.28,6.28,0,0,0,6.64,6.65H183.65a6.28,6.28,0,0,0,6.64-6.65h0A13.33,13.33,0,0,0,177,170.58Z"/></g></svg>
