<svg xmlns="http://www.w3.org/2000/svg" viewBox="0 0 260.93 208.43"><defs><style>.cls-1{fill:#6ba0b6;}</style></defs><g id="Calque_2" data-name="Calque 2"><g id="folder-i18n"><path id="folder" class="cls-1" d="M235,20.9H130.66L104.21,0H26.05A25.94,25.94,0,0,0,.13,26v.09L0,182.38a26,26,0,0,0,26,26.05H234.48a26,26,0,0,0,26-26v-.1L260.93,47A26,26,0,0,0,235,20.9Zm-.1,161.48H26.05L26.45,47h0v0H137.58v0h97.3Z"/><path class="cls-1" d="M125.74,78.12v27.5a8.68,8.68,0,0,1-4.19,7.6c-2.76,1.76-6.7,2.67-11.8,2.67v13c5.1,0,9,.92,11.8,2.68a8.52,8.52,0,0,1,4.19,7.59v27.58c0,8.16,3.18,14.49,9.54,18.92s15.31,6.68,26.86,6.68v-13q-8.28,0-12.8-3a9.32,9.32,0,0,1-4.52-8.23V140c0-7.46-2.93-13.3-8.71-17.45a19.36,19.36,0,0,0,8.71-16.81V76.57a9.32,9.32,0,0,1,4.52-8.23c3-1.9,7.28-2.88,12.8-2.88v-13c-11.55,0-20.59,2.25-26.86,6.76S125.74,70,125.74,78.12Z"/><path class="cls-1" d="M229.75,113.22a8.52,8.52,0,0,1-4.18-7.6V78.12c0-8.16-3.18-14.49-9.54-18.92s-15.32-6.76-26.87-6.76v13c5.52,0,9.79,1,12.8,2.88a9.14,9.14,0,0,1,4.52,8.23v29.12a19.36,19.36,0,0,0,8.71,16.81c-5.78,4.15-8.71,10-8.71,17.45v28.2a9.3,9.3,0,0,1-4.52,8.23q-4.52,3-12.8,3v13c11.55,0,20.5-2.25,26.87-6.68s9.54-10.76,9.54-18.92V139.17a8.67,8.67,0,0,1,4.18-7.59c2.76-1.76,6.7-2.68,11.8-2.68v-13C236.45,115.89,232.51,115,229.75,113.22Z"/></g></g></svg>