<svg xmlns="http://www.w3.org/2000/svg" viewBox="0 0 260.73 208.58"><path id="folder" fill="#7eb73c" d="M234.68,20.91H130.37c.74,0-25.8-20.91-26.07-20.91H26.07A26,26,0,0,0,.13,26.06h0L0,182.51a26.06,26.06,0,0,0,26.05,26.07H234.66a26.06,26.06,0,0,0,26.07-26.05V47A26.07,26.07,0,0,0,234.68,20.91Z"/><path id="paint" fill="#fff" d="M143.7,42c-46.87,10.57-76.89,54.56-67,98.24s55.85,70.52,102.73,60c7.83-1.77,12.82-9.08,11.17-16.38a12.7,12.7,0,0,0-5.67-8,12.87,12.87,0,0,1-5.51-8c-1.65-7.29,3.35-14.61,11.17-16.37l16.65-3.76c26-5.87,42.72-30.32,37.24-54.58C235.68,54.27,190.57,31.38,143.7,42Zm-34,90.79c-7.83,1.77-15.47-2.69-17.12-10s3.34-14.61,11.17-16.37,15.48,2.69,17.12,10S117.5,131,109.67,132.75ZM130,91.22c-7.82,1.76-15.47-2.7-17.12-10s3.35-14.61,11.18-16.38,15.47,2.7,17.12,10S137.86,89.45,130,91.22Zm47.16-10.64c-7.83,1.76-15.47-2.7-17.12-10S163.42,56,171.24,54.21s15.48,2.7,17.12,10S185,78.81,177.19,80.58Zm36.23,28.77c-7.83,1.76-15.48-2.7-17.12-10S199.64,84.75,207.47,83s15.47,2.7,17.12,10S221.24,107.58,213.42,109.35Z"/></svg>
