<svg xmlns="http://www.w3.org/2000/svg" viewBox="0 0 260.93 208.43"><g fill="#7eb73c"><path id="folder" d="M235,20.9H130.66L104.21,0H26.05A25.94,25.94,0,0,0,.13,26v.09L0,182.38a26,26,0,0,0,26,26.05H234.48a26,26,0,0,0,26-26v-.1L260.93,47A26,26,0,0,0,235,20.9Zm-.1,161.48H26.05L26.45,47h0v0H137.58v0h97.3Z"/><path d="M143.8,41.88c-46.87,10.58-76.89,54.57-67,98.25s55.85,70.52,102.73,59.94c7.83-1.76,12.82-9.08,11.17-16.37a12.72,12.72,0,0,0-5.67-8,12.84,12.84,0,0,1-5.51-7.94c-1.65-7.3,3.35-14.61,11.17-16.38l16.65-3.75c26-5.87,42.72-30.33,37.24-54.58C235.78,54.19,190.67,31.31,143.8,41.88Zm-34,90.8c-7.83,1.76-15.47-2.7-17.12-10s3.34-14.61,11.17-16.38,15.48,2.7,17.12,10S117.6,130.91,109.77,132.68Zm20.36-41.54c-7.82,1.77-15.47-2.69-17.12-10s3.35-14.61,11.18-16.37,15.47,2.69,17.12,10S138,89.38,130.13,91.14ZM177.29,80.5c-7.83,1.77-15.47-2.69-17.12-10s3.35-14.61,11.17-16.37,15.48,2.69,17.12,10S185.12,78.74,177.29,80.5Zm36.23,28.77c-7.83,1.77-15.48-2.69-17.12-10s3.34-14.61,11.17-16.37,15.47,2.69,17.12,10S221.34,107.51,213.52,109.27Z"/></g></svg>
