<svg xmlns="http://www.w3.org/2000/svg" viewBox="0 0 260.73 208.58"><path id="folder" fill="#d5843d" d="M234.68,20.91H130.37c.74,0-25.8-20.91-26.07-20.91H26.07A26,26,0,0,0,.13,26.06h0L0,182.51a26.06,26.06,0,0,0,26.05,26.07H234.66a26.06,26.06,0,0,0,26.07-26.05V47A26.07,26.07,0,0,0,234.68,20.91Z"/><g id="icon" stroke="#fff" fill="none" stroke-miterlimit="10" stroke-width="24px"><polyline points="98.36 178.47 53.53 125.66 98.36 72.85"/><polyline points="188.03 74.72 232.86 127.45 188.03 180.26"/></g><polygon fill="#fff" points="136.07 187.57 113.03 187.57 148.64 63.75 171.69 63.75 136.07 187.57"/></svg>
