<svg xmlns="http://www.w3.org/2000/svg" viewBox="0 0 260.93 208.43"><path id="folder" fill="#d5843d" d="M235,20.9H130.66L104.21,0H26.05A25.94,25.94,0,0,0,.13,26v.09L0,182.38a26,26,0,0,0,26,26.05H234.48a26,26,0,0,0,26-26v-.1L260.93,47A26,26,0,0,0,235,20.9Zm-.1,161.48H26.05L26.45,47h0v0H137.58v0h97.3Z"/><g id="icon" stroke="#d5843d" fill="none" stroke-miterlimit="10" stroke-width="24px"><polyline points="98.36 178.47 53.53 125.66 98.36 72.85"/><polyline points="188.03 74.72 232.86 127.45 188.03 180.26"/></g><polygon fill="#d5843d" points="136.07 187.57 113.03 187.57 148.64 63.75 171.69 63.75 136.07 187.57"/></svg>
