<svg xmlns="http://www.w3.org/2000/svg" viewBox="0 0 260.93 208.43"><g><path d="M234.88 20.9H130.66L104.21 0H26.05A25.94 25.94 0 00.13 26.05L0 182.38a26 26 0 0026.05 26.05h208.43a26 26 0 0026.05-26.05l.4-135.43a26 26 0 00-26.05-26.05zM190.6 146l-42-31.81 42-32.08zM26.45 46.95h155.46l-55.46 50.48L101 78.19c-2.94-2.55-5.71.38-5.71.38l-9.71 8.68c-4.17 3.34-.69 5.84-.69 5.84L108 114l-23.07 21s-2.37 1.76 0 4.92l10.72 9.75s2.55 2.73 6.31-.38l24.47-18.56 56.83 51.61H26.05zm208 135.43h-40.1l28.09-13.84c4.22-2.88 3.63-6.45 3.63-6.45V65c0-4.27-4.37-5.74-4.37-5.74l-25.54-12.31h38.72z" fill="#42a5f5"/></g></svg>
